%
M48
M72
T01C0.04000
%
T01
X16000Y16000
X16000Y26000
X16000Y36000
X16000Y46000
X16000Y56000
X16000Y66000
X16000Y76000
X16000Y86000
X46000Y16000
X56000Y16000
X66000Y16000
X76000Y16000
X86000Y16000
X96000Y16000
X106000Y16000
X116000Y16000
X141000Y16000
X141000Y26000
X141000Y36000
X141000Y46000
X141000Y56000
X141000Y66000
X141000Y76000
X141000Y86000
M30
