G75*
%MOIN*%
%OFA0B0*%
%FSLAX25Y25*%
%IPPOS*%
%LPD*%
%AMOC8*
5,1,8,0,0,1.08239X$1,22.5*
%
%ADD10C,0.00000*%
%ADD11C,0.00600*%
%ADD12C,0.00500*%
%ADD13R,0.08661X0.06102*%
%ADD14C,0.00200*%
%ADD15C,0.00100*%
D10*
X0001000Y0001000D02*
X0001000Y0104701D01*
X0160921Y0104701D01*
X0160921Y0001000D01*
X0001000Y0001000D01*
D11*
X0013500Y0011000D02*
X0018500Y0011000D01*
X0021000Y0013500D01*
X0021000Y0018500D01*
X0018500Y0021000D01*
X0013500Y0021000D01*
X0011000Y0018500D01*
X0011000Y0013500D01*
X0013500Y0011000D01*
X0013500Y0021000D02*
X0018500Y0021000D01*
X0021000Y0023500D01*
X0021000Y0028500D01*
X0018500Y0031000D01*
X0013500Y0031000D01*
X0011000Y0033500D01*
X0011000Y0038500D01*
X0013500Y0041000D01*
X0018500Y0041000D01*
X0021000Y0043500D01*
X0021000Y0048500D01*
X0018500Y0051000D01*
X0013500Y0051000D01*
X0011000Y0053500D01*
X0011000Y0058500D01*
X0013500Y0061000D01*
X0018500Y0061000D01*
X0021000Y0063500D01*
X0021000Y0068500D01*
X0018500Y0071000D01*
X0013500Y0071000D01*
X0011000Y0073500D01*
X0011000Y0078500D01*
X0013500Y0081000D01*
X0018500Y0081000D01*
X0021000Y0083500D01*
X0021000Y0088500D01*
X0018500Y0091000D01*
X0013500Y0091000D01*
X0011000Y0088500D01*
X0011000Y0083500D01*
X0013500Y0081000D01*
X0018500Y0081000D01*
X0021000Y0078500D01*
X0021000Y0073500D01*
X0018500Y0071000D01*
X0013500Y0071000D01*
X0011000Y0068500D01*
X0011000Y0063500D01*
X0013500Y0061000D01*
X0018500Y0061000D01*
X0021000Y0058500D01*
X0021000Y0053500D01*
X0018500Y0051000D01*
X0013500Y0051000D01*
X0011000Y0048500D01*
X0011000Y0043500D01*
X0013500Y0041000D01*
X0018500Y0041000D01*
X0021000Y0038500D01*
X0021000Y0033500D01*
X0018500Y0031000D01*
X0013500Y0031000D01*
X0011000Y0028500D01*
X0011000Y0023500D01*
X0013500Y0021000D01*
X0041000Y0018500D02*
X0041000Y0013500D01*
X0043500Y0011000D01*
X0048500Y0011000D01*
X0051000Y0013500D01*
X0051000Y0018500D01*
X0048500Y0021000D01*
X0043500Y0021000D01*
X0041000Y0018500D01*
X0051000Y0018500D02*
X0051000Y0013500D01*
X0053500Y0011000D01*
X0058500Y0011000D01*
X0061000Y0013500D01*
X0061000Y0018500D01*
X0058500Y0021000D01*
X0053500Y0021000D01*
X0051000Y0018500D01*
X0061000Y0018500D02*
X0061000Y0013500D01*
X0063500Y0011000D01*
X0068500Y0011000D01*
X0071000Y0013500D01*
X0071000Y0018500D01*
X0068500Y0021000D01*
X0063500Y0021000D01*
X0061000Y0018500D01*
X0071000Y0018500D02*
X0071000Y0013500D01*
X0073500Y0011000D01*
X0078500Y0011000D01*
X0081000Y0013500D01*
X0081000Y0018500D01*
X0078500Y0021000D01*
X0073500Y0021000D01*
X0071000Y0018500D01*
X0081000Y0018500D02*
X0081000Y0013500D01*
X0083500Y0011000D01*
X0088500Y0011000D01*
X0091000Y0013500D01*
X0091000Y0018500D01*
X0088500Y0021000D01*
X0083500Y0021000D01*
X0081000Y0018500D01*
X0091000Y0018500D02*
X0091000Y0013500D01*
X0093500Y0011000D01*
X0098500Y0011000D01*
X0101000Y0013500D01*
X0103500Y0011000D01*
X0108500Y0011000D01*
X0111000Y0013500D01*
X0111000Y0018500D01*
X0108500Y0021000D01*
X0103500Y0021000D01*
X0101000Y0018500D01*
X0101000Y0013500D01*
X0101000Y0018500D01*
X0098500Y0021000D01*
X0093500Y0021000D01*
X0091000Y0018500D01*
X0111000Y0018500D02*
X0111000Y0013500D01*
X0113500Y0011000D01*
X0118500Y0011000D01*
X0121000Y0013500D01*
X0121000Y0018500D01*
X0118500Y0021000D01*
X0113500Y0021000D01*
X0111000Y0018500D01*
X0136000Y0018500D02*
X0136000Y0013500D01*
X0138500Y0011000D01*
X0143500Y0011000D01*
X0146000Y0013500D01*
X0146000Y0018500D01*
X0143500Y0021000D01*
X0138500Y0021000D01*
X0136000Y0018500D01*
X0138500Y0021000D02*
X0143500Y0021000D01*
X0146000Y0023500D01*
X0146000Y0028500D01*
X0143500Y0031000D01*
X0138500Y0031000D01*
X0136000Y0028500D01*
X0136000Y0023500D01*
X0138500Y0021000D01*
X0138500Y0031000D02*
X0143500Y0031000D01*
X0146000Y0033500D01*
X0146000Y0038500D01*
X0143500Y0041000D01*
X0138500Y0041000D01*
X0136000Y0038500D01*
X0136000Y0033500D01*
X0138500Y0031000D01*
X0138500Y0041000D02*
X0143500Y0041000D01*
X0146000Y0043500D01*
X0146000Y0048500D01*
X0143500Y0051000D01*
X0138500Y0051000D01*
X0136000Y0048500D01*
X0136000Y0043500D01*
X0138500Y0041000D01*
X0138500Y0051000D02*
X0143500Y0051000D01*
X0146000Y0053500D01*
X0146000Y0058500D01*
X0143500Y0061000D01*
X0138500Y0061000D01*
X0136000Y0058500D01*
X0136000Y0053500D01*
X0138500Y0051000D01*
X0138500Y0061000D02*
X0143500Y0061000D01*
X0146000Y0063500D01*
X0146000Y0068500D01*
X0143500Y0071000D01*
X0138500Y0071000D01*
X0136000Y0068500D01*
X0136000Y0063500D01*
X0138500Y0061000D01*
X0138500Y0071000D02*
X0143500Y0071000D01*
X0146000Y0073500D01*
X0146000Y0078500D01*
X0143500Y0081000D01*
X0138500Y0081000D01*
X0136000Y0078500D01*
X0136000Y0073500D01*
X0138500Y0071000D01*
X0138500Y0081000D02*
X0143500Y0081000D01*
X0146000Y0083500D01*
X0146000Y0088500D01*
X0143500Y0091000D01*
X0138500Y0091000D01*
X0136000Y0088500D01*
X0136000Y0083500D01*
X0138500Y0081000D01*
D12*
X0150950Y0083450D02*
X0153953Y0086453D01*
X0153953Y0087203D01*
X0153202Y0087954D01*
X0151701Y0087954D01*
X0150950Y0087203D01*
X0150950Y0083450D02*
X0153953Y0083450D01*
X0155554Y0085702D02*
X0158556Y0085702D01*
X0157806Y0087954D02*
X0155554Y0085702D01*
X0157806Y0083450D02*
X0157806Y0087954D01*
X0157806Y0077954D02*
X0156305Y0077954D01*
X0155554Y0077203D01*
X0153953Y0077203D02*
X0153953Y0076453D01*
X0150950Y0073450D01*
X0153953Y0073450D01*
X0155554Y0074201D02*
X0156305Y0073450D01*
X0157806Y0073450D01*
X0158556Y0074201D01*
X0158556Y0074951D01*
X0157806Y0075702D01*
X0157055Y0075702D01*
X0157806Y0075702D02*
X0158556Y0076453D01*
X0158556Y0077203D01*
X0157806Y0077954D01*
X0153953Y0077203D02*
X0153202Y0077954D01*
X0151701Y0077954D01*
X0150950Y0077203D01*
X0151701Y0067954D02*
X0150950Y0067203D01*
X0151701Y0067954D02*
X0153202Y0067954D01*
X0153953Y0067203D01*
X0153953Y0066453D01*
X0150950Y0063450D01*
X0153953Y0063450D01*
X0155554Y0063450D02*
X0158556Y0066453D01*
X0158556Y0067203D01*
X0157806Y0067954D01*
X0156305Y0067954D01*
X0155554Y0067203D01*
X0155554Y0063450D02*
X0158556Y0063450D01*
X0157055Y0057954D02*
X0157055Y0053450D01*
X0155554Y0053450D02*
X0158556Y0053450D01*
X0155554Y0056453D02*
X0157055Y0057954D01*
X0153953Y0057203D02*
X0153953Y0056453D01*
X0150950Y0053450D01*
X0153953Y0053450D01*
X0153953Y0057203D02*
X0153202Y0057954D01*
X0151701Y0057954D01*
X0150950Y0057203D01*
X0151701Y0047954D02*
X0150950Y0047203D01*
X0151701Y0047954D02*
X0153202Y0047954D01*
X0153953Y0047203D01*
X0153953Y0046453D01*
X0150950Y0043450D01*
X0153953Y0043450D01*
X0155554Y0044201D02*
X0158556Y0047203D01*
X0158556Y0044201D01*
X0157806Y0043450D01*
X0156305Y0043450D01*
X0155554Y0044201D01*
X0155554Y0047203D01*
X0156305Y0047954D01*
X0157806Y0047954D01*
X0158556Y0047203D01*
X0157806Y0037954D02*
X0156305Y0037954D01*
X0155554Y0037203D01*
X0155554Y0036453D01*
X0156305Y0035702D01*
X0158556Y0035702D01*
X0158556Y0034201D02*
X0158556Y0037203D01*
X0157806Y0037954D01*
X0158556Y0034201D02*
X0157806Y0033450D01*
X0156305Y0033450D01*
X0155554Y0034201D01*
X0153953Y0033450D02*
X0150950Y0033450D01*
X0152451Y0033450D02*
X0152451Y0037954D01*
X0150950Y0036453D01*
X0152451Y0027954D02*
X0152451Y0023450D01*
X0150950Y0023450D02*
X0153953Y0023450D01*
X0155554Y0024201D02*
X0155554Y0024951D01*
X0156305Y0025702D01*
X0157806Y0025702D01*
X0158556Y0024951D01*
X0158556Y0024201D01*
X0157806Y0023450D01*
X0156305Y0023450D01*
X0155554Y0024201D01*
X0156305Y0025702D02*
X0155554Y0026453D01*
X0155554Y0027203D01*
X0156305Y0027954D01*
X0157806Y0027954D01*
X0158556Y0027203D01*
X0158556Y0026453D01*
X0157806Y0025702D01*
X0152451Y0027954D02*
X0150950Y0026453D01*
X0152451Y0017954D02*
X0152451Y0013450D01*
X0150950Y0013450D02*
X0153953Y0013450D01*
X0155554Y0013450D02*
X0155554Y0014201D01*
X0158556Y0017203D01*
X0158556Y0017954D01*
X0155554Y0017954D01*
X0152451Y0017954D02*
X0150950Y0016453D01*
X0123556Y0007954D02*
X0122055Y0007203D01*
X0120554Y0005702D01*
X0122806Y0005702D01*
X0123556Y0004951D01*
X0123556Y0004201D01*
X0122806Y0003450D01*
X0121305Y0003450D01*
X0120554Y0004201D01*
X0120554Y0005702D01*
X0118953Y0003450D02*
X0115950Y0003450D01*
X0117451Y0003450D02*
X0117451Y0007954D01*
X0115950Y0006453D01*
X0113556Y0005702D02*
X0113556Y0004201D01*
X0112806Y0003450D01*
X0111305Y0003450D01*
X0110554Y0004201D01*
X0110554Y0005702D02*
X0112055Y0006453D01*
X0112806Y0006453D01*
X0113556Y0005702D01*
X0110554Y0005702D02*
X0110554Y0007954D01*
X0113556Y0007954D01*
X0107451Y0007954D02*
X0107451Y0003450D01*
X0105950Y0003450D02*
X0108953Y0003450D01*
X0105950Y0006453D02*
X0107451Y0007954D01*
X0103556Y0005702D02*
X0100554Y0005702D01*
X0102806Y0007954D01*
X0102806Y0003450D01*
X0098953Y0003450D02*
X0095950Y0003450D01*
X0097451Y0003450D02*
X0097451Y0007954D01*
X0095950Y0006453D01*
X0093556Y0006453D02*
X0092806Y0005702D01*
X0093556Y0004951D01*
X0093556Y0004201D01*
X0092806Y0003450D01*
X0091305Y0003450D01*
X0090554Y0004201D01*
X0088953Y0003450D02*
X0085950Y0003450D01*
X0087451Y0003450D02*
X0087451Y0007954D01*
X0085950Y0006453D01*
X0090554Y0007203D02*
X0091305Y0007954D01*
X0092806Y0007954D01*
X0093556Y0007203D01*
X0093556Y0006453D01*
X0092806Y0005702D02*
X0092055Y0005702D01*
X0078556Y0006453D02*
X0078556Y0007203D01*
X0077806Y0007954D01*
X0076305Y0007954D01*
X0075554Y0007203D01*
X0078556Y0006453D02*
X0075554Y0003450D01*
X0078556Y0003450D01*
X0073953Y0003450D02*
X0070950Y0003450D01*
X0072451Y0003450D02*
X0072451Y0007954D01*
X0070950Y0006453D01*
X0067055Y0007954D02*
X0067055Y0003450D01*
X0065554Y0003450D02*
X0068556Y0003450D01*
X0065554Y0006453D02*
X0067055Y0007954D01*
X0062451Y0007954D02*
X0062451Y0003450D01*
X0060950Y0003450D02*
X0063953Y0003450D01*
X0060950Y0006453D02*
X0062451Y0007954D01*
X0058556Y0007203D02*
X0055554Y0004201D01*
X0056305Y0003450D01*
X0057806Y0003450D01*
X0058556Y0004201D01*
X0058556Y0007203D01*
X0057806Y0007954D01*
X0056305Y0007954D01*
X0055554Y0007203D01*
X0055554Y0004201D01*
X0053953Y0003450D02*
X0050950Y0003450D01*
X0052451Y0003450D02*
X0052451Y0007954D01*
X0050950Y0006453D01*
X0043953Y0007203D02*
X0043953Y0004201D01*
X0043202Y0003450D01*
X0041701Y0003450D01*
X0040950Y0004201D01*
X0041701Y0005702D02*
X0043953Y0005702D01*
X0043953Y0007203D02*
X0043202Y0007954D01*
X0041701Y0007954D01*
X0040950Y0007203D01*
X0040950Y0006453D01*
X0041701Y0005702D01*
X0008953Y0014201D02*
X0008202Y0013450D01*
X0006701Y0013450D01*
X0005950Y0014201D01*
X0005950Y0014951D01*
X0006701Y0015702D01*
X0008202Y0015702D01*
X0008953Y0014951D01*
X0008953Y0014201D01*
X0008202Y0015702D02*
X0008953Y0016453D01*
X0008953Y0017203D01*
X0008202Y0017954D01*
X0006701Y0017954D01*
X0005950Y0017203D01*
X0005950Y0016453D01*
X0006701Y0015702D01*
X0005950Y0023450D02*
X0005950Y0024201D01*
X0008953Y0027203D01*
X0008953Y0027954D01*
X0005950Y0027954D01*
X0006701Y0033450D02*
X0008202Y0033450D01*
X0008953Y0034201D01*
X0008953Y0034951D01*
X0008202Y0035702D01*
X0005950Y0035702D01*
X0005950Y0034201D01*
X0006701Y0033450D01*
X0005950Y0035702D02*
X0007451Y0037203D01*
X0008953Y0037954D01*
X0008202Y0043450D02*
X0006701Y0043450D01*
X0005950Y0044201D01*
X0005950Y0045702D02*
X0007451Y0046453D01*
X0008202Y0046453D01*
X0008953Y0045702D01*
X0008953Y0044201D01*
X0008202Y0043450D01*
X0005950Y0045702D02*
X0005950Y0047954D01*
X0008953Y0047954D01*
X0008202Y0053450D02*
X0008202Y0057954D01*
X0005950Y0055702D01*
X0008953Y0055702D01*
X0008202Y0063450D02*
X0006701Y0063450D01*
X0005950Y0064201D01*
X0007451Y0065702D02*
X0008202Y0065702D01*
X0008953Y0064951D01*
X0008953Y0064201D01*
X0008202Y0063450D01*
X0008202Y0065702D02*
X0008953Y0066453D01*
X0008953Y0067203D01*
X0008202Y0067954D01*
X0006701Y0067954D01*
X0005950Y0067203D01*
X0005950Y0073450D02*
X0008953Y0076453D01*
X0008953Y0077203D01*
X0008202Y0077954D01*
X0006701Y0077954D01*
X0005950Y0077203D01*
X0005950Y0073450D02*
X0008953Y0073450D01*
X0008953Y0083450D02*
X0005950Y0083450D01*
X0007451Y0083450D02*
X0007451Y0087954D01*
X0005950Y0086453D01*
X0056197Y0103283D02*
X0101276Y0103283D01*
X0101276Y0046000D01*
X0056000Y0046000D01*
X0056000Y0122772D01*
X0101276Y0122772D01*
X0101276Y0103283D01*
X0096748Y0111748D02*
X0089071Y0111748D01*
X0088979Y0111750D01*
X0088887Y0111756D01*
X0088796Y0111766D01*
X0088705Y0111779D01*
X0088615Y0111797D01*
X0088525Y0111818D01*
X0088437Y0111843D01*
X0088350Y0111872D01*
X0088264Y0111904D01*
X0088179Y0111940D01*
X0088096Y0111980D01*
X0088015Y0112023D01*
X0087936Y0112069D01*
X0087859Y0112119D01*
X0087784Y0112172D01*
X0087711Y0112229D01*
X0087641Y0112288D01*
X0087573Y0112350D01*
X0087508Y0112415D01*
X0087446Y0112483D01*
X0087387Y0112553D01*
X0087330Y0112626D01*
X0087277Y0112701D01*
X0087227Y0112778D01*
X0087181Y0112857D01*
X0087138Y0112938D01*
X0087098Y0113021D01*
X0087062Y0113106D01*
X0087030Y0113192D01*
X0087001Y0113279D01*
X0086976Y0113367D01*
X0086955Y0113457D01*
X0086937Y0113547D01*
X0086924Y0113638D01*
X0086914Y0113729D01*
X0086908Y0113821D01*
X0086906Y0113913D01*
X0086904Y0113995D01*
X0086898Y0114076D01*
X0086889Y0114158D01*
X0086876Y0114239D01*
X0086859Y0114319D01*
X0086838Y0114398D01*
X0086814Y0114476D01*
X0086786Y0114553D01*
X0086755Y0114629D01*
X0086720Y0114703D01*
X0086682Y0114775D01*
X0086641Y0114846D01*
X0086596Y0114914D01*
X0086548Y0114981D01*
X0086497Y0115045D01*
X0086444Y0115107D01*
X0086387Y0115166D01*
X0086328Y0115223D01*
X0086266Y0115276D01*
X0086202Y0115327D01*
X0086135Y0115375D01*
X0086067Y0115420D01*
X0085996Y0115461D01*
X0085924Y0115499D01*
X0085850Y0115534D01*
X0085774Y0115565D01*
X0085697Y0115593D01*
X0085619Y0115617D01*
X0085540Y0115638D01*
X0085460Y0115655D01*
X0085379Y0115668D01*
X0085297Y0115677D01*
X0085216Y0115683D01*
X0085134Y0115685D01*
X0084346Y0115685D01*
X0084264Y0115683D01*
X0084183Y0115677D01*
X0084101Y0115668D01*
X0084020Y0115655D01*
X0083940Y0115638D01*
X0083861Y0115617D01*
X0083783Y0115593D01*
X0083706Y0115565D01*
X0083630Y0115534D01*
X0083556Y0115499D01*
X0083484Y0115461D01*
X0083413Y0115420D01*
X0083345Y0115375D01*
X0083278Y0115327D01*
X0083214Y0115276D01*
X0083152Y0115223D01*
X0083093Y0115166D01*
X0083036Y0115107D01*
X0082983Y0115045D01*
X0082932Y0114981D01*
X0082884Y0114914D01*
X0082839Y0114846D01*
X0082798Y0114775D01*
X0082760Y0114703D01*
X0082725Y0114629D01*
X0082694Y0114553D01*
X0082666Y0114476D01*
X0082642Y0114398D01*
X0082621Y0114319D01*
X0082604Y0114239D01*
X0082591Y0114158D01*
X0082582Y0114076D01*
X0082576Y0113995D01*
X0082574Y0113913D01*
X0082575Y0113913D02*
X0082575Y0111748D01*
X0082574Y0111748D02*
X0082572Y0111656D01*
X0082566Y0111564D01*
X0082556Y0111473D01*
X0082543Y0111382D01*
X0082525Y0111292D01*
X0082504Y0111202D01*
X0082479Y0111114D01*
X0082450Y0111027D01*
X0082418Y0110941D01*
X0082382Y0110856D01*
X0082342Y0110773D01*
X0082299Y0110692D01*
X0082253Y0110613D01*
X0082203Y0110536D01*
X0082150Y0110461D01*
X0082093Y0110388D01*
X0082034Y0110318D01*
X0081972Y0110250D01*
X0081907Y0110185D01*
X0081839Y0110123D01*
X0081769Y0110064D01*
X0081696Y0110007D01*
X0081621Y0109954D01*
X0081544Y0109904D01*
X0081465Y0109858D01*
X0081384Y0109815D01*
X0081301Y0109775D01*
X0081216Y0109739D01*
X0081130Y0109707D01*
X0081043Y0109678D01*
X0080955Y0109653D01*
X0080865Y0109632D01*
X0080775Y0109614D01*
X0080684Y0109601D01*
X0080593Y0109591D01*
X0080501Y0109585D01*
X0080409Y0109583D01*
X0080213Y0109583D01*
X0080213Y0109582D02*
X0080127Y0109584D01*
X0080041Y0109589D01*
X0079956Y0109599D01*
X0079871Y0109612D01*
X0079787Y0109629D01*
X0079703Y0109649D01*
X0079621Y0109673D01*
X0079540Y0109701D01*
X0079459Y0109732D01*
X0079381Y0109766D01*
X0079304Y0109804D01*
X0079229Y0109846D01*
X0079155Y0109890D01*
X0079084Y0109938D01*
X0079014Y0109989D01*
X0078947Y0110043D01*
X0078883Y0110099D01*
X0078821Y0110159D01*
X0078761Y0110221D01*
X0078705Y0110285D01*
X0078651Y0110352D01*
X0078600Y0110422D01*
X0078552Y0110493D01*
X0078508Y0110567D01*
X0078466Y0110642D01*
X0078428Y0110719D01*
X0078394Y0110797D01*
X0078363Y0110878D01*
X0078335Y0110959D01*
X0078311Y0111041D01*
X0078291Y0111125D01*
X0078274Y0111209D01*
X0078261Y0111294D01*
X0078251Y0111379D01*
X0078246Y0111465D01*
X0078244Y0111551D01*
X0078244Y0117654D01*
X0078245Y0117654D02*
X0078243Y0117740D01*
X0078238Y0117826D01*
X0078228Y0117911D01*
X0078215Y0117996D01*
X0078198Y0118080D01*
X0078178Y0118164D01*
X0078154Y0118246D01*
X0078126Y0118327D01*
X0078095Y0118408D01*
X0078061Y0118486D01*
X0078023Y0118563D01*
X0077981Y0118639D01*
X0077937Y0118712D01*
X0077889Y0118783D01*
X0077838Y0118853D01*
X0077784Y0118920D01*
X0077728Y0118984D01*
X0077668Y0119046D01*
X0077606Y0119106D01*
X0077542Y0119162D01*
X0077475Y0119216D01*
X0077405Y0119267D01*
X0077334Y0119315D01*
X0077261Y0119359D01*
X0077185Y0119401D01*
X0077108Y0119439D01*
X0077030Y0119473D01*
X0076949Y0119504D01*
X0076868Y0119532D01*
X0076786Y0119556D01*
X0076702Y0119576D01*
X0076618Y0119593D01*
X0076533Y0119606D01*
X0076448Y0119616D01*
X0076362Y0119621D01*
X0076276Y0119623D01*
X0076276Y0119622D02*
X0076079Y0119425D01*
X0076007Y0119423D01*
X0075935Y0119417D01*
X0075863Y0119408D01*
X0075792Y0119395D01*
X0075722Y0119378D01*
X0075653Y0119358D01*
X0075585Y0119333D01*
X0075519Y0119306D01*
X0075453Y0119275D01*
X0075390Y0119240D01*
X0075328Y0119203D01*
X0075269Y0119162D01*
X0075212Y0119118D01*
X0075157Y0119071D01*
X0075105Y0119021D01*
X0075055Y0118969D01*
X0075008Y0118914D01*
X0074964Y0118857D01*
X0074923Y0118798D01*
X0074886Y0118736D01*
X0074851Y0118673D01*
X0074820Y0118607D01*
X0074793Y0118541D01*
X0074768Y0118473D01*
X0074748Y0118404D01*
X0074731Y0118334D01*
X0074718Y0118263D01*
X0074709Y0118191D01*
X0074703Y0118119D01*
X0074701Y0118047D01*
X0074701Y0111748D01*
X0074699Y0111648D01*
X0074693Y0111547D01*
X0074683Y0111447D01*
X0074669Y0111348D01*
X0074652Y0111249D01*
X0074630Y0111151D01*
X0074605Y0111053D01*
X0074576Y0110957D01*
X0074543Y0110862D01*
X0074506Y0110769D01*
X0074466Y0110677D01*
X0074422Y0110586D01*
X0074375Y0110498D01*
X0074324Y0110411D01*
X0074270Y0110326D01*
X0074212Y0110244D01*
X0074152Y0110164D01*
X0074088Y0110086D01*
X0074021Y0110011D01*
X0073951Y0109939D01*
X0073879Y0109869D01*
X0073804Y0109802D01*
X0073726Y0109738D01*
X0073646Y0109678D01*
X0073564Y0109620D01*
X0073479Y0109566D01*
X0073392Y0109515D01*
X0073304Y0109468D01*
X0073213Y0109424D01*
X0073121Y0109384D01*
X0073028Y0109347D01*
X0072933Y0109314D01*
X0072837Y0109285D01*
X0072739Y0109260D01*
X0072641Y0109238D01*
X0072542Y0109221D01*
X0072443Y0109207D01*
X0072343Y0109197D01*
X0072242Y0109191D01*
X0072142Y0109189D01*
X0072142Y0109188D02*
X0072056Y0109190D01*
X0071970Y0109195D01*
X0071885Y0109205D01*
X0071800Y0109218D01*
X0071716Y0109235D01*
X0071632Y0109255D01*
X0071550Y0109279D01*
X0071469Y0109307D01*
X0071388Y0109338D01*
X0071310Y0109372D01*
X0071233Y0109410D01*
X0071158Y0109452D01*
X0071084Y0109496D01*
X0071013Y0109544D01*
X0070943Y0109595D01*
X0070876Y0109649D01*
X0070812Y0109705D01*
X0070750Y0109765D01*
X0070690Y0109827D01*
X0070634Y0109891D01*
X0070580Y0109958D01*
X0070529Y0110028D01*
X0070481Y0110099D01*
X0070437Y0110173D01*
X0070395Y0110248D01*
X0070357Y0110325D01*
X0070323Y0110403D01*
X0070292Y0110484D01*
X0070264Y0110565D01*
X0070240Y0110647D01*
X0070220Y0110731D01*
X0070203Y0110815D01*
X0070190Y0110900D01*
X0070180Y0110985D01*
X0070175Y0111071D01*
X0070173Y0111157D01*
X0070173Y0119622D01*
X0065449Y0119622D01*
X0065449Y0108598D01*
X0075882Y0082811D02*
X0075882Y0065488D01*
X0080409Y0070213D01*
X0069780Y0080843D01*
X0076079Y0082811D02*
X0080213Y0078874D01*
X0069976Y0068638D01*
X0081197Y0072772D02*
X0081277Y0072805D01*
X0081355Y0072841D01*
X0081432Y0072881D01*
X0081506Y0072924D01*
X0081579Y0072970D01*
X0081650Y0073020D01*
X0081718Y0073073D01*
X0081784Y0073128D01*
X0081848Y0073187D01*
X0081908Y0073248D01*
X0081966Y0073312D01*
X0082021Y0073379D01*
X0082073Y0073448D01*
X0082122Y0073519D01*
X0082168Y0073592D01*
X0082210Y0073668D01*
X0082249Y0073745D01*
X0082284Y0073823D01*
X0082316Y0073904D01*
X0082345Y0073985D01*
X0082369Y0074068D01*
X0082390Y0074152D01*
X0082407Y0074236D01*
X0082421Y0074322D01*
X0082430Y0074407D01*
X0082436Y0074494D01*
X0082438Y0074580D01*
X0082436Y0074666D01*
X0082430Y0074752D01*
X0082421Y0074838D01*
X0082407Y0074924D01*
X0082390Y0075008D01*
X0082369Y0075092D01*
X0082344Y0075175D01*
X0082316Y0075256D01*
X0082284Y0075336D01*
X0082248Y0075415D01*
X0082209Y0075492D01*
X0082167Y0075567D01*
X0082121Y0075640D01*
X0082072Y0075712D01*
X0082020Y0075781D01*
X0081965Y0075847D01*
X0081907Y0075911D01*
X0081846Y0075972D01*
X0081783Y0076031D01*
X0081717Y0076087D01*
X0081648Y0076139D01*
X0081578Y0076189D01*
X0081505Y0076235D01*
X0081430Y0076278D01*
X0081353Y0076318D01*
X0081275Y0076354D01*
X0081195Y0076387D01*
X0081114Y0076416D01*
X0081031Y0076441D01*
X0080948Y0076463D01*
X0080863Y0076481D01*
X0080778Y0076495D01*
X0080692Y0076506D01*
X0080606Y0076512D01*
X0084937Y0080843D02*
X0085088Y0080769D01*
X0085237Y0080692D01*
X0085385Y0080611D01*
X0085530Y0080526D01*
X0085674Y0080438D01*
X0085815Y0080347D01*
X0085954Y0080252D01*
X0086090Y0080154D01*
X0086225Y0080052D01*
X0086356Y0079948D01*
X0086485Y0079840D01*
X0086612Y0079729D01*
X0086735Y0079615D01*
X0086856Y0079498D01*
X0086974Y0079378D01*
X0087089Y0079255D01*
X0087201Y0079130D01*
X0087310Y0079002D01*
X0087416Y0078871D01*
X0087519Y0078738D01*
X0087618Y0078602D01*
X0087714Y0078464D01*
X0087807Y0078323D01*
X0087896Y0078181D01*
X0087981Y0078036D01*
X0088063Y0077889D01*
X0088142Y0077740D01*
X0088217Y0077590D01*
X0088288Y0077437D01*
X0088356Y0077283D01*
X0088419Y0077127D01*
X0088479Y0076970D01*
X0088535Y0076812D01*
X0088588Y0076652D01*
X0088636Y0076491D01*
X0088680Y0076328D01*
X0088721Y0076165D01*
X0088757Y0076001D01*
X0088790Y0075836D01*
X0088818Y0075670D01*
X0088842Y0075504D01*
X0088863Y0075337D01*
X0088879Y0075169D01*
X0088891Y0075002D01*
X0088899Y0074834D01*
X0088904Y0074665D01*
X0088903Y0074497D01*
X0088899Y0074329D01*
X0088891Y0074161D01*
X0088879Y0073993D01*
X0088862Y0073826D01*
X0088842Y0073659D01*
X0088818Y0073492D01*
X0088789Y0073327D01*
X0088756Y0073162D01*
X0088720Y0072997D01*
X0088679Y0072834D01*
X0088635Y0072672D01*
X0088587Y0072511D01*
X0088534Y0072351D01*
X0088478Y0072192D01*
X0088418Y0072035D01*
X0088354Y0071880D01*
X0088287Y0071726D01*
X0088215Y0071573D01*
X0088140Y0071423D01*
X0088062Y0071274D01*
X0087980Y0071127D01*
X0087894Y0070982D01*
X0087805Y0070840D01*
X0087712Y0070699D01*
X0087616Y0070561D01*
X0087517Y0070426D01*
X0087414Y0070292D01*
X0087308Y0070162D01*
X0087199Y0070034D01*
X0087087Y0069908D01*
X0086972Y0069786D01*
X0086854Y0069666D01*
X0086733Y0069549D01*
X0086609Y0069435D01*
X0086483Y0069324D01*
X0086354Y0069216D01*
X0086222Y0069111D01*
X0086088Y0069010D01*
X0085951Y0068912D01*
X0085812Y0068817D01*
X0085671Y0068726D01*
X0085527Y0068638D01*
X0082969Y0070606D02*
X0083082Y0070671D01*
X0083194Y0070738D01*
X0083304Y0070809D01*
X0083412Y0070884D01*
X0083517Y0070961D01*
X0083620Y0071042D01*
X0083720Y0071126D01*
X0083818Y0071212D01*
X0083913Y0071302D01*
X0084005Y0071395D01*
X0084095Y0071490D01*
X0084181Y0071588D01*
X0084264Y0071689D01*
X0084345Y0071792D01*
X0084422Y0071898D01*
X0084496Y0072005D01*
X0084566Y0072115D01*
X0084634Y0072228D01*
X0084697Y0072342D01*
X0084758Y0072458D01*
X0084814Y0072576D01*
X0084867Y0072695D01*
X0084917Y0072816D01*
X0084962Y0072939D01*
X0085004Y0073062D01*
X0085043Y0073187D01*
X0085077Y0073314D01*
X0085107Y0073441D01*
X0085134Y0073569D01*
X0085157Y0073697D01*
X0085175Y0073827D01*
X0085190Y0073957D01*
X0085201Y0074087D01*
X0085208Y0074218D01*
X0085211Y0074348D01*
X0085210Y0074479D01*
X0085205Y0074610D01*
X0085196Y0074740D01*
X0085183Y0074870D01*
X0085166Y0075000D01*
X0085145Y0075129D01*
X0085120Y0075257D01*
X0085091Y0075385D01*
X0085059Y0075511D01*
X0085022Y0075637D01*
X0084982Y0075761D01*
X0084938Y0075884D01*
X0084890Y0076006D01*
X0084839Y0076126D01*
X0084784Y0076245D01*
X0084725Y0076362D01*
X0084663Y0076477D01*
X0084597Y0076590D01*
X0084528Y0076701D01*
X0084456Y0076810D01*
X0084380Y0076916D01*
X0084301Y0077021D01*
X0084219Y0077122D01*
X0084134Y0077222D01*
X0084046Y0077318D01*
X0083955Y0077412D01*
X0083861Y0077503D01*
X0083765Y0077591D01*
X0083666Y0077677D01*
X0083564Y0077759D01*
X0083460Y0077838D01*
X0083353Y0077913D01*
X0083244Y0077986D01*
X0083134Y0078055D01*
X0083021Y0078121D01*
X0082906Y0078183D01*
X0082789Y0078242D01*
X0082670Y0078297D01*
X0082550Y0078349D01*
X0082428Y0078396D01*
X0082305Y0078441D01*
X0082181Y0078481D01*
D13*
X0067614Y0100035D03*
D14*
X0073620Y0101217D02*
X0073620Y0098659D01*
X0073620Y0097083D02*
X0074899Y0097083D01*
X0075325Y0096657D01*
X0075325Y0096231D01*
X0074899Y0095804D01*
X0073620Y0095804D01*
X0074899Y0095804D02*
X0075325Y0095378D01*
X0075325Y0094952D01*
X0074899Y0094525D01*
X0073620Y0094525D01*
X0073620Y0097083D01*
X0075325Y0098659D02*
X0075325Y0101217D01*
X0074472Y0100364D01*
X0073620Y0101217D01*
X0076157Y0101217D02*
X0077010Y0101217D01*
X0076584Y0101217D02*
X0076584Y0098659D01*
X0077010Y0098659D02*
X0076157Y0098659D01*
X0076157Y0097083D02*
X0076157Y0094525D01*
X0077863Y0094525D01*
X0078695Y0094952D02*
X0079121Y0094525D01*
X0079974Y0094525D01*
X0080400Y0094952D01*
X0080400Y0097083D01*
X0081232Y0097083D02*
X0081232Y0094525D01*
X0082938Y0094525D01*
X0082085Y0095804D02*
X0081232Y0095804D01*
X0081232Y0097083D02*
X0082938Y0097083D01*
X0083770Y0097083D02*
X0085475Y0097083D01*
X0084623Y0097083D02*
X0084623Y0094525D01*
X0086308Y0094952D02*
X0086308Y0096657D01*
X0086734Y0097083D01*
X0087587Y0097083D01*
X0088013Y0096657D01*
X0088013Y0094952D01*
X0087587Y0094525D01*
X0086734Y0094525D01*
X0086308Y0094952D01*
X0088845Y0094952D02*
X0088845Y0096657D01*
X0089272Y0097083D01*
X0090124Y0097083D01*
X0090551Y0096657D01*
X0090551Y0094952D01*
X0090124Y0094525D01*
X0089272Y0094525D01*
X0088845Y0094952D01*
X0089272Y0092949D02*
X0090124Y0092949D01*
X0090551Y0092523D01*
X0088845Y0090818D01*
X0089272Y0090391D01*
X0090124Y0090391D01*
X0090551Y0090818D01*
X0090551Y0092523D01*
X0091383Y0092523D02*
X0091809Y0092949D01*
X0092662Y0092949D01*
X0093088Y0092523D01*
X0093088Y0092097D01*
X0091383Y0090391D01*
X0093088Y0090391D01*
X0093920Y0090818D02*
X0095626Y0092523D01*
X0095626Y0090818D01*
X0095200Y0090391D01*
X0094347Y0090391D01*
X0093920Y0090818D01*
X0093920Y0092523D01*
X0094347Y0092949D01*
X0095200Y0092949D01*
X0095626Y0092523D01*
X0095626Y0094525D02*
X0095626Y0097083D01*
X0095626Y0095804D02*
X0093920Y0095804D01*
X0093920Y0094525D02*
X0093920Y0097083D01*
X0093088Y0097083D02*
X0091383Y0097083D01*
X0092236Y0097083D02*
X0092236Y0094525D01*
X0089272Y0092949D02*
X0088845Y0092523D01*
X0088845Y0090818D01*
X0088013Y0091670D02*
X0086308Y0091670D01*
X0087587Y0092949D01*
X0087587Y0090391D01*
X0085475Y0090391D02*
X0085475Y0092949D01*
X0083770Y0092949D02*
X0085475Y0090391D01*
X0083770Y0090391D02*
X0083770Y0092949D01*
X0082938Y0092523D02*
X0082938Y0091670D01*
X0082512Y0091244D01*
X0081232Y0091244D01*
X0081232Y0090391D02*
X0081232Y0092949D01*
X0082512Y0092949D01*
X0082938Y0092523D01*
X0082085Y0091244D02*
X0082938Y0090391D01*
X0078695Y0094952D02*
X0078695Y0097083D01*
X0078275Y0098659D02*
X0077849Y0099085D01*
X0077849Y0100791D01*
X0078275Y0101217D01*
X0079128Y0101217D01*
X0079554Y0100791D01*
X0080387Y0101217D02*
X0081666Y0101217D01*
X0082092Y0100791D01*
X0082092Y0099938D01*
X0081666Y0099512D01*
X0080387Y0099512D01*
X0081239Y0099512D02*
X0082092Y0098659D01*
X0082924Y0099085D02*
X0083351Y0098659D01*
X0084203Y0098659D01*
X0084630Y0099085D01*
X0084630Y0100791D01*
X0084203Y0101217D01*
X0083351Y0101217D01*
X0082924Y0100791D01*
X0082924Y0099085D01*
X0085462Y0099085D02*
X0085888Y0098659D01*
X0086741Y0098659D01*
X0087167Y0099085D01*
X0087999Y0098659D02*
X0087999Y0101217D01*
X0087167Y0100791D02*
X0086741Y0101217D01*
X0085888Y0101217D01*
X0085462Y0100791D01*
X0085462Y0099085D01*
X0087999Y0099938D02*
X0089705Y0099938D01*
X0089705Y0101217D02*
X0089705Y0098659D01*
X0090537Y0098659D02*
X0091390Y0098659D01*
X0090963Y0098659D02*
X0090963Y0101217D01*
X0090537Y0101217D02*
X0091390Y0101217D01*
X0092229Y0101217D02*
X0093508Y0101217D01*
X0093934Y0100791D01*
X0093934Y0099938D01*
X0093508Y0099512D01*
X0092229Y0099512D01*
X0092229Y0098659D02*
X0092229Y0101217D01*
X0080387Y0101217D02*
X0080387Y0098659D01*
X0079554Y0099085D02*
X0079128Y0098659D01*
X0078275Y0098659D01*
D15*
X0064036Y0093311D02*
X0064036Y0092310D01*
X0064036Y0093060D02*
X0063035Y0093060D01*
X0063035Y0093311D02*
X0063535Y0093811D01*
X0064036Y0093311D01*
X0063035Y0093311D02*
X0063035Y0092310D01*
X0062563Y0092310D02*
X0061562Y0092310D01*
X0062062Y0092310D02*
X0062062Y0093811D01*
X0061562Y0093311D01*
X0060684Y0088496D02*
X0060684Y0086995D01*
X0060184Y0086995D02*
X0061185Y0086995D01*
X0060184Y0087996D02*
X0060684Y0088496D01*
X0060631Y0083772D02*
X0060381Y0083522D01*
X0060631Y0083772D02*
X0061131Y0083772D01*
X0061382Y0083522D01*
X0061382Y0083271D01*
X0060381Y0082270D01*
X0061382Y0082270D01*
X0061131Y0079244D02*
X0061382Y0078994D01*
X0061382Y0078744D01*
X0061131Y0078494D01*
X0061382Y0078243D01*
X0061382Y0077993D01*
X0061131Y0077743D01*
X0060631Y0077743D01*
X0060381Y0077993D01*
X0060881Y0078494D02*
X0061131Y0078494D01*
X0061131Y0079244D02*
X0060631Y0079244D01*
X0060381Y0078994D01*
X0061131Y0074323D02*
X0060381Y0073572D01*
X0061382Y0073572D01*
X0061131Y0072822D02*
X0061131Y0074323D01*
X0061382Y0069599D02*
X0060381Y0069599D01*
X0060381Y0068848D01*
X0060881Y0069098D01*
X0061131Y0069098D01*
X0061382Y0068848D01*
X0061382Y0068347D01*
X0061131Y0068097D01*
X0060631Y0068097D01*
X0060381Y0068347D01*
X0061382Y0064874D02*
X0060881Y0064624D01*
X0060381Y0064123D01*
X0061131Y0064123D01*
X0061382Y0063873D01*
X0061382Y0063623D01*
X0061131Y0063373D01*
X0060631Y0063373D01*
X0060381Y0063623D01*
X0060381Y0064123D01*
X0060381Y0060150D02*
X0061382Y0060150D01*
X0061382Y0059899D01*
X0060381Y0058899D01*
X0060381Y0058648D01*
X0060631Y0055425D02*
X0061131Y0055425D01*
X0061382Y0055175D01*
X0061382Y0054925D01*
X0061131Y0054675D01*
X0060631Y0054675D01*
X0060381Y0054925D01*
X0060381Y0055175D01*
X0060631Y0055425D01*
X0060631Y0054675D02*
X0060381Y0054424D01*
X0060381Y0054174D01*
X0060631Y0053924D01*
X0061131Y0053924D01*
X0061382Y0054174D01*
X0061382Y0054424D01*
X0061131Y0054675D01*
X0064908Y0051382D02*
X0065409Y0051882D01*
X0065409Y0050381D01*
X0065909Y0050381D02*
X0064908Y0050381D01*
X0066382Y0050631D02*
X0066382Y0051632D01*
X0066632Y0051882D01*
X0067132Y0051882D01*
X0067382Y0051632D01*
X0066382Y0050631D01*
X0066632Y0050381D01*
X0067132Y0050381D01*
X0067382Y0050631D01*
X0067382Y0051632D01*
X0069633Y0051382D02*
X0070133Y0051882D01*
X0070133Y0050381D01*
X0069633Y0050381D02*
X0070634Y0050381D01*
X0071106Y0050381D02*
X0072107Y0050381D01*
X0071606Y0050381D02*
X0071606Y0051882D01*
X0071106Y0051382D01*
X0074357Y0051382D02*
X0074858Y0051882D01*
X0074858Y0050381D01*
X0075358Y0050381D02*
X0074357Y0050381D01*
X0075830Y0050381D02*
X0076831Y0051382D01*
X0076831Y0051632D01*
X0076581Y0051882D01*
X0076081Y0051882D01*
X0075830Y0051632D01*
X0075830Y0050381D02*
X0076831Y0050381D01*
X0079081Y0050381D02*
X0080082Y0050381D01*
X0079582Y0050381D02*
X0079582Y0051882D01*
X0079081Y0051382D01*
X0080555Y0051632D02*
X0080805Y0051882D01*
X0081305Y0051882D01*
X0081556Y0051632D01*
X0081556Y0051382D01*
X0081305Y0051131D01*
X0081556Y0050881D01*
X0081556Y0050631D01*
X0081305Y0050381D01*
X0080805Y0050381D01*
X0080555Y0050631D01*
X0081055Y0051131D02*
X0081305Y0051131D01*
X0083806Y0051382D02*
X0084306Y0051882D01*
X0084306Y0050381D01*
X0083806Y0050381D02*
X0084807Y0050381D01*
X0085279Y0051131D02*
X0086280Y0051131D01*
X0086030Y0050381D02*
X0086030Y0051882D01*
X0085279Y0051131D01*
X0088530Y0051382D02*
X0089031Y0051882D01*
X0089031Y0050381D01*
X0089531Y0050381D02*
X0088530Y0050381D01*
X0090004Y0050631D02*
X0090254Y0050381D01*
X0090754Y0050381D01*
X0091004Y0050631D01*
X0091004Y0051131D01*
X0090754Y0051382D01*
X0090504Y0051382D01*
X0090004Y0051131D01*
X0090004Y0051882D01*
X0091004Y0051882D01*
X0094543Y0048732D02*
X0094042Y0048232D01*
X0094543Y0048732D02*
X0094543Y0047231D01*
X0095043Y0047231D02*
X0094042Y0047231D01*
X0095515Y0047481D02*
X0095766Y0047231D01*
X0096266Y0047231D01*
X0096516Y0047481D01*
X0096516Y0047732D01*
X0096266Y0047982D01*
X0095515Y0047982D01*
X0095515Y0047481D01*
X0095515Y0047982D02*
X0096016Y0048482D01*
X0096516Y0048732D01*
X0096989Y0048232D02*
X0097489Y0048732D01*
X0097989Y0048232D01*
X0097989Y0047231D01*
X0097989Y0047982D02*
X0096989Y0047982D01*
X0096989Y0048232D02*
X0096989Y0047231D01*
X0101916Y0049200D02*
X0102917Y0049200D01*
X0102417Y0049200D02*
X0102417Y0050701D01*
X0101916Y0050200D01*
X0103389Y0049950D02*
X0103389Y0049450D01*
X0103640Y0049200D01*
X0104140Y0049200D01*
X0104390Y0049450D01*
X0104390Y0049700D01*
X0104140Y0049950D01*
X0103389Y0049950D01*
X0103890Y0050451D01*
X0104390Y0050701D01*
X0097697Y0055766D02*
X0096696Y0054765D01*
X0096696Y0054515D01*
X0096224Y0054515D02*
X0095223Y0054515D01*
X0095724Y0054515D02*
X0095724Y0056016D01*
X0095223Y0055515D01*
X0096696Y0056016D02*
X0097697Y0056016D01*
X0097697Y0055766D01*
X0097447Y0059042D02*
X0096947Y0059042D01*
X0096696Y0059292D01*
X0096696Y0059543D01*
X0096947Y0059793D01*
X0097447Y0059793D01*
X0097697Y0059543D01*
X0097697Y0059292D01*
X0097447Y0059042D01*
X0097447Y0059793D02*
X0097697Y0060043D01*
X0097697Y0060293D01*
X0097447Y0060543D01*
X0096947Y0060543D01*
X0096696Y0060293D01*
X0096696Y0060043D01*
X0096947Y0059793D01*
X0096224Y0059042D02*
X0095223Y0059042D01*
X0095724Y0059042D02*
X0095724Y0060543D01*
X0095223Y0060043D01*
X0095026Y0063767D02*
X0096027Y0063767D01*
X0095527Y0063767D02*
X0095527Y0065268D01*
X0095026Y0064767D01*
X0096500Y0064767D02*
X0096750Y0064517D01*
X0097500Y0064517D01*
X0097500Y0064017D02*
X0097500Y0065018D01*
X0097250Y0065268D01*
X0096750Y0065268D01*
X0096500Y0065018D01*
X0096500Y0064767D01*
X0096500Y0064017D02*
X0096750Y0063767D01*
X0097250Y0063767D01*
X0097500Y0064017D01*
X0097250Y0068097D02*
X0096750Y0068097D01*
X0096500Y0068347D01*
X0097500Y0069348D01*
X0097500Y0068347D01*
X0097250Y0068097D01*
X0096500Y0068347D02*
X0096500Y0069348D01*
X0096750Y0069599D01*
X0097250Y0069599D01*
X0097500Y0069348D01*
X0096027Y0069348D02*
X0095777Y0069599D01*
X0095277Y0069599D01*
X0095026Y0069348D01*
X0096027Y0069348D02*
X0096027Y0069098D01*
X0095026Y0068097D01*
X0096027Y0068097D01*
X0095830Y0073019D02*
X0094830Y0073019D01*
X0095830Y0074019D01*
X0095830Y0074270D01*
X0095580Y0074520D01*
X0095080Y0074520D01*
X0094830Y0074270D01*
X0096303Y0074019D02*
X0096803Y0074520D01*
X0096803Y0073019D01*
X0096303Y0073019D02*
X0097304Y0073019D01*
X0097500Y0077940D02*
X0096500Y0077940D01*
X0097500Y0078941D01*
X0097500Y0079191D01*
X0097250Y0079441D01*
X0096750Y0079441D01*
X0096500Y0079191D01*
X0096027Y0079191D02*
X0095777Y0079441D01*
X0095277Y0079441D01*
X0095026Y0079191D01*
X0096027Y0079191D02*
X0096027Y0078941D01*
X0095026Y0077940D01*
X0096027Y0077940D01*
X0096027Y0082664D02*
X0095026Y0082664D01*
X0096027Y0083665D01*
X0096027Y0083915D01*
X0095777Y0084165D01*
X0095277Y0084165D01*
X0095026Y0083915D01*
X0096500Y0083915D02*
X0096750Y0084165D01*
X0097250Y0084165D01*
X0097500Y0083915D01*
X0097500Y0083665D01*
X0097250Y0083415D01*
X0097500Y0083165D01*
X0097500Y0082914D01*
X0097250Y0082664D01*
X0096750Y0082664D01*
X0096500Y0082914D01*
X0097000Y0083415D02*
X0097250Y0083415D01*
X0097250Y0087585D02*
X0097250Y0089087D01*
X0096500Y0088336D01*
X0097500Y0088336D01*
X0096027Y0088586D02*
X0096027Y0088836D01*
X0095777Y0089087D01*
X0095277Y0089087D01*
X0095026Y0088836D01*
X0096027Y0088586D02*
X0095026Y0087585D01*
X0096027Y0087585D01*
X0095872Y0091719D02*
X0095872Y0093221D01*
X0095122Y0092470D01*
X0096123Y0092470D01*
X0096595Y0092470D02*
X0097596Y0092470D01*
X0097596Y0092720D02*
X0097596Y0091719D01*
X0096595Y0091719D02*
X0096595Y0092720D01*
X0097095Y0093221D01*
X0097596Y0092720D01*
X0094649Y0092720D02*
X0094649Y0092970D01*
X0094399Y0093221D01*
X0093899Y0093221D01*
X0093648Y0092970D01*
X0094649Y0092720D02*
X0093648Y0091719D01*
X0094649Y0091719D01*
X0054635Y0049717D02*
X0054135Y0049717D01*
X0053885Y0049466D01*
X0053885Y0049216D01*
X0054135Y0048966D01*
X0054885Y0048966D01*
X0054885Y0049466D02*
X0054635Y0049717D01*
X0054885Y0049466D02*
X0054885Y0048466D01*
X0054635Y0048215D01*
X0054135Y0048215D01*
X0053885Y0048466D01*
X0061365Y0048429D02*
X0061615Y0048179D01*
X0062366Y0048179D01*
X0062838Y0048179D02*
X0063839Y0048179D01*
X0063839Y0048429D02*
X0063839Y0047428D01*
X0062838Y0047428D02*
X0062838Y0048429D01*
X0063339Y0048929D01*
X0063839Y0048429D01*
X0062366Y0048679D02*
X0062366Y0047678D01*
X0062116Y0047428D01*
X0061615Y0047428D01*
X0061365Y0047678D01*
X0061365Y0048429D02*
X0061365Y0048679D01*
X0061615Y0048929D01*
X0062116Y0048929D01*
X0062366Y0048679D01*
M02*
