G75*
%MOIN*%
%OFA0B0*%
%FSLAX25Y25*%
%IPPOS*%
%LPD*%
%AMOC8*
5,1,8,0,0,1.08239X$1,22.5*
%
%ADD10C,0.00000*%
%ADD11OC8,0.06400*%
%ADD12R,0.06306X0.03550*%
%ADD13R,0.03550X0.06306*%
%ADD14C,0.04337*%
%ADD15C,0.04337*%
D10*
X0001000Y0001000D02*
X0001000Y0104701D01*
X0160921Y0104701D01*
X0160921Y0001000D01*
X0001000Y0001000D01*
D11*
X0016000Y0016000D03*
X0016000Y0026000D03*
X0016000Y0036000D03*
X0016000Y0046000D03*
X0016000Y0056000D03*
X0016000Y0066000D03*
X0016000Y0076000D03*
X0016000Y0086000D03*
X0046000Y0016000D03*
X0056000Y0016000D03*
X0066000Y0016000D03*
X0076000Y0016000D03*
X0086000Y0016000D03*
X0096000Y0016000D03*
X0106000Y0016000D03*
X0116000Y0016000D03*
X0141000Y0016000D03*
X0141000Y0026000D03*
X0141000Y0036000D03*
X0141000Y0046000D03*
X0141000Y0056000D03*
X0141000Y0066000D03*
X0141000Y0076000D03*
X0141000Y0086000D03*
D12*
X0100291Y0084189D03*
X0100291Y0079465D03*
X0100291Y0074740D03*
X0100291Y0070016D03*
X0100291Y0065291D03*
X0100291Y0060567D03*
X0100291Y0055843D03*
X0100291Y0088913D03*
X0056984Y0088913D03*
X0056984Y0084189D03*
X0056984Y0079465D03*
X0056984Y0074740D03*
X0056984Y0070016D03*
X0056984Y0065291D03*
X0056984Y0060567D03*
X0056984Y0055843D03*
D13*
X0066827Y0046984D03*
X0071551Y0046984D03*
X0076276Y0046984D03*
X0081000Y0046984D03*
X0085724Y0046984D03*
X0090449Y0046984D03*
D14*
X0098126Y0049149D02*
X0098126Y0050725D01*
X0098126Y0049149D02*
X0098126Y0049149D01*
X0098126Y0050725D01*
X0098126Y0050725D01*
X0059150Y0050725D02*
X0059150Y0049149D01*
X0059150Y0049149D01*
X0059150Y0050725D01*
X0059150Y0050725D01*
X0059150Y0094819D02*
X0059150Y0097181D01*
X0059150Y0094819D02*
X0059150Y0094819D01*
X0059150Y0097181D01*
X0059150Y0097181D01*
X0098126Y0097181D02*
X0098126Y0094819D01*
X0098126Y0094819D01*
X0098126Y0097181D01*
X0098126Y0097181D01*
D15*
X0101866Y0045409D03*
X0055016Y0045606D03*
M02*
