G75*
%MOIN*%
%OFA0B0*%
%FSLAX25Y25*%
%IPPOS*%
%LPD*%
%AMOC8*
5,1,8,0,0,1.08239X$1,22.5*
%
%ADD10C,0.00000*%
%ADD11R,0.03150X0.05906*%
%ADD12R,0.05906X0.03150*%
%ADD13C,0.03937*%
%ADD14C,0.03937*%
%ADD15R,0.05512X0.04331*%
%ADD16R,0.05118X0.05906*%
%ADD17OC8,0.06000*%
%ADD18R,0.05000X0.10000*%
%ADD19R,0.10000X0.05000*%
%ADD20R,0.04331X0.05512*%
%ADD21C,0.00600*%
%ADD22C,0.01200*%
%ADD23C,0.01000*%
%ADD24C,0.05000*%
%ADD25C,0.02400*%
D10*
X0020728Y0001000D02*
X0020675Y0152867D01*
X0125931Y0152769D01*
X0125743Y0001103D01*
X0020728Y0001000D01*
D11*
X0035108Y0019760D03*
X0039833Y0019760D03*
X0044557Y0019760D03*
X0049281Y0019760D03*
X0054006Y0019760D03*
X0058730Y0019760D03*
X0063455Y0019760D03*
X0068179Y0019760D03*
X0068179Y0063068D03*
X0063455Y0063068D03*
X0058730Y0063068D03*
X0054006Y0063068D03*
X0049281Y0063068D03*
X0044557Y0063068D03*
X0039833Y0063068D03*
X0035108Y0063068D03*
X0035380Y0093817D03*
X0040105Y0093817D03*
X0044829Y0093817D03*
X0049554Y0093817D03*
X0054278Y0093817D03*
X0059002Y0093817D03*
X0063727Y0093817D03*
X0068451Y0093817D03*
X0068451Y0137125D03*
X0063727Y0137125D03*
X0059002Y0137125D03*
X0054278Y0137125D03*
X0049554Y0137125D03*
X0044829Y0137125D03*
X0040105Y0137125D03*
X0035380Y0137125D03*
D12*
X0077309Y0127282D03*
X0077309Y0122558D03*
X0077309Y0117833D03*
X0077309Y0113109D03*
X0077309Y0108384D03*
X0077309Y0103660D03*
X0077037Y0053225D03*
X0077037Y0048501D03*
X0077037Y0043776D03*
X0077037Y0039052D03*
X0077037Y0034327D03*
X0077037Y0029603D03*
D13*
X0074873Y0021926D02*
X0073297Y0021926D01*
X0074873Y0021926D02*
X0074873Y0021926D01*
X0073297Y0021926D01*
X0073297Y0021926D01*
X0073297Y0060902D02*
X0074873Y0060902D01*
X0074873Y0060902D01*
X0073297Y0060902D01*
X0073297Y0060902D01*
X0073569Y0095983D02*
X0075145Y0095983D01*
X0075145Y0095983D01*
X0073569Y0095983D01*
X0073569Y0095983D01*
X0073569Y0134959D02*
X0075145Y0134959D01*
X0075145Y0134959D01*
X0073569Y0134959D01*
X0073569Y0134959D01*
X0029475Y0134959D02*
X0027113Y0134959D01*
X0029475Y0134959D02*
X0029475Y0134959D01*
X0027113Y0134959D01*
X0027113Y0134959D01*
X0027113Y0095983D02*
X0029475Y0095983D01*
X0029475Y0095983D01*
X0027113Y0095983D01*
X0027113Y0095983D01*
X0026841Y0060902D02*
X0029203Y0060902D01*
X0029203Y0060902D01*
X0026841Y0060902D01*
X0026841Y0060902D01*
X0026841Y0021926D02*
X0029203Y0021926D01*
X0029203Y0021926D01*
X0026841Y0021926D01*
X0026841Y0021926D01*
D14*
X0078612Y0018186D03*
X0078415Y0065036D03*
X0078884Y0092243D03*
X0078687Y0139093D03*
D15*
X0097694Y0137825D03*
X0097694Y0129951D03*
X0105593Y0119772D03*
X0105593Y0111898D03*
X0116002Y0111978D03*
X0116002Y0119852D03*
X0094950Y0104460D03*
X0094950Y0096586D03*
X0102120Y0057346D03*
X0102120Y0049472D03*
X0102046Y0039490D03*
X0102046Y0031616D03*
X0104015Y0021171D03*
X0104015Y0013297D03*
X0091711Y0023481D03*
X0091711Y0031355D03*
X0112437Y0031661D03*
X0112437Y0039535D03*
X0112454Y0049645D03*
X0112454Y0057519D03*
D16*
X0044522Y0081188D03*
X0037829Y0081188D03*
X0038891Y0006021D03*
X0045584Y0006021D03*
D17*
X0053419Y0009599D03*
X0064435Y0009706D03*
X0029365Y0009036D03*
X0054176Y0083618D03*
X0065132Y0083984D03*
X0030300Y0084072D03*
X0104434Y0066804D03*
X0115292Y0066816D03*
X0115939Y0083988D03*
X0116168Y0094892D03*
X0118181Y0145270D03*
X0106971Y0145161D03*
X0115022Y0021425D03*
X0114926Y0010543D03*
D18*
X0093811Y0009652D03*
X0084622Y0027976D03*
X0089504Y0064435D03*
X0085902Y0084215D03*
X0085673Y0102043D03*
X0086251Y0137567D03*
D19*
X0088198Y0112520D03*
X0075956Y0082750D03*
X0044416Y0070146D03*
X0029593Y0070010D03*
X0083291Y0008007D03*
X0086906Y0038743D03*
X0044811Y0144960D03*
X0028398Y0145010D03*
D20*
X0094137Y0085584D03*
X0102011Y0085584D03*
X0107998Y0130513D03*
X0115872Y0130513D03*
D21*
X0118181Y0145270D02*
X0118520Y0145489D01*
X0062895Y0098996D02*
X0062895Y0098614D01*
X0052270Y0102488D02*
X0051772Y0102989D01*
X0057270Y0110489D02*
X0057602Y0110958D01*
X0056645Y0114864D02*
X0057005Y0115150D01*
X0077037Y0048501D02*
X0077312Y0048401D01*
X0078512Y0048401D01*
X0062105Y0033764D02*
X0055075Y0033660D01*
X0057108Y0040123D02*
X0060150Y0043103D01*
X0057828Y0040578D01*
X0073827Y0021933D02*
X0074085Y0021926D01*
X0035912Y0019001D02*
X0035312Y0019601D01*
X0035108Y0019760D01*
D22*
X0028022Y0021926D01*
X0028070Y0022290D02*
X0023952Y0022278D01*
X0023999Y0046007D01*
X0028219Y0046052D01*
X0030826Y0048729D01*
X0030825Y0057252D01*
X0028247Y0059930D01*
X0028022Y0060902D02*
X0035108Y0063068D01*
X0039833Y0063068D02*
X0039274Y0065392D01*
X0034806Y0069865D01*
X0029593Y0070010D01*
X0037829Y0081188D02*
X0035347Y0083641D01*
X0035380Y0093817D01*
X0035438Y0096741D01*
X0037606Y0098996D01*
X0062895Y0098996D01*
X0070549Y0098996D01*
X0074357Y0095983D01*
X0078884Y0092243D01*
X0088281Y0092336D01*
X0093520Y0087089D01*
X0094137Y0085584D01*
X0094151Y0082423D01*
X0095977Y0080609D01*
X0104946Y0080583D01*
X0106771Y0082376D01*
X0106573Y0103313D01*
X0109812Y0106542D01*
X0119133Y0106427D01*
X0120766Y0108048D01*
X0120864Y0116104D01*
X0116002Y0119852D01*
X0115904Y0120777D01*
X0115872Y0130513D01*
X0115956Y0137128D01*
X0106971Y0145161D01*
X0093989Y0145295D01*
X0090945Y0142231D01*
X0090925Y0132566D01*
X0088700Y0130389D01*
X0082844Y0130377D01*
X0078326Y0135013D01*
X0074357Y0134959D01*
X0078687Y0139093D01*
X0080987Y0143624D02*
X0085037Y0139651D01*
X0086251Y0137567D01*
X0080987Y0143624D02*
X0053901Y0143624D01*
X0049691Y0139413D01*
X0049554Y0137125D01*
X0054278Y0137125D02*
X0054338Y0131338D01*
X0029275Y0106607D01*
X0027927Y0105631D01*
X0028503Y0105846D02*
X0029275Y0106607D01*
X0032856Y0104947D02*
X0032816Y0100894D01*
X0032751Y0104545D02*
X0032856Y0104947D01*
X0059019Y0131251D01*
X0059002Y0137125D01*
X0063727Y0137125D02*
X0063700Y0121713D01*
X0057005Y0115150D01*
X0056645Y0114864D02*
X0053584Y0117797D01*
X0057602Y0110958D02*
X0068469Y0122060D01*
X0068451Y0137125D01*
X0077309Y0127282D02*
X0095072Y0127272D01*
X0097694Y0129951D01*
X0097694Y0137825D02*
X0100423Y0137755D01*
X0106169Y0132006D01*
X0107998Y0130513D01*
X0103259Y0122522D02*
X0105593Y0119772D01*
X0103259Y0122522D02*
X0077309Y0122558D01*
X0077309Y0117833D02*
X0078331Y0117918D01*
X0093972Y0117885D01*
X0095888Y0115966D01*
X0095921Y0105454D01*
X0094950Y0104460D01*
X0094950Y0096586D02*
X0101990Y0089584D01*
X0102011Y0085584D01*
X0104434Y0066804D02*
X0108405Y0066748D01*
X0112131Y0063023D01*
X0111548Y0063529D01*
X0109841Y0061810D01*
X0101335Y0061847D01*
X0096975Y0061808D01*
X0096952Y0058756D01*
X0094360Y0056161D01*
X0082893Y0056161D01*
X0080459Y0058599D01*
X0080459Y0063002D01*
X0078415Y0065036D01*
X0074085Y0060902D01*
X0068179Y0063068D02*
X0068226Y0046079D01*
X0068238Y0039684D01*
X0062105Y0033764D01*
X0054744Y0033770D01*
X0054214Y0028454D02*
X0050886Y0028448D01*
X0054214Y0028454D02*
X0056036Y0028452D01*
X0059633Y0028512D01*
X0076166Y0028468D01*
X0077037Y0029603D01*
X0077037Y0034327D02*
X0079664Y0034290D01*
X0084291Y0029700D01*
X0084622Y0027976D01*
X0091711Y0031355D02*
X0093995Y0033753D01*
X0093995Y0042461D01*
X0092366Y0043958D01*
X0090873Y0043958D01*
X0077037Y0043776D01*
X0077037Y0039052D02*
X0083700Y0039069D01*
X0086906Y0038743D01*
X0082261Y0048433D02*
X0095303Y0048351D01*
X0096691Y0046981D01*
X0096691Y0033491D01*
X0098574Y0031642D01*
X0102046Y0031616D01*
X0104148Y0038075D02*
X0110559Y0031657D01*
X0112437Y0031661D01*
X0112221Y0026706D02*
X0116066Y0026735D01*
X0117974Y0028564D01*
X0117949Y0031195D01*
X0117884Y0039650D01*
X0112437Y0039535D01*
X0117884Y0039650D02*
X0117884Y0062166D01*
X0112979Y0062175D01*
X0112131Y0063023D01*
X0112457Y0062618D02*
X0111548Y0063529D01*
X0112457Y0062618D02*
X0112454Y0057519D01*
X0112454Y0049645D02*
X0110139Y0049714D01*
X0104216Y0055577D01*
X0102120Y0057346D01*
X0095513Y0053226D02*
X0099177Y0049601D01*
X0099177Y0049535D01*
X0102120Y0049472D01*
X0099177Y0049470D02*
X0099177Y0049535D01*
X0095513Y0053226D02*
X0077037Y0053225D01*
X0078512Y0048401D02*
X0082261Y0048433D01*
X0087559Y0065010D02*
X0089504Y0064435D01*
X0087559Y0065010D02*
X0082599Y0069974D01*
X0064016Y0070029D01*
X0054261Y0069974D01*
X0049574Y0065283D01*
X0049281Y0063068D01*
X0044557Y0063068D02*
X0044615Y0067956D01*
X0044416Y0070146D01*
X0049408Y0076303D02*
X0044522Y0081188D01*
X0044494Y0083898D01*
X0039821Y0088565D01*
X0039839Y0091254D01*
X0040105Y0093817D01*
X0035380Y0093817D02*
X0028294Y0095983D01*
X0023648Y0099949D01*
X0023648Y0113043D01*
X0035352Y0124662D01*
X0035380Y0137125D01*
X0028294Y0134959D01*
X0028398Y0145010D02*
X0035077Y0144895D01*
X0040001Y0139969D01*
X0039842Y0139492D01*
X0040105Y0137125D01*
X0044829Y0137125D02*
X0044811Y0144960D01*
X0061827Y0149874D02*
X0118520Y0150010D01*
X0118520Y0145489D01*
X0118181Y0145270D02*
X0123131Y0141003D01*
X0123050Y0104372D01*
X0117834Y0104064D01*
X0117236Y0103600D01*
X0123050Y0104372D02*
X0122947Y0081276D01*
X0118153Y0076380D01*
X0049408Y0076303D01*
X0054006Y0063068D02*
X0054031Y0057037D01*
X0036255Y0039244D01*
X0036255Y0039315D02*
X0029230Y0032249D01*
X0028093Y0032577D01*
X0032619Y0030462D02*
X0032635Y0028101D01*
X0032192Y0027512D01*
X0032619Y0030462D02*
X0034932Y0032922D01*
X0040699Y0038631D01*
X0058629Y0056577D01*
X0058730Y0063068D01*
X0063455Y0063068D02*
X0063478Y0046521D01*
X0057108Y0040123D01*
X0071391Y0024246D02*
X0073827Y0021933D01*
X0074085Y0021926D02*
X0078612Y0018186D01*
X0094128Y0018244D01*
X0096861Y0018186D01*
X0099972Y0015073D01*
X0101763Y0013281D01*
X0104015Y0013297D01*
X0107041Y0013375D01*
X0109020Y0015356D01*
X0109075Y0023481D01*
X0112221Y0026706D01*
X0104015Y0021171D02*
X0101591Y0021310D01*
X0099306Y0023586D01*
X0091711Y0023481D01*
X0090075Y0013469D02*
X0093811Y0009652D01*
X0090075Y0013469D02*
X0074404Y0013527D01*
X0068179Y0019760D01*
X0069492Y0014642D02*
X0064870Y0014642D01*
X0063431Y0016083D01*
X0063455Y0019760D01*
X0069492Y0014642D02*
X0076083Y0008044D01*
X0083291Y0008007D01*
X0071391Y0024246D02*
X0037513Y0024292D01*
X0035416Y0022114D01*
X0035565Y0019457D01*
X0035912Y0019001D02*
X0036002Y0010372D01*
X0038891Y0006021D01*
X0041485Y0010830D02*
X0043822Y0010812D01*
X0045473Y0009124D01*
X0045584Y0006021D01*
X0048636Y0003010D01*
X0115911Y0003118D01*
X0120422Y0007608D01*
X0120582Y0063153D01*
X0116912Y0066810D01*
X0115292Y0066816D01*
X0104214Y0038861D02*
X0102046Y0039490D01*
X0104214Y0038861D02*
X0104148Y0038075D01*
X0075956Y0082750D02*
X0072346Y0084903D01*
X0068199Y0089057D01*
X0066562Y0089166D01*
X0064597Y0091025D01*
X0063727Y0093817D01*
X0068451Y0093817D02*
X0074202Y0088073D01*
X0084243Y0087964D01*
X0085902Y0084215D01*
X0085673Y0102043D02*
X0084257Y0104202D01*
X0080125Y0108426D01*
X0077309Y0108384D01*
X0077309Y0103660D02*
X0074593Y0102488D01*
X0052270Y0102488D01*
X0051216Y0102488D01*
X0055854Y0108330D02*
X0057270Y0110489D01*
X0077309Y0113109D02*
X0086822Y0113013D01*
X0088198Y0112520D01*
X0105593Y0111898D02*
X0116002Y0111978D01*
X0039833Y0019760D02*
X0039890Y0012463D01*
X0041485Y0010830D01*
D23*
X0035912Y0019001D02*
X0035565Y0019457D01*
X0035777Y0021637D02*
X0035416Y0022114D01*
X0028070Y0022290D02*
X0028022Y0021926D01*
X0036255Y0039244D02*
X0036255Y0039315D01*
X0028247Y0059930D02*
X0028022Y0060902D01*
D24*
X0028093Y0032577D03*
X0032192Y0027512D03*
X0050886Y0028448D03*
X0055075Y0033660D03*
X0057828Y0040578D03*
X0032816Y0100894D03*
X0027927Y0105631D03*
X0051772Y0102989D03*
X0055854Y0108330D03*
X0053584Y0117797D03*
D25*
X0062895Y0098614D03*
X0061827Y0149874D03*
X0117236Y0103600D03*
M02*
