G75*
%MOIN*%
%OFA0B0*%
%FSLAX25Y25*%
%IPPOS*%
%LPD*%
%AMOC8*
5,1,8,0,0,1.08239X$1,22.5*
%
%ADD10C,0.00000*%
%ADD11C,0.00500*%
%ADD12R,0.06102X0.08661*%
%ADD13C,0.00200*%
%ADD14C,0.00100*%
%ADD15R,0.05512X0.02559*%
%ADD16R,0.02559X0.05512*%
D10*
X0020728Y0001000D02*
X0020675Y0152867D01*
X0125931Y0152769D01*
X0125743Y0001103D01*
X0020728Y0001000D01*
D11*
X0020738Y0018776D02*
X0001250Y0018776D01*
X0001250Y0064052D01*
X0078022Y0064052D01*
X0078022Y0018776D01*
X0020738Y0018776D01*
X0020738Y0063855D01*
X0015423Y0054603D02*
X0004400Y0054603D01*
X0004400Y0049879D01*
X0012864Y0049879D01*
X0012950Y0049877D01*
X0013036Y0049872D01*
X0013121Y0049862D01*
X0013206Y0049849D01*
X0013290Y0049832D01*
X0013374Y0049812D01*
X0013456Y0049788D01*
X0013537Y0049760D01*
X0013618Y0049729D01*
X0013696Y0049695D01*
X0013773Y0049657D01*
X0013849Y0049615D01*
X0013922Y0049571D01*
X0013993Y0049523D01*
X0014063Y0049472D01*
X0014130Y0049418D01*
X0014194Y0049362D01*
X0014256Y0049302D01*
X0014316Y0049240D01*
X0014372Y0049176D01*
X0014426Y0049109D01*
X0014477Y0049039D01*
X0014525Y0048968D01*
X0014569Y0048895D01*
X0014611Y0048819D01*
X0014649Y0048742D01*
X0014683Y0048664D01*
X0014714Y0048583D01*
X0014742Y0048502D01*
X0014766Y0048420D01*
X0014786Y0048336D01*
X0014803Y0048252D01*
X0014816Y0048167D01*
X0014826Y0048082D01*
X0014831Y0047996D01*
X0014833Y0047910D01*
X0014831Y0047810D01*
X0014825Y0047709D01*
X0014815Y0047609D01*
X0014801Y0047510D01*
X0014784Y0047411D01*
X0014762Y0047313D01*
X0014737Y0047215D01*
X0014708Y0047119D01*
X0014675Y0047024D01*
X0014638Y0046931D01*
X0014598Y0046839D01*
X0014554Y0046748D01*
X0014507Y0046660D01*
X0014456Y0046573D01*
X0014402Y0046488D01*
X0014344Y0046406D01*
X0014284Y0046326D01*
X0014220Y0046248D01*
X0014153Y0046173D01*
X0014083Y0046101D01*
X0014011Y0046031D01*
X0013936Y0045964D01*
X0013858Y0045900D01*
X0013778Y0045840D01*
X0013696Y0045782D01*
X0013611Y0045728D01*
X0013524Y0045677D01*
X0013436Y0045630D01*
X0013345Y0045586D01*
X0013253Y0045546D01*
X0013160Y0045509D01*
X0013065Y0045476D01*
X0012969Y0045447D01*
X0012871Y0045422D01*
X0012773Y0045400D01*
X0012674Y0045383D01*
X0012575Y0045369D01*
X0012475Y0045359D01*
X0012374Y0045353D01*
X0012274Y0045351D01*
X0005974Y0045351D01*
X0005902Y0045349D01*
X0005830Y0045343D01*
X0005758Y0045334D01*
X0005687Y0045321D01*
X0005617Y0045304D01*
X0005548Y0045284D01*
X0005480Y0045259D01*
X0005414Y0045232D01*
X0005348Y0045201D01*
X0005285Y0045166D01*
X0005223Y0045129D01*
X0005164Y0045088D01*
X0005107Y0045044D01*
X0005052Y0044997D01*
X0005000Y0044947D01*
X0004950Y0044895D01*
X0004903Y0044840D01*
X0004859Y0044783D01*
X0004818Y0044724D01*
X0004781Y0044662D01*
X0004746Y0044599D01*
X0004715Y0044533D01*
X0004688Y0044467D01*
X0004663Y0044399D01*
X0004643Y0044330D01*
X0004626Y0044260D01*
X0004613Y0044189D01*
X0004604Y0044117D01*
X0004598Y0044045D01*
X0004596Y0043973D01*
X0004400Y0043776D01*
X0004399Y0043776D02*
X0004401Y0043690D01*
X0004406Y0043604D01*
X0004416Y0043519D01*
X0004429Y0043434D01*
X0004446Y0043350D01*
X0004466Y0043266D01*
X0004490Y0043184D01*
X0004518Y0043103D01*
X0004549Y0043022D01*
X0004583Y0042944D01*
X0004621Y0042867D01*
X0004663Y0042792D01*
X0004707Y0042718D01*
X0004755Y0042647D01*
X0004806Y0042577D01*
X0004860Y0042510D01*
X0004916Y0042446D01*
X0004976Y0042384D01*
X0005038Y0042324D01*
X0005102Y0042268D01*
X0005169Y0042214D01*
X0005239Y0042163D01*
X0005310Y0042115D01*
X0005383Y0042071D01*
X0005459Y0042029D01*
X0005536Y0041991D01*
X0005614Y0041957D01*
X0005695Y0041926D01*
X0005776Y0041898D01*
X0005858Y0041874D01*
X0005942Y0041854D01*
X0006026Y0041837D01*
X0006111Y0041824D01*
X0006196Y0041814D01*
X0006282Y0041809D01*
X0006368Y0041807D01*
X0006368Y0041808D02*
X0012470Y0041808D01*
X0012556Y0041806D01*
X0012642Y0041801D01*
X0012727Y0041791D01*
X0012812Y0041778D01*
X0012896Y0041761D01*
X0012980Y0041741D01*
X0013062Y0041717D01*
X0013143Y0041689D01*
X0013224Y0041658D01*
X0013302Y0041624D01*
X0013379Y0041586D01*
X0013455Y0041544D01*
X0013528Y0041500D01*
X0013599Y0041452D01*
X0013669Y0041401D01*
X0013736Y0041347D01*
X0013800Y0041291D01*
X0013862Y0041231D01*
X0013922Y0041169D01*
X0013978Y0041105D01*
X0014032Y0041038D01*
X0014083Y0040968D01*
X0014131Y0040897D01*
X0014175Y0040824D01*
X0014217Y0040748D01*
X0014255Y0040671D01*
X0014289Y0040593D01*
X0014320Y0040512D01*
X0014348Y0040431D01*
X0014372Y0040349D01*
X0014392Y0040265D01*
X0014409Y0040181D01*
X0014422Y0040096D01*
X0014432Y0040011D01*
X0014437Y0039925D01*
X0014439Y0039839D01*
X0014439Y0039642D01*
X0014437Y0039550D01*
X0014431Y0039458D01*
X0014421Y0039367D01*
X0014408Y0039276D01*
X0014390Y0039186D01*
X0014369Y0039096D01*
X0014344Y0039008D01*
X0014315Y0038921D01*
X0014283Y0038835D01*
X0014247Y0038750D01*
X0014207Y0038667D01*
X0014164Y0038586D01*
X0014118Y0038507D01*
X0014068Y0038430D01*
X0014015Y0038355D01*
X0013958Y0038282D01*
X0013899Y0038212D01*
X0013837Y0038144D01*
X0013772Y0038079D01*
X0013704Y0038017D01*
X0013634Y0037958D01*
X0013561Y0037901D01*
X0013486Y0037848D01*
X0013409Y0037798D01*
X0013330Y0037752D01*
X0013249Y0037709D01*
X0013166Y0037669D01*
X0013081Y0037633D01*
X0012995Y0037601D01*
X0012908Y0037572D01*
X0012820Y0037547D01*
X0012730Y0037526D01*
X0012640Y0037508D01*
X0012549Y0037495D01*
X0012458Y0037485D01*
X0012366Y0037479D01*
X0012274Y0037477D01*
X0010108Y0037477D01*
X0010026Y0037475D01*
X0009945Y0037469D01*
X0009863Y0037460D01*
X0009782Y0037447D01*
X0009702Y0037430D01*
X0009623Y0037409D01*
X0009545Y0037385D01*
X0009468Y0037357D01*
X0009392Y0037326D01*
X0009318Y0037291D01*
X0009246Y0037253D01*
X0009175Y0037212D01*
X0009107Y0037167D01*
X0009040Y0037119D01*
X0008976Y0037068D01*
X0008914Y0037015D01*
X0008855Y0036958D01*
X0008798Y0036899D01*
X0008745Y0036837D01*
X0008694Y0036773D01*
X0008646Y0036706D01*
X0008601Y0036638D01*
X0008560Y0036567D01*
X0008522Y0036495D01*
X0008487Y0036421D01*
X0008456Y0036345D01*
X0008428Y0036268D01*
X0008404Y0036190D01*
X0008383Y0036111D01*
X0008366Y0036031D01*
X0008353Y0035950D01*
X0008344Y0035868D01*
X0008338Y0035787D01*
X0008336Y0035705D01*
X0008337Y0035705D02*
X0008337Y0034918D01*
X0008336Y0034918D02*
X0008338Y0034836D01*
X0008344Y0034755D01*
X0008353Y0034673D01*
X0008366Y0034592D01*
X0008383Y0034512D01*
X0008404Y0034433D01*
X0008428Y0034355D01*
X0008456Y0034278D01*
X0008487Y0034202D01*
X0008522Y0034128D01*
X0008560Y0034056D01*
X0008601Y0033985D01*
X0008646Y0033917D01*
X0008694Y0033850D01*
X0008745Y0033786D01*
X0008798Y0033724D01*
X0008855Y0033665D01*
X0008914Y0033608D01*
X0008976Y0033555D01*
X0009040Y0033504D01*
X0009107Y0033456D01*
X0009175Y0033411D01*
X0009246Y0033370D01*
X0009318Y0033332D01*
X0009392Y0033297D01*
X0009468Y0033266D01*
X0009545Y0033238D01*
X0009623Y0033214D01*
X0009702Y0033193D01*
X0009782Y0033176D01*
X0009863Y0033163D01*
X0009945Y0033154D01*
X0010026Y0033148D01*
X0010108Y0033146D01*
X0010200Y0033144D01*
X0010292Y0033138D01*
X0010383Y0033128D01*
X0010474Y0033115D01*
X0010564Y0033097D01*
X0010654Y0033076D01*
X0010742Y0033051D01*
X0010829Y0033022D01*
X0010915Y0032990D01*
X0011000Y0032954D01*
X0011083Y0032914D01*
X0011164Y0032871D01*
X0011243Y0032825D01*
X0011320Y0032775D01*
X0011395Y0032722D01*
X0011468Y0032665D01*
X0011538Y0032606D01*
X0011606Y0032544D01*
X0011671Y0032479D01*
X0011733Y0032411D01*
X0011792Y0032341D01*
X0011849Y0032268D01*
X0011902Y0032193D01*
X0011952Y0032116D01*
X0011998Y0032037D01*
X0012041Y0031956D01*
X0012081Y0031873D01*
X0012117Y0031788D01*
X0012149Y0031702D01*
X0012178Y0031615D01*
X0012203Y0031527D01*
X0012224Y0031437D01*
X0012242Y0031347D01*
X0012255Y0031256D01*
X0012265Y0031165D01*
X0012271Y0031073D01*
X0012273Y0030981D01*
X0012274Y0030981D02*
X0012274Y0023304D01*
X0041211Y0043973D02*
X0045148Y0039839D01*
X0055384Y0050075D01*
X0058533Y0044170D02*
X0041211Y0044170D01*
X0043179Y0050272D02*
X0053809Y0039642D01*
X0058533Y0044170D01*
X0053416Y0037083D02*
X0053351Y0036970D01*
X0053284Y0036858D01*
X0053213Y0036748D01*
X0053138Y0036640D01*
X0053061Y0036535D01*
X0052980Y0036432D01*
X0052896Y0036332D01*
X0052810Y0036234D01*
X0052720Y0036139D01*
X0052627Y0036047D01*
X0052532Y0035957D01*
X0052434Y0035871D01*
X0052333Y0035788D01*
X0052230Y0035707D01*
X0052124Y0035630D01*
X0052017Y0035556D01*
X0051907Y0035486D01*
X0051794Y0035418D01*
X0051680Y0035355D01*
X0051564Y0035294D01*
X0051446Y0035238D01*
X0051327Y0035185D01*
X0051206Y0035135D01*
X0051083Y0035090D01*
X0050960Y0035048D01*
X0050835Y0035009D01*
X0050708Y0034975D01*
X0050581Y0034945D01*
X0050453Y0034918D01*
X0050325Y0034895D01*
X0050195Y0034877D01*
X0050065Y0034862D01*
X0049935Y0034851D01*
X0049804Y0034844D01*
X0049674Y0034841D01*
X0049543Y0034842D01*
X0049412Y0034847D01*
X0049282Y0034856D01*
X0049152Y0034869D01*
X0049022Y0034886D01*
X0048893Y0034907D01*
X0048765Y0034932D01*
X0048637Y0034961D01*
X0048511Y0034993D01*
X0048385Y0035030D01*
X0048261Y0035070D01*
X0048138Y0035114D01*
X0048016Y0035162D01*
X0047896Y0035213D01*
X0047777Y0035268D01*
X0047660Y0035327D01*
X0047545Y0035389D01*
X0047432Y0035455D01*
X0047321Y0035524D01*
X0047212Y0035596D01*
X0047106Y0035672D01*
X0047001Y0035751D01*
X0046900Y0035833D01*
X0046800Y0035918D01*
X0046704Y0036006D01*
X0046610Y0036097D01*
X0046519Y0036191D01*
X0046431Y0036287D01*
X0046345Y0036386D01*
X0046263Y0036488D01*
X0046184Y0036592D01*
X0046109Y0036699D01*
X0046036Y0036808D01*
X0045967Y0036918D01*
X0045901Y0037031D01*
X0045839Y0037146D01*
X0045780Y0037263D01*
X0045725Y0037382D01*
X0045673Y0037502D01*
X0045626Y0037624D01*
X0045581Y0037747D01*
X0045541Y0037871D01*
X0043179Y0035115D02*
X0043253Y0034964D01*
X0043330Y0034815D01*
X0043411Y0034667D01*
X0043496Y0034522D01*
X0043584Y0034378D01*
X0043675Y0034237D01*
X0043770Y0034098D01*
X0043868Y0033962D01*
X0043970Y0033827D01*
X0044074Y0033696D01*
X0044182Y0033567D01*
X0044293Y0033440D01*
X0044407Y0033317D01*
X0044524Y0033196D01*
X0044644Y0033078D01*
X0044767Y0032963D01*
X0044892Y0032851D01*
X0045020Y0032742D01*
X0045151Y0032636D01*
X0045284Y0032533D01*
X0045420Y0032434D01*
X0045558Y0032338D01*
X0045699Y0032245D01*
X0045841Y0032156D01*
X0045986Y0032071D01*
X0046133Y0031989D01*
X0046282Y0031910D01*
X0046432Y0031835D01*
X0046585Y0031764D01*
X0046739Y0031696D01*
X0046895Y0031633D01*
X0047052Y0031573D01*
X0047210Y0031517D01*
X0047370Y0031464D01*
X0047531Y0031416D01*
X0047694Y0031372D01*
X0047857Y0031331D01*
X0048021Y0031295D01*
X0048186Y0031262D01*
X0048352Y0031234D01*
X0048518Y0031210D01*
X0048685Y0031189D01*
X0048853Y0031173D01*
X0049020Y0031161D01*
X0049188Y0031153D01*
X0049357Y0031148D01*
X0049525Y0031149D01*
X0049693Y0031153D01*
X0049861Y0031161D01*
X0050029Y0031173D01*
X0050196Y0031190D01*
X0050363Y0031210D01*
X0050530Y0031234D01*
X0050695Y0031263D01*
X0050860Y0031296D01*
X0051025Y0031332D01*
X0051188Y0031373D01*
X0051350Y0031417D01*
X0051511Y0031465D01*
X0051671Y0031518D01*
X0051830Y0031574D01*
X0051987Y0031634D01*
X0052142Y0031698D01*
X0052296Y0031765D01*
X0052449Y0031837D01*
X0052599Y0031912D01*
X0052748Y0031990D01*
X0052895Y0032072D01*
X0053040Y0032158D01*
X0053182Y0032247D01*
X0053323Y0032340D01*
X0053461Y0032436D01*
X0053596Y0032535D01*
X0053730Y0032638D01*
X0053860Y0032744D01*
X0053988Y0032853D01*
X0054114Y0032965D01*
X0054236Y0033080D01*
X0054356Y0033198D01*
X0054473Y0033319D01*
X0054587Y0033443D01*
X0054698Y0033569D01*
X0054806Y0033698D01*
X0054911Y0033830D01*
X0055012Y0033964D01*
X0055110Y0034101D01*
X0055205Y0034240D01*
X0055296Y0034381D01*
X0055384Y0034525D01*
X0051250Y0038855D02*
X0051217Y0038775D01*
X0051181Y0038697D01*
X0051141Y0038620D01*
X0051098Y0038546D01*
X0051052Y0038473D01*
X0051002Y0038402D01*
X0050949Y0038334D01*
X0050894Y0038268D01*
X0050835Y0038204D01*
X0050774Y0038144D01*
X0050710Y0038086D01*
X0050643Y0038031D01*
X0050574Y0037979D01*
X0050503Y0037930D01*
X0050430Y0037884D01*
X0050354Y0037842D01*
X0050277Y0037803D01*
X0050199Y0037768D01*
X0050118Y0037736D01*
X0050037Y0037707D01*
X0049954Y0037683D01*
X0049870Y0037662D01*
X0049786Y0037645D01*
X0049700Y0037631D01*
X0049615Y0037622D01*
X0049528Y0037616D01*
X0049442Y0037614D01*
X0049356Y0037616D01*
X0049270Y0037622D01*
X0049184Y0037631D01*
X0049098Y0037645D01*
X0049014Y0037662D01*
X0048930Y0037683D01*
X0048847Y0037708D01*
X0048766Y0037736D01*
X0048686Y0037768D01*
X0048607Y0037804D01*
X0048530Y0037843D01*
X0048455Y0037885D01*
X0048382Y0037931D01*
X0048310Y0037980D01*
X0048241Y0038032D01*
X0048175Y0038087D01*
X0048111Y0038145D01*
X0048050Y0038206D01*
X0047991Y0038269D01*
X0047935Y0038335D01*
X0047883Y0038404D01*
X0047833Y0038474D01*
X0047787Y0038547D01*
X0047744Y0038622D01*
X0047704Y0038699D01*
X0047668Y0038777D01*
X0047635Y0038857D01*
X0047606Y0038938D01*
X0047581Y0039021D01*
X0047559Y0039104D01*
X0047541Y0039189D01*
X0047527Y0039274D01*
X0047516Y0039360D01*
X0047510Y0039446D01*
X0021010Y0092833D02*
X0021010Y0137912D01*
X0015695Y0128660D02*
X0004672Y0128660D01*
X0004672Y0123936D01*
X0013136Y0123936D01*
X0013222Y0123934D01*
X0013308Y0123929D01*
X0013393Y0123919D01*
X0013478Y0123906D01*
X0013562Y0123889D01*
X0013646Y0123869D01*
X0013728Y0123845D01*
X0013809Y0123817D01*
X0013890Y0123786D01*
X0013968Y0123752D01*
X0014045Y0123714D01*
X0014121Y0123672D01*
X0014194Y0123628D01*
X0014265Y0123580D01*
X0014335Y0123529D01*
X0014402Y0123475D01*
X0014466Y0123419D01*
X0014528Y0123359D01*
X0014588Y0123297D01*
X0014644Y0123233D01*
X0014698Y0123166D01*
X0014749Y0123096D01*
X0014797Y0123025D01*
X0014841Y0122952D01*
X0014883Y0122876D01*
X0014921Y0122799D01*
X0014955Y0122721D01*
X0014986Y0122640D01*
X0015014Y0122559D01*
X0015038Y0122477D01*
X0015058Y0122393D01*
X0015075Y0122309D01*
X0015088Y0122224D01*
X0015098Y0122139D01*
X0015103Y0122053D01*
X0015105Y0121967D01*
X0015103Y0121867D01*
X0015097Y0121766D01*
X0015087Y0121666D01*
X0015073Y0121567D01*
X0015056Y0121468D01*
X0015034Y0121370D01*
X0015009Y0121272D01*
X0014980Y0121176D01*
X0014947Y0121081D01*
X0014910Y0120988D01*
X0014870Y0120896D01*
X0014826Y0120805D01*
X0014779Y0120717D01*
X0014728Y0120630D01*
X0014674Y0120545D01*
X0014616Y0120463D01*
X0014556Y0120383D01*
X0014492Y0120305D01*
X0014425Y0120230D01*
X0014355Y0120158D01*
X0014283Y0120088D01*
X0014208Y0120021D01*
X0014130Y0119957D01*
X0014050Y0119897D01*
X0013968Y0119839D01*
X0013883Y0119785D01*
X0013796Y0119734D01*
X0013708Y0119687D01*
X0013617Y0119643D01*
X0013525Y0119603D01*
X0013432Y0119566D01*
X0013337Y0119533D01*
X0013241Y0119504D01*
X0013143Y0119479D01*
X0013045Y0119457D01*
X0012946Y0119440D01*
X0012847Y0119426D01*
X0012747Y0119416D01*
X0012646Y0119410D01*
X0012546Y0119408D01*
X0006247Y0119408D01*
X0006175Y0119406D01*
X0006103Y0119400D01*
X0006031Y0119391D01*
X0005960Y0119378D01*
X0005890Y0119361D01*
X0005821Y0119341D01*
X0005753Y0119316D01*
X0005687Y0119289D01*
X0005621Y0119258D01*
X0005558Y0119223D01*
X0005496Y0119186D01*
X0005437Y0119145D01*
X0005380Y0119101D01*
X0005325Y0119054D01*
X0005273Y0119004D01*
X0005223Y0118952D01*
X0005176Y0118897D01*
X0005132Y0118840D01*
X0005091Y0118781D01*
X0005054Y0118719D01*
X0005019Y0118656D01*
X0004988Y0118590D01*
X0004961Y0118524D01*
X0004936Y0118456D01*
X0004916Y0118387D01*
X0004899Y0118317D01*
X0004886Y0118246D01*
X0004877Y0118174D01*
X0004871Y0118102D01*
X0004869Y0118030D01*
X0004672Y0117833D01*
X0004671Y0117833D02*
X0004673Y0117747D01*
X0004678Y0117661D01*
X0004688Y0117576D01*
X0004701Y0117491D01*
X0004718Y0117407D01*
X0004738Y0117323D01*
X0004762Y0117241D01*
X0004790Y0117160D01*
X0004821Y0117079D01*
X0004855Y0117001D01*
X0004893Y0116924D01*
X0004935Y0116849D01*
X0004979Y0116775D01*
X0005027Y0116704D01*
X0005078Y0116634D01*
X0005132Y0116567D01*
X0005188Y0116503D01*
X0005248Y0116441D01*
X0005310Y0116381D01*
X0005374Y0116325D01*
X0005441Y0116271D01*
X0005511Y0116220D01*
X0005582Y0116172D01*
X0005655Y0116128D01*
X0005731Y0116086D01*
X0005808Y0116048D01*
X0005886Y0116014D01*
X0005967Y0115983D01*
X0006048Y0115955D01*
X0006130Y0115931D01*
X0006214Y0115911D01*
X0006298Y0115894D01*
X0006383Y0115881D01*
X0006468Y0115871D01*
X0006554Y0115866D01*
X0006640Y0115864D01*
X0006640Y0115865D02*
X0012743Y0115865D01*
X0012829Y0115863D01*
X0012915Y0115858D01*
X0013000Y0115848D01*
X0013085Y0115835D01*
X0013169Y0115818D01*
X0013253Y0115798D01*
X0013335Y0115774D01*
X0013416Y0115746D01*
X0013497Y0115715D01*
X0013575Y0115681D01*
X0013652Y0115643D01*
X0013728Y0115601D01*
X0013801Y0115557D01*
X0013872Y0115509D01*
X0013942Y0115458D01*
X0014009Y0115404D01*
X0014073Y0115348D01*
X0014135Y0115288D01*
X0014195Y0115226D01*
X0014251Y0115162D01*
X0014305Y0115095D01*
X0014356Y0115025D01*
X0014404Y0114954D01*
X0014448Y0114881D01*
X0014490Y0114805D01*
X0014528Y0114728D01*
X0014562Y0114650D01*
X0014593Y0114569D01*
X0014621Y0114488D01*
X0014645Y0114406D01*
X0014665Y0114322D01*
X0014682Y0114238D01*
X0014695Y0114153D01*
X0014705Y0114068D01*
X0014710Y0113982D01*
X0014712Y0113896D01*
X0014711Y0113896D02*
X0014711Y0113699D01*
X0014709Y0113607D01*
X0014703Y0113515D01*
X0014693Y0113424D01*
X0014680Y0113333D01*
X0014662Y0113243D01*
X0014641Y0113153D01*
X0014616Y0113065D01*
X0014587Y0112978D01*
X0014555Y0112892D01*
X0014519Y0112807D01*
X0014479Y0112724D01*
X0014436Y0112643D01*
X0014390Y0112564D01*
X0014340Y0112487D01*
X0014287Y0112412D01*
X0014230Y0112339D01*
X0014171Y0112269D01*
X0014109Y0112201D01*
X0014044Y0112136D01*
X0013976Y0112074D01*
X0013906Y0112015D01*
X0013833Y0111958D01*
X0013758Y0111905D01*
X0013681Y0111855D01*
X0013602Y0111809D01*
X0013521Y0111766D01*
X0013438Y0111726D01*
X0013353Y0111690D01*
X0013267Y0111658D01*
X0013180Y0111629D01*
X0013092Y0111604D01*
X0013002Y0111583D01*
X0012912Y0111565D01*
X0012821Y0111552D01*
X0012730Y0111542D01*
X0012638Y0111536D01*
X0012546Y0111534D01*
X0010380Y0111534D01*
X0010298Y0111532D01*
X0010217Y0111526D01*
X0010135Y0111517D01*
X0010054Y0111504D01*
X0009974Y0111487D01*
X0009895Y0111466D01*
X0009817Y0111442D01*
X0009740Y0111414D01*
X0009664Y0111383D01*
X0009590Y0111348D01*
X0009518Y0111310D01*
X0009447Y0111269D01*
X0009379Y0111224D01*
X0009312Y0111176D01*
X0009248Y0111125D01*
X0009186Y0111072D01*
X0009127Y0111015D01*
X0009070Y0110956D01*
X0009017Y0110894D01*
X0008966Y0110830D01*
X0008918Y0110763D01*
X0008873Y0110695D01*
X0008832Y0110624D01*
X0008794Y0110552D01*
X0008759Y0110478D01*
X0008728Y0110402D01*
X0008700Y0110325D01*
X0008676Y0110247D01*
X0008655Y0110168D01*
X0008638Y0110088D01*
X0008625Y0110007D01*
X0008616Y0109925D01*
X0008610Y0109844D01*
X0008608Y0109762D01*
X0008609Y0109762D02*
X0008609Y0108975D01*
X0008608Y0108975D02*
X0008610Y0108893D01*
X0008616Y0108812D01*
X0008625Y0108730D01*
X0008638Y0108649D01*
X0008655Y0108569D01*
X0008676Y0108490D01*
X0008700Y0108412D01*
X0008728Y0108335D01*
X0008759Y0108259D01*
X0008794Y0108185D01*
X0008832Y0108113D01*
X0008873Y0108042D01*
X0008918Y0107974D01*
X0008966Y0107907D01*
X0009017Y0107843D01*
X0009070Y0107781D01*
X0009127Y0107722D01*
X0009186Y0107665D01*
X0009248Y0107612D01*
X0009312Y0107561D01*
X0009379Y0107513D01*
X0009447Y0107468D01*
X0009518Y0107427D01*
X0009590Y0107389D01*
X0009664Y0107354D01*
X0009740Y0107323D01*
X0009817Y0107295D01*
X0009895Y0107271D01*
X0009974Y0107250D01*
X0010054Y0107233D01*
X0010135Y0107220D01*
X0010217Y0107211D01*
X0010298Y0107205D01*
X0010380Y0107203D01*
X0010472Y0107201D01*
X0010564Y0107195D01*
X0010655Y0107185D01*
X0010746Y0107172D01*
X0010836Y0107154D01*
X0010926Y0107133D01*
X0011014Y0107108D01*
X0011101Y0107079D01*
X0011187Y0107047D01*
X0011272Y0107011D01*
X0011355Y0106971D01*
X0011436Y0106928D01*
X0011515Y0106882D01*
X0011592Y0106832D01*
X0011667Y0106779D01*
X0011740Y0106722D01*
X0011810Y0106663D01*
X0011878Y0106601D01*
X0011943Y0106536D01*
X0012005Y0106468D01*
X0012064Y0106398D01*
X0012121Y0106325D01*
X0012174Y0106250D01*
X0012224Y0106173D01*
X0012270Y0106094D01*
X0012313Y0106013D01*
X0012353Y0105930D01*
X0012389Y0105845D01*
X0012421Y0105759D01*
X0012450Y0105672D01*
X0012475Y0105584D01*
X0012496Y0105494D01*
X0012514Y0105404D01*
X0012527Y0105313D01*
X0012537Y0105222D01*
X0012543Y0105130D01*
X0012545Y0105038D01*
X0012546Y0105038D02*
X0012546Y0097361D01*
X0021010Y0092833D02*
X0078294Y0092833D01*
X0078294Y0138109D01*
X0001522Y0138109D01*
X0001522Y0092833D01*
X0021010Y0092833D01*
X0045420Y0113896D02*
X0041483Y0118030D01*
X0041483Y0118227D02*
X0058806Y0118227D01*
X0054081Y0113699D01*
X0043451Y0124329D01*
X0045420Y0113896D02*
X0055656Y0124132D01*
X0051522Y0112912D02*
X0051489Y0112832D01*
X0051453Y0112754D01*
X0051413Y0112677D01*
X0051370Y0112603D01*
X0051324Y0112530D01*
X0051274Y0112459D01*
X0051221Y0112391D01*
X0051166Y0112325D01*
X0051107Y0112261D01*
X0051046Y0112201D01*
X0050982Y0112143D01*
X0050915Y0112088D01*
X0050846Y0112036D01*
X0050775Y0111987D01*
X0050702Y0111941D01*
X0050626Y0111899D01*
X0050549Y0111860D01*
X0050471Y0111825D01*
X0050390Y0111793D01*
X0050309Y0111764D01*
X0050226Y0111740D01*
X0050142Y0111719D01*
X0050058Y0111702D01*
X0049972Y0111688D01*
X0049887Y0111679D01*
X0049800Y0111673D01*
X0049714Y0111671D01*
X0049628Y0111673D01*
X0049542Y0111679D01*
X0049456Y0111688D01*
X0049370Y0111702D01*
X0049286Y0111719D01*
X0049202Y0111740D01*
X0049119Y0111765D01*
X0049038Y0111793D01*
X0048958Y0111825D01*
X0048879Y0111861D01*
X0048802Y0111900D01*
X0048727Y0111942D01*
X0048654Y0111988D01*
X0048582Y0112037D01*
X0048513Y0112089D01*
X0048447Y0112144D01*
X0048383Y0112202D01*
X0048322Y0112263D01*
X0048263Y0112326D01*
X0048207Y0112392D01*
X0048155Y0112461D01*
X0048105Y0112531D01*
X0048059Y0112604D01*
X0048016Y0112679D01*
X0047976Y0112756D01*
X0047940Y0112834D01*
X0047907Y0112914D01*
X0047878Y0112995D01*
X0047853Y0113078D01*
X0047831Y0113161D01*
X0047813Y0113246D01*
X0047799Y0113331D01*
X0047788Y0113417D01*
X0047782Y0113503D01*
X0045813Y0111928D02*
X0045853Y0111804D01*
X0045898Y0111681D01*
X0045945Y0111559D01*
X0045997Y0111439D01*
X0046052Y0111320D01*
X0046111Y0111203D01*
X0046173Y0111088D01*
X0046239Y0110975D01*
X0046308Y0110865D01*
X0046381Y0110756D01*
X0046456Y0110649D01*
X0046535Y0110545D01*
X0046617Y0110443D01*
X0046703Y0110344D01*
X0046791Y0110248D01*
X0046882Y0110154D01*
X0046976Y0110063D01*
X0047072Y0109975D01*
X0047172Y0109890D01*
X0047273Y0109808D01*
X0047378Y0109729D01*
X0047484Y0109653D01*
X0047593Y0109581D01*
X0047704Y0109512D01*
X0047817Y0109446D01*
X0047932Y0109384D01*
X0048049Y0109325D01*
X0048168Y0109270D01*
X0048288Y0109219D01*
X0048410Y0109171D01*
X0048533Y0109127D01*
X0048657Y0109087D01*
X0048783Y0109050D01*
X0048909Y0109018D01*
X0049037Y0108989D01*
X0049165Y0108964D01*
X0049294Y0108943D01*
X0049424Y0108926D01*
X0049554Y0108913D01*
X0049684Y0108904D01*
X0049815Y0108899D01*
X0049946Y0108898D01*
X0050076Y0108901D01*
X0050207Y0108908D01*
X0050337Y0108919D01*
X0050467Y0108934D01*
X0050597Y0108952D01*
X0050725Y0108975D01*
X0050853Y0109002D01*
X0050980Y0109032D01*
X0051107Y0109066D01*
X0051232Y0109105D01*
X0051355Y0109147D01*
X0051478Y0109192D01*
X0051599Y0109242D01*
X0051718Y0109295D01*
X0051836Y0109351D01*
X0051952Y0109412D01*
X0052066Y0109475D01*
X0052179Y0109543D01*
X0052289Y0109613D01*
X0052396Y0109687D01*
X0052502Y0109764D01*
X0052605Y0109845D01*
X0052706Y0109928D01*
X0052804Y0110014D01*
X0052899Y0110104D01*
X0052992Y0110196D01*
X0053082Y0110291D01*
X0053168Y0110389D01*
X0053252Y0110489D01*
X0053333Y0110592D01*
X0053410Y0110697D01*
X0053485Y0110805D01*
X0053556Y0110915D01*
X0053623Y0111027D01*
X0053688Y0111140D01*
X0055656Y0108582D02*
X0055568Y0108438D01*
X0055477Y0108297D01*
X0055382Y0108158D01*
X0055284Y0108021D01*
X0055183Y0107887D01*
X0055078Y0107755D01*
X0054970Y0107626D01*
X0054859Y0107500D01*
X0054745Y0107376D01*
X0054628Y0107255D01*
X0054508Y0107137D01*
X0054386Y0107022D01*
X0054260Y0106910D01*
X0054132Y0106801D01*
X0054002Y0106695D01*
X0053868Y0106592D01*
X0053733Y0106493D01*
X0053595Y0106397D01*
X0053454Y0106304D01*
X0053312Y0106215D01*
X0053167Y0106129D01*
X0053020Y0106047D01*
X0052871Y0105969D01*
X0052721Y0105894D01*
X0052568Y0105822D01*
X0052414Y0105755D01*
X0052259Y0105691D01*
X0052102Y0105631D01*
X0051943Y0105575D01*
X0051783Y0105522D01*
X0051622Y0105474D01*
X0051460Y0105430D01*
X0051297Y0105389D01*
X0051132Y0105353D01*
X0050967Y0105320D01*
X0050802Y0105291D01*
X0050635Y0105267D01*
X0050468Y0105247D01*
X0050301Y0105230D01*
X0050133Y0105218D01*
X0049965Y0105210D01*
X0049797Y0105206D01*
X0049629Y0105205D01*
X0049460Y0105210D01*
X0049292Y0105218D01*
X0049125Y0105230D01*
X0048957Y0105246D01*
X0048790Y0105267D01*
X0048624Y0105291D01*
X0048458Y0105319D01*
X0048293Y0105352D01*
X0048129Y0105388D01*
X0047966Y0105429D01*
X0047803Y0105473D01*
X0047642Y0105521D01*
X0047482Y0105574D01*
X0047324Y0105630D01*
X0047167Y0105690D01*
X0047011Y0105753D01*
X0046857Y0105821D01*
X0046704Y0105892D01*
X0046554Y0105967D01*
X0046405Y0106046D01*
X0046258Y0106128D01*
X0046113Y0106213D01*
X0045971Y0106302D01*
X0045830Y0106395D01*
X0045692Y0106491D01*
X0045556Y0106590D01*
X0045423Y0106693D01*
X0045292Y0106799D01*
X0045164Y0106908D01*
X0045039Y0107020D01*
X0044916Y0107135D01*
X0044796Y0107253D01*
X0044679Y0107374D01*
X0044565Y0107497D01*
X0044454Y0107624D01*
X0044346Y0107753D01*
X0044242Y0107884D01*
X0044140Y0108019D01*
X0044042Y0108155D01*
X0043947Y0108294D01*
X0043856Y0108435D01*
X0043768Y0108579D01*
X0043683Y0108724D01*
X0043602Y0108872D01*
X0043525Y0109021D01*
X0043451Y0109172D01*
D12*
X0024258Y0126495D03*
X0023986Y0052438D03*
D13*
X0023233Y0045800D02*
X0022807Y0045373D01*
X0022807Y0044521D01*
X0023233Y0044094D01*
X0024938Y0045800D01*
X0023233Y0045800D01*
X0024938Y0045800D02*
X0025365Y0045373D01*
X0025365Y0044521D01*
X0024938Y0044094D01*
X0023233Y0044094D01*
X0022807Y0043262D02*
X0022807Y0041557D01*
X0024512Y0043262D01*
X0024938Y0043262D01*
X0025365Y0042836D01*
X0025365Y0041983D01*
X0024938Y0041557D01*
X0024938Y0040725D02*
X0023233Y0039019D01*
X0022807Y0039446D01*
X0022807Y0040298D01*
X0023233Y0040725D01*
X0024938Y0040725D01*
X0025365Y0040298D01*
X0025365Y0039446D01*
X0024938Y0039019D01*
X0023233Y0039019D01*
X0024086Y0038187D02*
X0024086Y0036482D01*
X0025365Y0037761D01*
X0022807Y0037761D01*
X0022807Y0035649D02*
X0025365Y0035649D01*
X0025365Y0033944D02*
X0022807Y0033944D01*
X0022807Y0033112D02*
X0023659Y0032259D01*
X0023659Y0032686D02*
X0023659Y0031406D01*
X0022807Y0031406D02*
X0025365Y0031406D01*
X0025365Y0032686D01*
X0024938Y0033112D01*
X0024086Y0033112D01*
X0023659Y0032686D01*
X0025365Y0033944D02*
X0022807Y0035649D01*
X0026941Y0034797D02*
X0029499Y0034797D01*
X0029499Y0035649D02*
X0029499Y0033944D01*
X0029499Y0033112D02*
X0029499Y0031406D01*
X0026941Y0031406D01*
X0026941Y0033112D01*
X0028220Y0032259D02*
X0028220Y0031406D01*
X0027367Y0030574D02*
X0029499Y0030574D01*
X0031074Y0030561D02*
X0033632Y0030561D01*
X0033632Y0031840D01*
X0033206Y0032266D01*
X0032353Y0032266D01*
X0031927Y0031840D01*
X0031927Y0030561D01*
X0031927Y0031413D02*
X0031074Y0032266D01*
X0031501Y0033098D02*
X0031074Y0033525D01*
X0031074Y0034377D01*
X0031501Y0034804D01*
X0033206Y0034804D01*
X0033632Y0034377D01*
X0033632Y0033525D01*
X0033206Y0033098D01*
X0031501Y0033098D01*
X0031501Y0035636D02*
X0031074Y0036062D01*
X0031074Y0036915D01*
X0031501Y0037341D01*
X0031074Y0038173D02*
X0033632Y0038173D01*
X0033206Y0037341D02*
X0033632Y0036915D01*
X0033632Y0036062D01*
X0033206Y0035636D01*
X0031501Y0035636D01*
X0029499Y0036908D02*
X0029499Y0037761D01*
X0029072Y0038187D01*
X0027367Y0038187D01*
X0026941Y0037761D01*
X0026941Y0036908D01*
X0027367Y0036482D01*
X0029072Y0036482D01*
X0029499Y0036908D01*
X0029072Y0039019D02*
X0027367Y0039019D01*
X0026941Y0039446D01*
X0026941Y0040298D01*
X0027367Y0040725D01*
X0029072Y0040725D01*
X0029499Y0040298D01*
X0029499Y0039446D01*
X0029072Y0039019D01*
X0029499Y0041557D02*
X0029499Y0043262D01*
X0029499Y0044094D02*
X0026941Y0044094D01*
X0028220Y0044094D02*
X0028220Y0045800D01*
X0029499Y0045800D02*
X0026941Y0045800D01*
X0026941Y0042410D02*
X0029499Y0042410D01*
X0031074Y0042403D02*
X0033632Y0042403D01*
X0033632Y0043682D01*
X0033206Y0044108D01*
X0032353Y0044108D01*
X0031927Y0043682D01*
X0031927Y0042403D01*
X0031074Y0041564D02*
X0031074Y0040711D01*
X0031074Y0041137D02*
X0033632Y0041137D01*
X0033632Y0040711D02*
X0033632Y0041564D01*
X0033632Y0039879D02*
X0031074Y0039879D01*
X0032353Y0039879D02*
X0032353Y0038173D01*
X0031501Y0029728D02*
X0031074Y0029302D01*
X0031074Y0028449D01*
X0031501Y0028023D01*
X0033206Y0028023D01*
X0033632Y0028449D01*
X0033632Y0029302D01*
X0033206Y0029728D01*
X0033632Y0027184D02*
X0033632Y0026331D01*
X0033632Y0026758D02*
X0031074Y0026758D01*
X0031074Y0027184D02*
X0031074Y0026331D01*
X0031074Y0025499D02*
X0033632Y0025499D01*
X0032780Y0024646D01*
X0033632Y0023794D01*
X0031074Y0023794D01*
X0029499Y0023794D02*
X0029499Y0025073D01*
X0029072Y0025499D01*
X0028646Y0025499D01*
X0028220Y0025073D01*
X0028220Y0023794D01*
X0026941Y0023794D02*
X0029499Y0023794D01*
X0028220Y0025073D02*
X0027793Y0025499D01*
X0027367Y0025499D01*
X0026941Y0025073D01*
X0026941Y0023794D01*
X0026941Y0026331D02*
X0026941Y0028037D01*
X0027367Y0028869D02*
X0026941Y0029295D01*
X0026941Y0030148D01*
X0027367Y0030574D01*
X0027367Y0028869D02*
X0029499Y0028869D01*
X0029499Y0026331D02*
X0026941Y0026331D01*
X0027213Y0097851D02*
X0027213Y0099130D01*
X0027639Y0099556D01*
X0028065Y0099556D01*
X0028492Y0099130D01*
X0028492Y0097851D01*
X0027213Y0097851D02*
X0029771Y0097851D01*
X0029771Y0099130D01*
X0029344Y0099556D01*
X0028918Y0099556D01*
X0028492Y0099130D01*
X0029771Y0100388D02*
X0027213Y0100388D01*
X0027213Y0102094D01*
X0027639Y0102926D02*
X0027213Y0103352D01*
X0027213Y0104205D01*
X0027639Y0104631D01*
X0029771Y0104631D01*
X0029771Y0105464D02*
X0027213Y0105464D01*
X0027213Y0107169D01*
X0028492Y0106316D02*
X0028492Y0105464D01*
X0029771Y0105464D02*
X0029771Y0107169D01*
X0029771Y0108001D02*
X0029771Y0109707D01*
X0029771Y0108854D02*
X0027213Y0108854D01*
X0027639Y0110539D02*
X0027213Y0110965D01*
X0027213Y0111818D01*
X0027639Y0112244D01*
X0029344Y0112244D01*
X0029771Y0111818D01*
X0029771Y0110965D01*
X0029344Y0110539D01*
X0027639Y0110539D01*
X0025637Y0109707D02*
X0023079Y0109707D01*
X0025637Y0108001D01*
X0023079Y0108001D01*
X0023079Y0107169D02*
X0023931Y0106316D01*
X0023931Y0106743D02*
X0023931Y0105464D01*
X0023079Y0105464D02*
X0025637Y0105464D01*
X0025637Y0106743D01*
X0025211Y0107169D01*
X0024358Y0107169D01*
X0023931Y0106743D01*
X0024358Y0110539D02*
X0024358Y0112244D01*
X0025211Y0113076D02*
X0025637Y0113503D01*
X0025637Y0114355D01*
X0025211Y0114782D01*
X0023505Y0113076D01*
X0023079Y0113503D01*
X0023079Y0114355D01*
X0023505Y0114782D01*
X0025211Y0114782D01*
X0025211Y0115614D02*
X0025637Y0116040D01*
X0025637Y0116893D01*
X0025211Y0117319D01*
X0024784Y0117319D01*
X0023079Y0115614D01*
X0023079Y0117319D01*
X0023505Y0118152D02*
X0025211Y0119857D01*
X0023505Y0119857D01*
X0023079Y0119431D01*
X0023079Y0118578D01*
X0023505Y0118152D01*
X0025211Y0118152D01*
X0025637Y0118578D01*
X0025637Y0119431D01*
X0025211Y0119857D01*
X0027213Y0119857D02*
X0029771Y0119857D01*
X0028492Y0119857D02*
X0028492Y0118152D01*
X0027213Y0118152D02*
X0029771Y0118152D01*
X0029771Y0117319D02*
X0029771Y0115614D01*
X0029771Y0116467D02*
X0027213Y0116467D01*
X0027639Y0114782D02*
X0029344Y0114782D01*
X0029771Y0114355D01*
X0029771Y0113503D01*
X0029344Y0113076D01*
X0027639Y0113076D01*
X0027213Y0113503D01*
X0027213Y0114355D01*
X0027639Y0114782D01*
X0025211Y0113076D02*
X0023505Y0113076D01*
X0023079Y0111818D02*
X0025637Y0111818D01*
X0024358Y0110539D01*
X0031347Y0110119D02*
X0031347Y0110972D01*
X0031773Y0111398D01*
X0031347Y0112230D02*
X0033905Y0112230D01*
X0033478Y0111398D02*
X0033905Y0110972D01*
X0033905Y0110119D01*
X0033478Y0109693D01*
X0031773Y0109693D01*
X0031347Y0110119D01*
X0031773Y0108861D02*
X0033478Y0108861D01*
X0033905Y0108434D01*
X0033905Y0107582D01*
X0033478Y0107155D01*
X0031773Y0107155D01*
X0031347Y0107582D01*
X0031347Y0108434D01*
X0031773Y0108861D01*
X0031347Y0106323D02*
X0032199Y0105470D01*
X0032199Y0105897D02*
X0032199Y0104618D01*
X0031347Y0104618D02*
X0033905Y0104618D01*
X0033905Y0105897D01*
X0033478Y0106323D01*
X0032626Y0106323D01*
X0032199Y0105897D01*
X0031773Y0103785D02*
X0031347Y0103359D01*
X0031347Y0102506D01*
X0031773Y0102080D01*
X0033478Y0102080D01*
X0033905Y0102506D01*
X0033905Y0103359D01*
X0033478Y0103785D01*
X0033905Y0101241D02*
X0033905Y0100388D01*
X0033905Y0100815D02*
X0031347Y0100815D01*
X0031347Y0101241D02*
X0031347Y0100388D01*
X0031347Y0099556D02*
X0033905Y0099556D01*
X0033052Y0098703D01*
X0033905Y0097851D01*
X0031347Y0097851D01*
X0029771Y0102926D02*
X0027639Y0102926D01*
X0032626Y0112230D02*
X0032626Y0113936D01*
X0033905Y0113936D02*
X0031347Y0113936D01*
X0031347Y0114768D02*
X0031347Y0115621D01*
X0031347Y0115194D02*
X0033905Y0115194D01*
X0033905Y0114768D02*
X0033905Y0115621D01*
X0033905Y0116460D02*
X0033905Y0117739D01*
X0033478Y0118165D01*
X0032626Y0118165D01*
X0032199Y0117739D01*
X0032199Y0116460D01*
X0031347Y0116460D02*
X0033905Y0116460D01*
D14*
X0031485Y0129700D02*
X0031985Y0130201D01*
X0030484Y0130201D01*
X0030484Y0130701D02*
X0030484Y0129700D01*
X0030484Y0131174D02*
X0031485Y0131174D01*
X0031985Y0131674D01*
X0031485Y0132175D01*
X0030484Y0132175D01*
X0031235Y0132175D02*
X0031235Y0131174D01*
X0035799Y0132552D02*
X0035799Y0133553D01*
X0035799Y0133052D02*
X0037300Y0133052D01*
X0036800Y0132552D01*
X0040523Y0132355D02*
X0041524Y0133356D01*
X0041774Y0133356D01*
X0042025Y0133105D01*
X0042025Y0132605D01*
X0041774Y0132355D01*
X0040523Y0132355D02*
X0040523Y0133356D01*
X0045051Y0133105D02*
X0045051Y0132605D01*
X0045301Y0132355D01*
X0045801Y0132855D02*
X0045801Y0133105D01*
X0045551Y0133356D01*
X0045301Y0133356D01*
X0045051Y0133105D01*
X0045801Y0133105D02*
X0046052Y0133356D01*
X0046302Y0133356D01*
X0046552Y0133105D01*
X0046552Y0132605D01*
X0046302Y0132355D01*
X0049972Y0133105D02*
X0051473Y0133105D01*
X0050723Y0132355D01*
X0050723Y0133356D01*
X0054697Y0133105D02*
X0054697Y0132605D01*
X0054947Y0132355D01*
X0055447Y0132355D02*
X0055697Y0132855D01*
X0055697Y0133105D01*
X0055447Y0133356D01*
X0054947Y0133356D01*
X0054697Y0133105D01*
X0055447Y0132355D02*
X0056198Y0132355D01*
X0056198Y0133356D01*
X0059421Y0133105D02*
X0059671Y0133356D01*
X0059921Y0133356D01*
X0060172Y0133105D01*
X0060172Y0132355D01*
X0059671Y0132355D01*
X0059421Y0132605D01*
X0059421Y0133105D01*
X0060172Y0132355D02*
X0060672Y0132855D01*
X0060922Y0133356D01*
X0064145Y0132355D02*
X0064396Y0132355D01*
X0065396Y0133356D01*
X0065647Y0133356D01*
X0065647Y0132355D01*
X0068870Y0132605D02*
X0069120Y0132355D01*
X0069370Y0132355D01*
X0069620Y0132605D01*
X0069620Y0133105D01*
X0069370Y0133356D01*
X0069120Y0133356D01*
X0068870Y0133105D01*
X0068870Y0132605D01*
X0069620Y0132605D02*
X0069871Y0132355D01*
X0070121Y0132355D01*
X0070371Y0132605D01*
X0070371Y0133105D01*
X0070121Y0133356D01*
X0069871Y0133356D01*
X0069620Y0133105D01*
X0072663Y0128828D02*
X0072413Y0128578D01*
X0072413Y0128077D01*
X0072663Y0127827D01*
X0073664Y0128828D01*
X0072663Y0128828D01*
X0072663Y0127827D02*
X0073664Y0127827D01*
X0073914Y0128077D01*
X0073914Y0128578D01*
X0073664Y0128828D01*
X0072413Y0127355D02*
X0072413Y0126354D01*
X0072413Y0126854D02*
X0073914Y0126854D01*
X0073414Y0126354D01*
X0072413Y0124104D02*
X0072413Y0123103D01*
X0072413Y0122630D02*
X0072413Y0121630D01*
X0072413Y0122130D02*
X0073914Y0122130D01*
X0073414Y0121630D01*
X0073414Y0123103D02*
X0073914Y0123603D01*
X0072413Y0123603D01*
X0072413Y0119379D02*
X0072413Y0118378D01*
X0073414Y0119379D01*
X0073664Y0119379D01*
X0073914Y0119129D01*
X0073914Y0118629D01*
X0073664Y0118378D01*
X0073914Y0117406D02*
X0072413Y0117406D01*
X0072413Y0117906D02*
X0072413Y0116905D01*
X0073414Y0116905D02*
X0073914Y0117406D01*
X0073664Y0114655D02*
X0073414Y0114655D01*
X0073164Y0114405D01*
X0072913Y0114655D01*
X0072663Y0114655D01*
X0072413Y0114405D01*
X0072413Y0113904D01*
X0072663Y0113654D01*
X0072413Y0113182D02*
X0072413Y0112181D01*
X0072413Y0112681D02*
X0073914Y0112681D01*
X0073414Y0112181D01*
X0073664Y0113654D02*
X0073914Y0113904D01*
X0073914Y0114405D01*
X0073664Y0114655D01*
X0073164Y0114405D02*
X0073164Y0114154D01*
X0073164Y0109930D02*
X0073164Y0108930D01*
X0073914Y0109680D01*
X0072413Y0109680D01*
X0072413Y0108457D02*
X0072413Y0107456D01*
X0072413Y0107957D02*
X0073914Y0107957D01*
X0073414Y0107456D01*
X0073164Y0105206D02*
X0072663Y0105206D01*
X0072413Y0104956D01*
X0072413Y0104455D01*
X0072663Y0104205D01*
X0073164Y0104205D02*
X0073414Y0104706D01*
X0073414Y0104956D01*
X0073164Y0105206D01*
X0073914Y0105206D02*
X0073914Y0104205D01*
X0073164Y0104205D01*
X0072413Y0103733D02*
X0072413Y0102732D01*
X0072413Y0103232D02*
X0073914Y0103232D01*
X0073414Y0102732D01*
X0075563Y0099694D02*
X0076563Y0099694D01*
X0077064Y0099194D01*
X0076563Y0098693D01*
X0075563Y0098693D01*
X0075813Y0098221D02*
X0076063Y0098221D01*
X0076313Y0097971D01*
X0076313Y0097220D01*
X0075813Y0097220D01*
X0075563Y0097470D01*
X0075563Y0097971D01*
X0075813Y0098221D01*
X0076313Y0098693D02*
X0076313Y0099694D01*
X0077064Y0098221D02*
X0076814Y0097721D01*
X0076313Y0097220D01*
X0075563Y0096748D02*
X0075563Y0095747D01*
X0075563Y0096247D02*
X0077064Y0096247D01*
X0076563Y0095747D01*
X0075095Y0091820D02*
X0074845Y0091320D01*
X0074345Y0090819D01*
X0074345Y0091570D01*
X0074095Y0091820D01*
X0073844Y0091820D01*
X0073594Y0091570D01*
X0073594Y0091070D01*
X0073844Y0090819D01*
X0074345Y0090819D01*
X0073594Y0090347D02*
X0073594Y0089346D01*
X0073594Y0089847D02*
X0075095Y0089847D01*
X0074595Y0089346D01*
X0069280Y0096039D02*
X0069780Y0096539D01*
X0068279Y0096539D01*
X0068279Y0096039D02*
X0068279Y0097040D01*
X0068279Y0097512D02*
X0068529Y0097512D01*
X0069530Y0098513D01*
X0069780Y0098513D01*
X0069780Y0097512D01*
X0065253Y0097763D02*
X0065003Y0097512D01*
X0064752Y0097512D01*
X0064502Y0097763D01*
X0064502Y0098263D01*
X0064252Y0098513D01*
X0064002Y0098513D01*
X0063752Y0098263D01*
X0063752Y0097763D01*
X0064002Y0097512D01*
X0064252Y0097512D01*
X0064502Y0097763D01*
X0064502Y0098263D02*
X0064752Y0098513D01*
X0065003Y0098513D01*
X0065253Y0098263D01*
X0065253Y0097763D01*
X0065253Y0096539D02*
X0063752Y0096539D01*
X0063752Y0096039D02*
X0063752Y0097040D01*
X0064752Y0096039D02*
X0065253Y0096539D01*
X0060528Y0096736D02*
X0059027Y0096736D01*
X0059027Y0096236D02*
X0059027Y0097237D01*
X0059277Y0097709D02*
X0059027Y0097959D01*
X0059027Y0098460D01*
X0059277Y0098710D01*
X0060278Y0098710D01*
X0060528Y0098460D01*
X0060528Y0097959D01*
X0060278Y0097709D01*
X0060028Y0097709D01*
X0059778Y0097959D01*
X0059778Y0098710D01*
X0060528Y0096736D02*
X0060028Y0096236D01*
X0056198Y0096486D02*
X0055948Y0096236D01*
X0056198Y0096486D02*
X0056198Y0096987D01*
X0055948Y0097237D01*
X0055697Y0097237D01*
X0054697Y0096236D01*
X0054697Y0097237D01*
X0054947Y0097709D02*
X0055948Y0098710D01*
X0054947Y0098710D01*
X0054697Y0098460D01*
X0054697Y0097959D01*
X0054947Y0097709D01*
X0055948Y0097709D01*
X0056198Y0097959D01*
X0056198Y0098460D01*
X0055948Y0098710D01*
X0051277Y0098406D02*
X0049775Y0098406D01*
X0049775Y0097906D02*
X0049775Y0098907D01*
X0050776Y0097906D02*
X0051277Y0098406D01*
X0051026Y0097434D02*
X0051277Y0097183D01*
X0051277Y0096683D01*
X0051026Y0096433D01*
X0051026Y0097434D02*
X0050776Y0097434D01*
X0049775Y0096433D01*
X0049775Y0097434D01*
X0046355Y0096987D02*
X0046355Y0096486D01*
X0046105Y0096236D01*
X0046355Y0096987D02*
X0046105Y0097237D01*
X0045855Y0097237D01*
X0044854Y0096236D01*
X0044854Y0097237D01*
X0044854Y0097709D02*
X0045855Y0098710D01*
X0046105Y0098710D01*
X0046355Y0098460D01*
X0046355Y0097959D01*
X0046105Y0097709D01*
X0044854Y0097709D02*
X0044854Y0098710D01*
X0041631Y0098460D02*
X0041381Y0098710D01*
X0041130Y0098710D01*
X0040880Y0098460D01*
X0040630Y0098710D01*
X0040380Y0098710D01*
X0040130Y0098460D01*
X0040130Y0097959D01*
X0040380Y0097709D01*
X0040130Y0097237D02*
X0040130Y0096236D01*
X0041130Y0097237D01*
X0041381Y0097237D01*
X0041631Y0096987D01*
X0041631Y0096486D01*
X0041381Y0096236D01*
X0041381Y0097709D02*
X0041631Y0097959D01*
X0041631Y0098460D01*
X0040880Y0098460D02*
X0040880Y0098210D01*
X0036710Y0098460D02*
X0035959Y0097709D01*
X0035959Y0098710D01*
X0035208Y0098460D02*
X0036710Y0098460D01*
X0036459Y0097237D02*
X0036710Y0096987D01*
X0036710Y0096486D01*
X0036459Y0096236D01*
X0036459Y0097237D02*
X0036209Y0097237D01*
X0035208Y0096236D01*
X0035208Y0097237D01*
X0032576Y0096891D02*
X0032576Y0096391D01*
X0032326Y0096141D01*
X0032576Y0096891D02*
X0032326Y0097141D01*
X0032075Y0097141D01*
X0031074Y0096141D01*
X0031074Y0097141D01*
X0031825Y0097614D02*
X0031825Y0098615D01*
X0031825Y0099087D02*
X0031825Y0100088D01*
X0032075Y0100088D02*
X0031074Y0100088D01*
X0031074Y0099087D02*
X0032075Y0099087D01*
X0032576Y0099588D01*
X0032075Y0100088D01*
X0032576Y0098365D02*
X0031074Y0098365D01*
X0031825Y0097614D02*
X0032576Y0098365D01*
X0043779Y0087410D02*
X0043779Y0087159D01*
X0044780Y0086158D01*
X0044780Y0085908D01*
X0045252Y0086158D02*
X0045502Y0085908D01*
X0046003Y0085908D01*
X0046253Y0086158D01*
X0046253Y0087159D01*
X0046003Y0087410D01*
X0045502Y0087410D01*
X0045252Y0087159D01*
X0044780Y0087410D02*
X0043779Y0087410D01*
X0045029Y0059299D02*
X0044779Y0059048D01*
X0044779Y0058548D01*
X0045029Y0058298D01*
X0045529Y0058798D02*
X0045529Y0059048D01*
X0045279Y0059299D01*
X0045029Y0059299D01*
X0045529Y0059048D02*
X0045780Y0059299D01*
X0046030Y0059299D01*
X0046280Y0059048D01*
X0046280Y0058548D01*
X0046030Y0058298D01*
X0049700Y0059048D02*
X0051201Y0059048D01*
X0050451Y0058298D01*
X0050451Y0059299D01*
X0054424Y0059048D02*
X0054424Y0058548D01*
X0054675Y0058298D01*
X0055175Y0058298D02*
X0055425Y0058798D01*
X0055425Y0059048D01*
X0055175Y0059299D01*
X0054675Y0059299D01*
X0054424Y0059048D01*
X0055175Y0058298D02*
X0055926Y0058298D01*
X0055926Y0059299D01*
X0059149Y0059048D02*
X0059149Y0058548D01*
X0059399Y0058298D01*
X0059899Y0058298D01*
X0059899Y0059048D01*
X0059649Y0059299D01*
X0059399Y0059299D01*
X0059149Y0059048D01*
X0059899Y0058298D02*
X0060400Y0058798D01*
X0060650Y0059299D01*
X0063873Y0058298D02*
X0064123Y0058298D01*
X0065124Y0059299D01*
X0065375Y0059299D01*
X0065375Y0058298D01*
X0068598Y0058548D02*
X0068848Y0058298D01*
X0069098Y0058298D01*
X0069348Y0058548D01*
X0069348Y0059048D01*
X0069098Y0059299D01*
X0068848Y0059299D01*
X0068598Y0059048D01*
X0068598Y0058548D01*
X0069348Y0058548D02*
X0069598Y0058298D01*
X0069849Y0058298D01*
X0070099Y0058548D01*
X0070099Y0059048D01*
X0069849Y0059299D01*
X0069598Y0059299D01*
X0069348Y0059048D01*
X0072391Y0054771D02*
X0072141Y0054521D01*
X0072141Y0054020D01*
X0072391Y0053770D01*
X0073392Y0054771D01*
X0072391Y0054771D01*
X0072391Y0053770D02*
X0073392Y0053770D01*
X0073642Y0054020D01*
X0073642Y0054521D01*
X0073392Y0054771D01*
X0072141Y0053298D02*
X0072141Y0052297D01*
X0072141Y0052797D02*
X0073642Y0052797D01*
X0073142Y0052297D01*
X0072141Y0050047D02*
X0072141Y0049046D01*
X0072141Y0048573D02*
X0072141Y0047573D01*
X0072141Y0048073D02*
X0073642Y0048073D01*
X0073142Y0047573D01*
X0073142Y0049046D02*
X0073642Y0049546D01*
X0072141Y0049546D01*
X0072141Y0045322D02*
X0072141Y0044321D01*
X0073142Y0045322D01*
X0073392Y0045322D01*
X0073642Y0045072D01*
X0073642Y0044572D01*
X0073392Y0044321D01*
X0073642Y0043349D02*
X0072141Y0043349D01*
X0072141Y0043849D02*
X0072141Y0042848D01*
X0073142Y0042848D02*
X0073642Y0043349D01*
X0073392Y0040598D02*
X0073142Y0040598D01*
X0072892Y0040348D01*
X0072641Y0040598D01*
X0072391Y0040598D01*
X0072141Y0040348D01*
X0072141Y0039847D01*
X0072391Y0039597D01*
X0072141Y0039125D02*
X0072141Y0038124D01*
X0072141Y0038624D02*
X0073642Y0038624D01*
X0073142Y0038124D01*
X0073392Y0039597D02*
X0073642Y0039847D01*
X0073642Y0040348D01*
X0073392Y0040598D01*
X0072892Y0040348D02*
X0072892Y0040097D01*
X0072892Y0035873D02*
X0072892Y0034873D01*
X0073642Y0035623D01*
X0072141Y0035623D01*
X0072141Y0034400D02*
X0072141Y0033399D01*
X0072141Y0033900D02*
X0073642Y0033900D01*
X0073142Y0033399D01*
X0072892Y0031149D02*
X0072391Y0031149D01*
X0072141Y0030899D01*
X0072141Y0030398D01*
X0072391Y0030148D01*
X0072892Y0030148D02*
X0073142Y0030649D01*
X0073142Y0030899D01*
X0072892Y0031149D01*
X0073642Y0031149D02*
X0073642Y0030148D01*
X0072892Y0030148D01*
X0072141Y0029676D02*
X0072141Y0028675D01*
X0072141Y0029175D02*
X0073642Y0029175D01*
X0073142Y0028675D01*
X0075291Y0025637D02*
X0076291Y0025637D01*
X0076792Y0025137D01*
X0076291Y0024636D01*
X0075291Y0024636D01*
X0075541Y0024164D02*
X0075791Y0024164D01*
X0076041Y0023914D01*
X0076041Y0023163D01*
X0075541Y0023163D01*
X0075291Y0023413D01*
X0075291Y0023914D01*
X0075541Y0024164D01*
X0076041Y0024636D02*
X0076041Y0025637D01*
X0076792Y0024164D02*
X0076542Y0023664D01*
X0076041Y0023163D01*
X0075291Y0022691D02*
X0075291Y0021690D01*
X0075291Y0022190D02*
X0076792Y0022190D01*
X0076291Y0021690D01*
X0074823Y0017763D02*
X0074573Y0017263D01*
X0074073Y0016762D01*
X0074073Y0017513D01*
X0073822Y0017763D01*
X0073572Y0017763D01*
X0073322Y0017513D01*
X0073322Y0017013D01*
X0073572Y0016762D01*
X0074073Y0016762D01*
X0073322Y0016290D02*
X0073322Y0015289D01*
X0073322Y0015790D02*
X0074823Y0015790D01*
X0074323Y0015289D01*
X0069008Y0021982D02*
X0069508Y0022482D01*
X0068007Y0022482D01*
X0068007Y0021982D02*
X0068007Y0022983D01*
X0068007Y0023455D02*
X0068257Y0023455D01*
X0069258Y0024456D01*
X0069508Y0024456D01*
X0069508Y0023455D01*
X0064981Y0023705D02*
X0064981Y0024206D01*
X0064731Y0024456D01*
X0064480Y0024456D01*
X0064230Y0024206D01*
X0064230Y0023705D01*
X0064480Y0023455D01*
X0064731Y0023455D01*
X0064981Y0023705D01*
X0064230Y0023705D02*
X0063980Y0023455D01*
X0063730Y0023455D01*
X0063480Y0023705D01*
X0063480Y0024206D01*
X0063730Y0024456D01*
X0063980Y0024456D01*
X0064230Y0024206D01*
X0063480Y0022983D02*
X0063480Y0021982D01*
X0063480Y0022482D02*
X0064981Y0022482D01*
X0064480Y0021982D01*
X0060256Y0022679D02*
X0058755Y0022679D01*
X0058755Y0022179D02*
X0058755Y0023180D01*
X0059005Y0023652D02*
X0058755Y0023902D01*
X0058755Y0024403D01*
X0059005Y0024653D01*
X0060006Y0024653D01*
X0060256Y0024403D01*
X0060256Y0023902D01*
X0060006Y0023652D01*
X0059756Y0023652D01*
X0059506Y0023902D01*
X0059506Y0024653D01*
X0060256Y0022679D02*
X0059756Y0022179D01*
X0055926Y0022429D02*
X0055675Y0022179D01*
X0055926Y0022429D02*
X0055926Y0022930D01*
X0055675Y0023180D01*
X0055425Y0023180D01*
X0054424Y0022179D01*
X0054424Y0023180D01*
X0054675Y0023652D02*
X0054424Y0023902D01*
X0054424Y0024403D01*
X0054675Y0024653D01*
X0055675Y0024653D01*
X0054675Y0023652D01*
X0055675Y0023652D01*
X0055926Y0023902D01*
X0055926Y0024403D01*
X0055675Y0024653D01*
X0051004Y0024349D02*
X0049503Y0024349D01*
X0049503Y0023849D02*
X0049503Y0024850D01*
X0050504Y0023849D02*
X0051004Y0024349D01*
X0050754Y0023377D02*
X0051004Y0023126D01*
X0051004Y0022626D01*
X0050754Y0022376D01*
X0050754Y0023377D02*
X0050504Y0023377D01*
X0049503Y0022376D01*
X0049503Y0023377D01*
X0046083Y0022930D02*
X0046083Y0022429D01*
X0045833Y0022179D01*
X0046083Y0022930D02*
X0045833Y0023180D01*
X0045583Y0023180D01*
X0044582Y0022179D01*
X0044582Y0023180D01*
X0044582Y0023652D02*
X0045583Y0024653D01*
X0045833Y0024653D01*
X0046083Y0024403D01*
X0046083Y0023902D01*
X0045833Y0023652D01*
X0044582Y0023652D02*
X0044582Y0024653D01*
X0041359Y0024403D02*
X0041109Y0024653D01*
X0040858Y0024653D01*
X0040608Y0024403D01*
X0040358Y0024653D01*
X0040108Y0024653D01*
X0039857Y0024403D01*
X0039857Y0023902D01*
X0040108Y0023652D01*
X0039857Y0023180D02*
X0039857Y0022179D01*
X0040858Y0023180D01*
X0041109Y0023180D01*
X0041359Y0022930D01*
X0041359Y0022429D01*
X0041109Y0022179D01*
X0041109Y0023652D02*
X0041359Y0023902D01*
X0041359Y0024403D01*
X0040608Y0024403D02*
X0040608Y0024153D01*
X0036438Y0024403D02*
X0035687Y0023652D01*
X0035687Y0024653D01*
X0034936Y0024403D02*
X0036438Y0024403D01*
X0036187Y0023180D02*
X0036438Y0022930D01*
X0036438Y0022429D01*
X0036187Y0022179D01*
X0036187Y0023180D02*
X0035937Y0023180D01*
X0034936Y0022179D01*
X0034936Y0023180D01*
X0032304Y0022834D02*
X0032304Y0022334D01*
X0032053Y0022084D01*
X0032304Y0022834D02*
X0032053Y0023084D01*
X0031803Y0023084D01*
X0030802Y0022084D01*
X0030802Y0023084D01*
X0031553Y0023557D02*
X0031553Y0024558D01*
X0031553Y0025030D02*
X0031553Y0026031D01*
X0031803Y0026031D02*
X0030802Y0026031D01*
X0030802Y0025030D02*
X0031803Y0025030D01*
X0032304Y0025530D01*
X0031803Y0026031D01*
X0032304Y0024307D02*
X0031553Y0023557D01*
X0030802Y0024307D02*
X0032304Y0024307D01*
X0047044Y0011552D02*
X0047044Y0011302D01*
X0047294Y0011052D01*
X0047794Y0011052D01*
X0048045Y0011302D01*
X0048045Y0011552D01*
X0047794Y0011802D01*
X0047294Y0011802D01*
X0047044Y0011552D01*
X0047294Y0011052D02*
X0047044Y0010801D01*
X0047044Y0010551D01*
X0047294Y0010301D01*
X0047794Y0010301D01*
X0048045Y0010551D01*
X0048045Y0010801D01*
X0047794Y0011052D01*
X0048517Y0011552D02*
X0048767Y0011802D01*
X0049268Y0011802D01*
X0049518Y0011552D01*
X0049518Y0010551D01*
X0049268Y0010301D01*
X0048767Y0010301D01*
X0048517Y0010551D01*
X0031213Y0055643D02*
X0031713Y0056144D01*
X0030212Y0056144D01*
X0030212Y0056644D02*
X0030212Y0055643D01*
X0030212Y0057117D02*
X0031213Y0057117D01*
X0031713Y0057617D01*
X0031213Y0058118D01*
X0030212Y0058118D01*
X0030962Y0058118D02*
X0030962Y0057117D01*
X0035527Y0058495D02*
X0035527Y0059496D01*
X0035527Y0058995D02*
X0037028Y0058995D01*
X0036528Y0058495D01*
X0040251Y0058298D02*
X0041252Y0059299D01*
X0041502Y0059299D01*
X0041752Y0059048D01*
X0041752Y0058548D01*
X0041502Y0058298D01*
X0040251Y0058298D02*
X0040251Y0059299D01*
X0074306Y0065044D02*
X0074306Y0065545D01*
X0074557Y0065795D01*
X0075557Y0065795D01*
X0075808Y0065545D01*
X0075808Y0065044D01*
X0075557Y0064794D01*
X0075307Y0064794D01*
X0075057Y0065044D01*
X0075057Y0065795D01*
X0074306Y0065044D02*
X0074557Y0064794D01*
X0075094Y0058314D02*
X0076095Y0058314D01*
X0076595Y0057814D01*
X0076095Y0057314D01*
X0075094Y0057314D01*
X0075344Y0056841D02*
X0076345Y0056841D01*
X0076595Y0056591D01*
X0076595Y0056091D01*
X0076345Y0055840D01*
X0076095Y0055840D01*
X0075844Y0056091D01*
X0075844Y0056841D01*
X0075844Y0057314D02*
X0075844Y0058314D01*
X0075344Y0056841D02*
X0075094Y0056591D01*
X0075094Y0056091D01*
X0075344Y0055840D01*
X0090162Y0079898D02*
X0089912Y0080148D01*
X0089912Y0080649D01*
X0090162Y0080899D01*
X0090413Y0080899D01*
X0090913Y0080649D01*
X0090913Y0081399D01*
X0089912Y0081399D01*
X0091386Y0081149D02*
X0091386Y0080148D01*
X0091636Y0079898D01*
X0092386Y0079898D01*
X0092386Y0081399D01*
X0091636Y0081399D01*
X0091386Y0081149D01*
X0090913Y0080148D02*
X0090663Y0079898D01*
X0090162Y0079898D01*
X0092859Y0079898D02*
X0093860Y0079898D01*
X0093860Y0081399D01*
X0092859Y0081399D01*
X0093359Y0080649D02*
X0093860Y0080649D01*
X0094332Y0079898D02*
X0095333Y0079898D01*
X0095333Y0081399D01*
X0099798Y0098757D02*
X0101299Y0098757D01*
X0101299Y0099508D01*
X0101049Y0099758D01*
X0100548Y0099758D01*
X0100298Y0099508D01*
X0100298Y0098757D01*
X0100298Y0099258D02*
X0099798Y0099758D01*
X0099798Y0100231D02*
X0099798Y0101231D01*
X0099798Y0100731D02*
X0101299Y0100731D01*
X0100798Y0100231D01*
X0100548Y0101704D02*
X0100048Y0101704D01*
X0099798Y0101954D01*
X0099798Y0102454D01*
X0100048Y0102705D01*
X0100298Y0102705D01*
X0100548Y0102454D01*
X0100548Y0101704D01*
X0101049Y0102204D01*
X0101299Y0102705D01*
X0109643Y0112885D02*
X0111145Y0112885D01*
X0111145Y0113636D01*
X0110895Y0113886D01*
X0110394Y0113886D01*
X0110144Y0113636D01*
X0110144Y0112885D01*
X0110144Y0113385D02*
X0109643Y0113886D01*
X0109643Y0114358D02*
X0109643Y0115359D01*
X0109643Y0114859D02*
X0111145Y0114859D01*
X0110644Y0114358D01*
X0110394Y0115831D02*
X0110644Y0116332D01*
X0110644Y0116582D01*
X0110394Y0116832D01*
X0109894Y0116832D01*
X0109643Y0116582D01*
X0109643Y0116082D01*
X0109894Y0115831D01*
X0110394Y0115831D02*
X0111145Y0115831D01*
X0111145Y0116832D01*
X0111666Y0117665D02*
X0110165Y0117665D01*
X0110165Y0118666D01*
X0110165Y0119138D02*
X0110165Y0120139D01*
X0110165Y0120611D02*
X0110165Y0121362D01*
X0110415Y0121612D01*
X0111416Y0121612D01*
X0111666Y0121362D01*
X0111666Y0120611D01*
X0110165Y0120611D01*
X0110916Y0119638D02*
X0110916Y0119138D01*
X0111666Y0119138D02*
X0110165Y0119138D01*
X0111666Y0119138D02*
X0111666Y0120139D01*
X0110916Y0122085D02*
X0110415Y0122085D01*
X0110165Y0122335D01*
X0110165Y0122835D01*
X0110415Y0123085D01*
X0110666Y0123085D01*
X0110916Y0122835D01*
X0110916Y0122085D01*
X0111416Y0122585D01*
X0111666Y0123085D01*
X0102547Y0127064D02*
X0102547Y0127815D01*
X0102297Y0128065D01*
X0101797Y0128065D01*
X0101546Y0127815D01*
X0101546Y0127064D01*
X0101046Y0127064D02*
X0102547Y0127064D01*
X0101546Y0127565D02*
X0101046Y0128065D01*
X0101046Y0128537D02*
X0101046Y0129538D01*
X0101046Y0129038D02*
X0102547Y0129038D01*
X0102047Y0128537D01*
X0101797Y0130011D02*
X0101797Y0131012D01*
X0102547Y0130761D02*
X0101797Y0130011D01*
X0102547Y0130761D02*
X0101046Y0130761D01*
X0108566Y0134946D02*
X0108566Y0136447D01*
X0109317Y0135696D01*
X0108316Y0135696D01*
X0109789Y0135196D02*
X0109789Y0136197D01*
X0110039Y0136447D01*
X0110790Y0136447D01*
X0110790Y0134946D01*
X0110039Y0134946D01*
X0109789Y0135196D01*
X0111262Y0134946D02*
X0112263Y0134946D01*
X0112263Y0136447D01*
X0111262Y0136447D01*
X0111763Y0135696D02*
X0112263Y0135696D01*
X0112736Y0134946D02*
X0113737Y0134946D01*
X0113737Y0136447D01*
X0076867Y0131871D02*
X0076367Y0131371D01*
X0075366Y0131371D01*
X0075616Y0130898D02*
X0076617Y0130898D01*
X0076867Y0130648D01*
X0076867Y0130148D01*
X0076617Y0129897D01*
X0076367Y0129897D01*
X0076116Y0130148D01*
X0076116Y0130898D01*
X0076116Y0131371D02*
X0076116Y0132371D01*
X0076367Y0132371D02*
X0075366Y0132371D01*
X0076367Y0132371D02*
X0076867Y0131871D01*
X0075616Y0130898D02*
X0075366Y0130648D01*
X0075366Y0130148D01*
X0075616Y0129897D01*
X0075579Y0138851D02*
X0075329Y0139101D01*
X0075329Y0139852D01*
X0074829Y0139852D02*
X0075829Y0139852D01*
X0076080Y0139602D01*
X0076080Y0139101D01*
X0075829Y0138851D01*
X0075579Y0138851D01*
X0074829Y0138851D02*
X0074578Y0139101D01*
X0074578Y0139602D01*
X0074829Y0139852D01*
X0096821Y0055986D02*
X0097071Y0055986D01*
X0097321Y0055736D01*
X0097321Y0054985D01*
X0096821Y0054985D01*
X0096570Y0055236D01*
X0096570Y0055736D01*
X0096821Y0055986D01*
X0097821Y0055486D02*
X0097321Y0054985D01*
X0097321Y0054513D02*
X0097071Y0054263D01*
X0097071Y0053512D01*
X0096570Y0053512D02*
X0098072Y0053512D01*
X0098072Y0054263D01*
X0097821Y0054513D01*
X0097321Y0054513D01*
X0097071Y0054013D02*
X0096570Y0054513D01*
X0097821Y0055486D02*
X0098072Y0055986D01*
X0106904Y0056160D02*
X0106904Y0055159D01*
X0106904Y0055659D02*
X0108405Y0055659D01*
X0107905Y0055159D01*
X0108155Y0054686D02*
X0108405Y0054436D01*
X0108405Y0053685D01*
X0106904Y0053685D01*
X0106904Y0054436D01*
X0107154Y0054686D01*
X0108155Y0054686D01*
X0108405Y0053213D02*
X0108405Y0052212D01*
X0106904Y0052212D01*
X0106904Y0053213D01*
X0107655Y0052713D02*
X0107655Y0052212D01*
X0106904Y0051740D02*
X0106904Y0050739D01*
X0108405Y0050739D01*
X0108138Y0038175D02*
X0107887Y0038175D01*
X0106887Y0037174D01*
X0106887Y0038175D01*
X0108138Y0038175D02*
X0108388Y0037925D01*
X0108388Y0037424D01*
X0108138Y0037174D01*
X0108138Y0036702D02*
X0108388Y0036452D01*
X0108388Y0035701D01*
X0106887Y0035701D01*
X0106887Y0036452D01*
X0107137Y0036702D01*
X0108138Y0036702D01*
X0108388Y0035229D02*
X0108388Y0034228D01*
X0106887Y0034228D01*
X0106887Y0035229D01*
X0107637Y0034728D02*
X0107637Y0034228D01*
X0106887Y0033755D02*
X0106887Y0032754D01*
X0108388Y0032754D01*
X0097998Y0035656D02*
X0097998Y0036407D01*
X0097747Y0036657D01*
X0097247Y0036657D01*
X0096997Y0036407D01*
X0096997Y0035656D01*
X0096496Y0035656D02*
X0097998Y0035656D01*
X0096997Y0036157D02*
X0096496Y0036657D01*
X0096496Y0037130D02*
X0096747Y0037130D01*
X0097747Y0038131D01*
X0097998Y0038131D01*
X0097998Y0037130D01*
X0097012Y0026942D02*
X0096762Y0026942D01*
X0096511Y0026692D01*
X0096511Y0026191D01*
X0096762Y0025941D01*
X0097012Y0025941D01*
X0097262Y0026191D01*
X0097262Y0026692D01*
X0097012Y0026942D01*
X0096511Y0026692D02*
X0096261Y0026942D01*
X0096011Y0026942D01*
X0095761Y0026692D01*
X0095761Y0026191D01*
X0096011Y0025941D01*
X0096261Y0025941D01*
X0096511Y0026191D01*
X0096511Y0025469D02*
X0096261Y0025218D01*
X0096261Y0024468D01*
X0096261Y0024968D02*
X0095761Y0025469D01*
X0096511Y0025469D02*
X0097012Y0025469D01*
X0097262Y0025218D01*
X0097262Y0024468D01*
X0095761Y0024468D01*
X0102655Y0008431D02*
X0102405Y0008181D01*
X0102405Y0007930D01*
X0102655Y0007680D01*
X0102405Y0007430D01*
X0102405Y0007180D01*
X0102655Y0006930D01*
X0103156Y0006930D01*
X0103406Y0007180D01*
X0103879Y0007180D02*
X0103879Y0008181D01*
X0104129Y0008431D01*
X0104879Y0008431D01*
X0104879Y0006930D01*
X0104129Y0006930D01*
X0103879Y0007180D01*
X0102906Y0007680D02*
X0102655Y0007680D01*
X0102655Y0008431D02*
X0103156Y0008431D01*
X0103406Y0008181D01*
X0105352Y0008431D02*
X0106353Y0008431D01*
X0106353Y0006930D01*
X0105352Y0006930D01*
X0105852Y0007680D02*
X0106353Y0007680D01*
X0106825Y0006930D02*
X0107826Y0006930D01*
X0107826Y0008431D01*
D15*
X0104021Y0014314D03*
X0104021Y0020114D03*
X0102040Y0032673D03*
X0102040Y0038473D03*
X0112431Y0038518D03*
X0112431Y0032718D03*
X0112448Y0050702D03*
X0112448Y0056502D03*
X0102114Y0056329D03*
X0102114Y0050529D03*
X0091717Y0030297D03*
X0091717Y0024497D03*
X0094956Y0097603D03*
X0094956Y0103403D03*
X0105599Y0112914D03*
X0105599Y0118714D03*
X0115996Y0118835D03*
X0115996Y0113035D03*
X0097688Y0131009D03*
X0097688Y0136809D03*
D16*
X0109056Y0130519D03*
X0114856Y0130519D03*
X0100954Y0085579D03*
X0095154Y0085579D03*
M02*
