G75*
%MOIN*%
%OFA0B0*%
%FSLAX25Y25*%
%IPPOS*%
%LPD*%
%AMOC8*
5,1,8,0,0,1.08239X$1,22.5*
%
%ADD10C,0.00000*%
%ADD11R,0.03150X0.05906*%
%ADD12R,0.05906X0.03150*%
%ADD13C,0.03937*%
%ADD14C,0.03937*%
%ADD15R,0.05512X0.04331*%
%ADD16R,0.05118X0.05906*%
%ADD17R,0.05000X0.10000*%
%ADD18R,0.10000X0.05000*%
%ADD19R,0.04331X0.05512*%
D10*
X0020728Y0001000D02*
X0020675Y0152867D01*
X0125931Y0152769D01*
X0125743Y0001103D01*
X0020728Y0001000D01*
D11*
X0035108Y0019760D03*
X0039833Y0019760D03*
X0044557Y0019760D03*
X0049281Y0019760D03*
X0054006Y0019760D03*
X0058730Y0019760D03*
X0063455Y0019760D03*
X0068179Y0019760D03*
X0068179Y0063068D03*
X0063455Y0063068D03*
X0058730Y0063068D03*
X0054006Y0063068D03*
X0049281Y0063068D03*
X0044557Y0063068D03*
X0039833Y0063068D03*
X0035108Y0063068D03*
X0035380Y0093817D03*
X0040105Y0093817D03*
X0044829Y0093817D03*
X0049554Y0093817D03*
X0054278Y0093817D03*
X0059002Y0093817D03*
X0063727Y0093817D03*
X0068451Y0093817D03*
X0068451Y0137125D03*
X0063727Y0137125D03*
X0059002Y0137125D03*
X0054278Y0137125D03*
X0049554Y0137125D03*
X0044829Y0137125D03*
X0040105Y0137125D03*
X0035380Y0137125D03*
D12*
X0077309Y0127282D03*
X0077309Y0122558D03*
X0077309Y0117833D03*
X0077309Y0113109D03*
X0077309Y0108384D03*
X0077309Y0103660D03*
X0077037Y0053225D03*
X0077037Y0048501D03*
X0077037Y0043776D03*
X0077037Y0039052D03*
X0077037Y0034327D03*
X0077037Y0029603D03*
D13*
X0074873Y0021926D02*
X0073297Y0021926D01*
X0074873Y0021926D02*
X0074873Y0021926D01*
X0073297Y0021926D01*
X0073297Y0021926D01*
X0073297Y0060902D02*
X0074873Y0060902D01*
X0074873Y0060902D01*
X0073297Y0060902D01*
X0073297Y0060902D01*
X0073569Y0095983D02*
X0075145Y0095983D01*
X0075145Y0095983D01*
X0073569Y0095983D01*
X0073569Y0095983D01*
X0073569Y0134959D02*
X0075145Y0134959D01*
X0075145Y0134959D01*
X0073569Y0134959D01*
X0073569Y0134959D01*
X0029475Y0134959D02*
X0027113Y0134959D01*
X0029475Y0134959D02*
X0029475Y0134959D01*
X0027113Y0134959D01*
X0027113Y0134959D01*
X0027113Y0095983D02*
X0029475Y0095983D01*
X0029475Y0095983D01*
X0027113Y0095983D01*
X0027113Y0095983D01*
X0026841Y0060902D02*
X0029203Y0060902D01*
X0029203Y0060902D01*
X0026841Y0060902D01*
X0026841Y0060902D01*
X0026841Y0021926D02*
X0029203Y0021926D01*
X0029203Y0021926D01*
X0026841Y0021926D01*
X0026841Y0021926D01*
D14*
X0078612Y0018186D03*
X0078415Y0065036D03*
X0078884Y0092243D03*
X0078687Y0139093D03*
D15*
X0097694Y0137825D03*
X0097694Y0129951D03*
X0105593Y0119772D03*
X0105593Y0111898D03*
X0116002Y0111978D03*
X0116002Y0119852D03*
X0094950Y0104460D03*
X0094950Y0096586D03*
X0102120Y0057346D03*
X0102120Y0049472D03*
X0102046Y0039490D03*
X0102046Y0031616D03*
X0104015Y0021171D03*
X0104015Y0013297D03*
X0091711Y0023481D03*
X0091711Y0031355D03*
X0112437Y0031661D03*
X0112437Y0039535D03*
X0112454Y0049645D03*
X0112454Y0057519D03*
D16*
X0044522Y0081188D03*
X0037829Y0081188D03*
X0038891Y0006021D03*
X0045584Y0006021D03*
D17*
X0084622Y0027976D03*
X0093811Y0009652D03*
X0089504Y0064435D03*
X0085902Y0084215D03*
X0085673Y0102043D03*
X0086251Y0137567D03*
D18*
X0088198Y0112520D03*
X0075956Y0082750D03*
X0044416Y0070146D03*
X0029593Y0070010D03*
X0083291Y0008007D03*
X0086906Y0038743D03*
X0044811Y0144960D03*
X0028398Y0145010D03*
D19*
X0094137Y0085584D03*
X0102011Y0085584D03*
X0107998Y0130513D03*
X0115872Y0130513D03*
M02*
