G75*
%MOIN*%
%OFA0B0*%
%FSLAX25Y25*%
%IPPOS*%
%LPD*%
%AMOC8*
5,1,8,0,0,1.08239X$1,22.5*
%
%ADD10C,0.00000*%
%ADD11R,0.05118X0.05906*%
%ADD12R,0.02500X0.03937*%
%ADD13R,0.02362X0.03937*%
%ADD14R,0.03937X0.02362*%
%ADD15R,0.04331X0.05512*%
%ADD16R,0.03150X0.01378*%
%ADD17R,0.09843X0.09843*%
%ADD18R,0.01378X0.03150*%
%ADD19R,0.05512X0.04331*%
%ADD20R,0.05906X0.05118*%
%ADD21OC8,0.06000*%
%ADD22R,0.05000X0.10000*%
%ADD23R,0.10000X0.05000*%
%ADD24C,0.00236*%
%ADD25C,0.00886*%
%ADD26C,0.01200*%
%ADD27C,0.01000*%
%ADD28C,0.00600*%
%ADD29C,0.05000*%
%ADD30C,0.02400*%
D10*
X0020728Y0001000D02*
X0020675Y0152867D01*
X0125931Y0152769D01*
X0125743Y0001103D01*
X0020728Y0001000D01*
D11*
X0065335Y0054908D03*
X0072027Y0054908D03*
X0074307Y0044989D03*
X0067614Y0044989D03*
X0067614Y0034989D03*
X0074307Y0034989D03*
X0107614Y0054989D03*
X0114307Y0054989D03*
X0099602Y0089004D03*
X0092909Y0089004D03*
X0092919Y0098953D03*
X0099612Y0098953D03*
X0070724Y0093529D03*
X0064031Y0093529D03*
D12*
X0079781Y0056468D03*
D13*
X0082931Y0056468D03*
X0086080Y0056468D03*
X0089230Y0056468D03*
X0092380Y0056468D03*
X0095529Y0056468D03*
X0095529Y0065130D03*
X0092380Y0065130D03*
X0089230Y0065130D03*
X0086080Y0065130D03*
X0082931Y0065130D03*
X0079781Y0065130D03*
D14*
X0079781Y0060799D03*
X0095529Y0060799D03*
D15*
X0094897Y0044989D03*
X0087023Y0044989D03*
X0087023Y0034989D03*
X0094897Y0034989D03*
X0107023Y0034989D03*
X0114897Y0034989D03*
X0114897Y0044989D03*
X0107023Y0044989D03*
D16*
X0048381Y0108514D03*
X0048381Y0111073D03*
X0048381Y0113632D03*
X0048381Y0116191D03*
X0032633Y0116191D03*
X0032633Y0113632D03*
X0032633Y0111073D03*
X0032633Y0108514D03*
X0032242Y0042238D03*
X0032242Y0039678D03*
X0032242Y0037119D03*
X0032242Y0034560D03*
X0047990Y0034560D03*
X0047990Y0037119D03*
X0047990Y0039678D03*
X0047990Y0042238D03*
D17*
X0040116Y0038399D03*
X0040507Y0112353D03*
D18*
X0041786Y0120227D03*
X0039227Y0120227D03*
X0036668Y0120227D03*
X0044345Y0120227D03*
X0044345Y0104479D03*
X0041786Y0104479D03*
X0039227Y0104479D03*
X0036668Y0104479D03*
X0036277Y0046273D03*
X0038836Y0046273D03*
X0041396Y0046273D03*
X0043955Y0046273D03*
X0043955Y0030525D03*
X0041396Y0030525D03*
X0038836Y0030525D03*
X0036277Y0030525D03*
D19*
X0054310Y0058684D03*
X0054310Y0066558D03*
X0085638Y0108257D03*
X0085638Y0116131D03*
X0087254Y0134200D03*
X0087254Y0142074D03*
X0077537Y0141992D03*
X0077537Y0134118D03*
X0067853Y0134129D03*
X0067853Y0142003D03*
X0052583Y0136584D03*
X0052583Y0128710D03*
X0096847Y0134173D03*
X0096847Y0142047D03*
X0103589Y0115783D03*
X0103589Y0107909D03*
D20*
X0081528Y0098474D03*
X0081528Y0091781D03*
X0043849Y0065943D03*
X0043849Y0059250D03*
X0041805Y0129623D03*
X0041805Y0136316D03*
D21*
X0030300Y0084072D03*
X0054176Y0083618D03*
X0065132Y0083984D03*
X0104434Y0066804D03*
X0115292Y0066816D03*
X0115939Y0083988D03*
X0116168Y0094892D03*
X0118181Y0145270D03*
X0106971Y0145161D03*
X0115022Y0021425D03*
X0114926Y0010543D03*
X0064435Y0009706D03*
X0053419Y0009599D03*
X0029365Y0009036D03*
D22*
X0039484Y0009269D03*
X0028276Y0052355D03*
X0033154Y0064268D03*
X0040261Y0083818D03*
X0027554Y0127327D03*
X0031753Y0139185D03*
D23*
X0033709Y0093720D03*
X0033934Y0019728D03*
D24*
X0065467Y0104644D02*
X0065467Y0106376D01*
X0065467Y0104644D02*
X0064523Y0104644D01*
X0064523Y0106376D01*
X0065467Y0106376D01*
X0065467Y0104879D02*
X0064523Y0104879D01*
X0064523Y0105114D02*
X0065467Y0105114D01*
X0065467Y0105349D02*
X0064523Y0105349D01*
X0064523Y0105584D02*
X0065467Y0105584D01*
X0065467Y0105819D02*
X0064523Y0105819D01*
X0064523Y0106054D02*
X0065467Y0106054D01*
X0065467Y0106289D02*
X0064523Y0106289D01*
X0063893Y0107007D02*
X0062161Y0107007D01*
X0062161Y0107951D01*
X0063893Y0107951D01*
X0063893Y0107007D01*
X0063893Y0107242D02*
X0062161Y0107242D01*
X0062161Y0107477D02*
X0063893Y0107477D01*
X0063893Y0107712D02*
X0062161Y0107712D01*
X0062161Y0107947D02*
X0063893Y0107947D01*
X0064089Y0108975D02*
X0062161Y0108975D01*
X0062161Y0109919D01*
X0064089Y0109919D01*
X0064089Y0108975D01*
X0064089Y0109210D02*
X0062161Y0109210D01*
X0062161Y0109445D02*
X0064089Y0109445D01*
X0064089Y0109680D02*
X0062161Y0109680D01*
X0062161Y0109915D02*
X0064089Y0109915D01*
X0064089Y0110944D02*
X0062161Y0110944D01*
X0062161Y0111888D01*
X0064089Y0111888D01*
X0064089Y0110944D01*
X0064089Y0111179D02*
X0062161Y0111179D01*
X0062161Y0111414D02*
X0064089Y0111414D01*
X0064089Y0111649D02*
X0062161Y0111649D01*
X0062161Y0111884D02*
X0064089Y0111884D01*
X0064089Y0112912D02*
X0062161Y0112912D01*
X0062161Y0113856D01*
X0064089Y0113856D01*
X0064089Y0112912D01*
X0064089Y0113147D02*
X0062161Y0113147D01*
X0062161Y0113382D02*
X0064089Y0113382D01*
X0064089Y0113617D02*
X0062161Y0113617D01*
X0062161Y0113852D02*
X0064089Y0113852D01*
X0064089Y0114881D02*
X0062161Y0114881D01*
X0062161Y0115825D01*
X0064089Y0115825D01*
X0064089Y0114881D01*
X0064089Y0115116D02*
X0062161Y0115116D01*
X0062161Y0115351D02*
X0064089Y0115351D01*
X0064089Y0115586D02*
X0062161Y0115586D01*
X0062161Y0115821D02*
X0064089Y0115821D01*
X0063893Y0116849D02*
X0062161Y0116849D01*
X0062161Y0117793D01*
X0063893Y0117793D01*
X0063893Y0116849D01*
X0063893Y0117084D02*
X0062161Y0117084D01*
X0062161Y0117319D02*
X0063893Y0117319D01*
X0063893Y0117554D02*
X0062161Y0117554D01*
X0062161Y0117789D02*
X0063893Y0117789D01*
X0064523Y0118424D02*
X0064523Y0120156D01*
X0065467Y0120156D01*
X0065467Y0118424D01*
X0064523Y0118424D01*
X0064523Y0118659D02*
X0065467Y0118659D01*
X0065467Y0118894D02*
X0064523Y0118894D01*
X0064523Y0119129D02*
X0065467Y0119129D01*
X0065467Y0119364D02*
X0064523Y0119364D01*
X0064523Y0119599D02*
X0065467Y0119599D01*
X0065467Y0119834D02*
X0064523Y0119834D01*
X0064523Y0120069D02*
X0065467Y0120069D01*
X0066492Y0120155D02*
X0066492Y0118227D01*
X0066492Y0120155D02*
X0067436Y0120155D01*
X0067436Y0118227D01*
X0066492Y0118227D01*
X0066492Y0118462D02*
X0067436Y0118462D01*
X0067436Y0118697D02*
X0066492Y0118697D01*
X0066492Y0118932D02*
X0067436Y0118932D01*
X0067436Y0119167D02*
X0066492Y0119167D01*
X0066492Y0119402D02*
X0067436Y0119402D01*
X0067436Y0119637D02*
X0066492Y0119637D01*
X0066492Y0119872D02*
X0067436Y0119872D01*
X0067436Y0120107D02*
X0066492Y0120107D01*
X0068460Y0120155D02*
X0068460Y0118227D01*
X0068460Y0120155D02*
X0069404Y0120155D01*
X0069404Y0118227D01*
X0068460Y0118227D01*
X0068460Y0118462D02*
X0069404Y0118462D01*
X0069404Y0118697D02*
X0068460Y0118697D01*
X0068460Y0118932D02*
X0069404Y0118932D01*
X0069404Y0119167D02*
X0068460Y0119167D01*
X0068460Y0119402D02*
X0069404Y0119402D01*
X0069404Y0119637D02*
X0068460Y0119637D01*
X0068460Y0119872D02*
X0069404Y0119872D01*
X0069404Y0120107D02*
X0068460Y0120107D01*
X0070429Y0120155D02*
X0070429Y0118227D01*
X0070429Y0120155D02*
X0071373Y0120155D01*
X0071373Y0118227D01*
X0070429Y0118227D01*
X0070429Y0118462D02*
X0071373Y0118462D01*
X0071373Y0118697D02*
X0070429Y0118697D01*
X0070429Y0118932D02*
X0071373Y0118932D01*
X0071373Y0119167D02*
X0070429Y0119167D01*
X0070429Y0119402D02*
X0071373Y0119402D01*
X0071373Y0119637D02*
X0070429Y0119637D01*
X0070429Y0119872D02*
X0071373Y0119872D01*
X0071373Y0120107D02*
X0070429Y0120107D01*
X0072397Y0120155D02*
X0072397Y0118227D01*
X0072397Y0120155D02*
X0073341Y0120155D01*
X0073341Y0118227D01*
X0072397Y0118227D01*
X0072397Y0118462D02*
X0073341Y0118462D01*
X0073341Y0118697D02*
X0072397Y0118697D01*
X0072397Y0118932D02*
X0073341Y0118932D01*
X0073341Y0119167D02*
X0072397Y0119167D01*
X0072397Y0119402D02*
X0073341Y0119402D01*
X0073341Y0119637D02*
X0072397Y0119637D01*
X0072397Y0119872D02*
X0073341Y0119872D01*
X0073341Y0120107D02*
X0072397Y0120107D01*
X0074366Y0120156D02*
X0074366Y0118424D01*
X0074366Y0120156D02*
X0075310Y0120156D01*
X0075310Y0118424D01*
X0074366Y0118424D01*
X0074366Y0118659D02*
X0075310Y0118659D01*
X0075310Y0118894D02*
X0074366Y0118894D01*
X0074366Y0119129D02*
X0075310Y0119129D01*
X0075310Y0119364D02*
X0074366Y0119364D01*
X0074366Y0119599D02*
X0075310Y0119599D01*
X0075310Y0119834D02*
X0074366Y0119834D01*
X0074366Y0120069D02*
X0075310Y0120069D01*
X0075940Y0117793D02*
X0077672Y0117793D01*
X0077672Y0116849D01*
X0075940Y0116849D01*
X0075940Y0117793D01*
X0075940Y0117084D02*
X0077672Y0117084D01*
X0077672Y0117319D02*
X0075940Y0117319D01*
X0075940Y0117554D02*
X0077672Y0117554D01*
X0077672Y0117789D02*
X0075940Y0117789D01*
X0075744Y0115825D02*
X0077672Y0115825D01*
X0077672Y0114881D01*
X0075744Y0114881D01*
X0075744Y0115825D01*
X0075744Y0115116D02*
X0077672Y0115116D01*
X0077672Y0115351D02*
X0075744Y0115351D01*
X0075744Y0115586D02*
X0077672Y0115586D01*
X0077672Y0115821D02*
X0075744Y0115821D01*
X0075744Y0113856D02*
X0077672Y0113856D01*
X0077672Y0112912D01*
X0075744Y0112912D01*
X0075744Y0113856D01*
X0075744Y0113147D02*
X0077672Y0113147D01*
X0077672Y0113382D02*
X0075744Y0113382D01*
X0075744Y0113617D02*
X0077672Y0113617D01*
X0077672Y0113852D02*
X0075744Y0113852D01*
X0075744Y0111888D02*
X0077672Y0111888D01*
X0077672Y0110944D01*
X0075744Y0110944D01*
X0075744Y0111888D01*
X0075744Y0111179D02*
X0077672Y0111179D01*
X0077672Y0111414D02*
X0075744Y0111414D01*
X0075744Y0111649D02*
X0077672Y0111649D01*
X0077672Y0111884D02*
X0075744Y0111884D01*
X0075744Y0109919D02*
X0077672Y0109919D01*
X0077672Y0108975D01*
X0075744Y0108975D01*
X0075744Y0109919D01*
X0075744Y0109210D02*
X0077672Y0109210D01*
X0077672Y0109445D02*
X0075744Y0109445D01*
X0075744Y0109680D02*
X0077672Y0109680D01*
X0077672Y0109915D02*
X0075744Y0109915D01*
X0075940Y0107951D02*
X0077672Y0107951D01*
X0077672Y0107007D01*
X0075940Y0107007D01*
X0075940Y0107951D01*
X0075940Y0107242D02*
X0077672Y0107242D01*
X0077672Y0107477D02*
X0075940Y0107477D01*
X0075940Y0107712D02*
X0077672Y0107712D01*
X0077672Y0107947D02*
X0075940Y0107947D01*
X0075310Y0106376D02*
X0075310Y0104644D01*
X0074366Y0104644D01*
X0074366Y0106376D01*
X0075310Y0106376D01*
X0075310Y0104879D02*
X0074366Y0104879D01*
X0074366Y0105114D02*
X0075310Y0105114D01*
X0075310Y0105349D02*
X0074366Y0105349D01*
X0074366Y0105584D02*
X0075310Y0105584D01*
X0075310Y0105819D02*
X0074366Y0105819D01*
X0074366Y0106054D02*
X0075310Y0106054D01*
X0075310Y0106289D02*
X0074366Y0106289D01*
X0073341Y0106573D02*
X0073341Y0104645D01*
X0072397Y0104645D01*
X0072397Y0106573D01*
X0073341Y0106573D01*
X0073341Y0104880D02*
X0072397Y0104880D01*
X0072397Y0105115D02*
X0073341Y0105115D01*
X0073341Y0105350D02*
X0072397Y0105350D01*
X0072397Y0105585D02*
X0073341Y0105585D01*
X0073341Y0105820D02*
X0072397Y0105820D01*
X0072397Y0106055D02*
X0073341Y0106055D01*
X0073341Y0106290D02*
X0072397Y0106290D01*
X0072397Y0106525D02*
X0073341Y0106525D01*
X0071373Y0106573D02*
X0071373Y0104645D01*
X0070429Y0104645D01*
X0070429Y0106573D01*
X0071373Y0106573D01*
X0071373Y0104880D02*
X0070429Y0104880D01*
X0070429Y0105115D02*
X0071373Y0105115D01*
X0071373Y0105350D02*
X0070429Y0105350D01*
X0070429Y0105585D02*
X0071373Y0105585D01*
X0071373Y0105820D02*
X0070429Y0105820D01*
X0070429Y0106055D02*
X0071373Y0106055D01*
X0071373Y0106290D02*
X0070429Y0106290D01*
X0070429Y0106525D02*
X0071373Y0106525D01*
X0069404Y0106573D02*
X0069404Y0104645D01*
X0068460Y0104645D01*
X0068460Y0106573D01*
X0069404Y0106573D01*
X0069404Y0104880D02*
X0068460Y0104880D01*
X0068460Y0105115D02*
X0069404Y0105115D01*
X0069404Y0105350D02*
X0068460Y0105350D01*
X0068460Y0105585D02*
X0069404Y0105585D01*
X0069404Y0105820D02*
X0068460Y0105820D01*
X0068460Y0106055D02*
X0069404Y0106055D01*
X0069404Y0106290D02*
X0068460Y0106290D01*
X0068460Y0106525D02*
X0069404Y0106525D01*
X0067436Y0106573D02*
X0067436Y0104645D01*
X0066492Y0104645D01*
X0066492Y0106573D01*
X0067436Y0106573D01*
X0067436Y0104880D02*
X0066492Y0104880D01*
X0066492Y0105115D02*
X0067436Y0105115D01*
X0067436Y0105350D02*
X0066492Y0105350D01*
X0066492Y0105585D02*
X0067436Y0105585D01*
X0067436Y0105820D02*
X0066492Y0105820D01*
X0066492Y0106055D02*
X0067436Y0106055D01*
X0067436Y0106290D02*
X0066492Y0106290D01*
X0066492Y0106525D02*
X0067436Y0106525D01*
D25*
X0065931Y0108414D02*
X0073903Y0108414D01*
X0065931Y0108414D02*
X0065931Y0116386D01*
X0073903Y0116386D01*
X0073903Y0108414D01*
X0073903Y0109299D02*
X0065931Y0109299D01*
X0065931Y0110184D02*
X0073903Y0110184D01*
X0073903Y0111069D02*
X0065931Y0111069D01*
X0065931Y0111954D02*
X0073903Y0111954D01*
X0073903Y0112839D02*
X0065931Y0112839D01*
X0065931Y0113724D02*
X0073903Y0113724D01*
X0073903Y0114609D02*
X0065931Y0114609D01*
X0065931Y0115494D02*
X0073903Y0115494D01*
X0073903Y0116379D02*
X0065931Y0116379D01*
D26*
X0066964Y0119191D02*
X0066960Y0123651D01*
X0075463Y0132033D01*
X0077537Y0134118D01*
X0077537Y0141992D02*
X0087254Y0142074D01*
X0096847Y0142047D01*
X0100213Y0139243D01*
X0118851Y0139319D01*
X0118930Y0144679D01*
X0118181Y0145270D01*
X0121112Y0149937D02*
X0123259Y0147925D01*
X0123086Y0091327D01*
X0115939Y0083988D01*
X0116106Y0080667D01*
X0111587Y0076340D01*
X0049393Y0076448D01*
X0044374Y0081477D01*
X0044441Y0082377D01*
X0044345Y0104479D01*
X0046622Y0103870D02*
X0046608Y0082895D01*
X0050614Y0078774D01*
X0103207Y0078808D01*
X0109727Y0085291D01*
X0109739Y0088494D01*
X0116168Y0094892D01*
X0120445Y0099338D01*
X0120309Y0128913D01*
X0114919Y0134323D01*
X0096847Y0134173D01*
X0096717Y0130771D01*
X0089644Y0123712D01*
X0073152Y0123736D01*
X0070893Y0121464D01*
X0070901Y0119191D01*
X0068932Y0119191D02*
X0068943Y0122575D01*
X0072268Y0125823D01*
X0082131Y0125823D01*
X0087265Y0130810D01*
X0087254Y0134200D01*
X0077537Y0141992D02*
X0067853Y0142003D01*
X0062646Y0146328D02*
X0062765Y0135417D01*
X0065183Y0133070D01*
X0067853Y0134129D01*
X0065183Y0133070D02*
X0064995Y0119290D01*
X0063125Y0115353D02*
X0061066Y0115356D01*
X0059276Y0117137D01*
X0059250Y0118958D01*
X0054496Y0123728D01*
X0048633Y0123718D01*
X0044997Y0127503D01*
X0041805Y0129623D01*
X0044198Y0127033D01*
X0044345Y0120227D01*
X0048381Y0116191D02*
X0053954Y0116113D01*
X0055612Y0114455D01*
X0053584Y0117797D01*
X0055612Y0114455D02*
X0058571Y0111496D01*
X0060279Y0109800D01*
X0060279Y0105760D01*
X0058508Y0103988D01*
X0058485Y0090641D01*
X0058455Y0085042D01*
X0059529Y0083885D01*
X0065132Y0083984D01*
X0065276Y0089108D02*
X0064060Y0090308D01*
X0064031Y0093529D01*
X0063013Y0095744D01*
X0063013Y0101939D01*
X0063027Y0107479D01*
X0063125Y0109447D01*
X0063125Y0111416D01*
X0063125Y0113384D01*
X0063125Y0115353D01*
X0055706Y0110202D02*
X0055645Y0085107D01*
X0054176Y0083618D01*
X0049052Y0071801D02*
X0035144Y0071763D01*
X0028651Y0071781D01*
X0023774Y0066962D01*
X0023820Y0058168D01*
X0023769Y0047361D01*
X0023793Y0044185D01*
X0023875Y0037110D01*
X0026148Y0037137D01*
X0026473Y0037130D01*
X0029881Y0037106D01*
X0032242Y0037119D01*
X0032242Y0034560D02*
X0031508Y0034584D01*
X0029218Y0032265D01*
X0028093Y0032577D01*
X0023875Y0037110D02*
X0023913Y0017690D01*
X0029360Y0012212D01*
X0029365Y0009036D01*
X0033934Y0019728D02*
X0038805Y0024619D01*
X0038836Y0030525D01*
X0041396Y0030525D02*
X0041453Y0012469D01*
X0039484Y0009269D01*
X0043963Y0007621D02*
X0048594Y0003009D01*
X0081949Y0003001D01*
X0089221Y0010507D01*
X0114926Y0010543D01*
X0119991Y0015512D01*
X0119962Y0042828D01*
X0117914Y0044921D01*
X0114897Y0044989D01*
X0110560Y0050089D02*
X0115060Y0054589D01*
X0115060Y0055489D02*
X0110574Y0059941D01*
X0109724Y0060799D01*
X0108287Y0060786D01*
X0095529Y0060799D01*
X0090336Y0060739D01*
X0089253Y0061891D01*
X0089230Y0065130D01*
X0086080Y0065130D01*
X0082931Y0065130D02*
X0082803Y0066789D01*
X0081643Y0068424D01*
X0071853Y0068436D01*
X0066330Y0062917D01*
X0066307Y0055408D01*
X0070178Y0057519D02*
X0070097Y0062491D01*
X0072783Y0065180D01*
X0079781Y0065130D01*
X0079781Y0060799D02*
X0079781Y0056468D01*
X0079790Y0053036D01*
X0083212Y0049607D01*
X0082602Y0049827D01*
X0070468Y0049827D01*
X0070102Y0049534D02*
X0067758Y0047264D01*
X0062225Y0047263D01*
X0054308Y0055221D01*
X0054310Y0058684D01*
X0058059Y0058690D01*
X0071243Y0071701D01*
X0112563Y0071724D01*
X0115230Y0069025D01*
X0115292Y0066816D01*
X0107113Y0056015D02*
X0096081Y0056003D01*
X0095529Y0056468D01*
X0093020Y0052282D02*
X0087888Y0052282D01*
X0086193Y0053978D01*
X0086080Y0056468D01*
X0082931Y0056468D02*
X0082897Y0053830D01*
X0086916Y0049786D01*
X0089740Y0049786D01*
X0090760Y0048774D01*
X0090760Y0039289D01*
X0094360Y0035689D01*
X0095260Y0035689D02*
X0106960Y0035689D01*
X0110560Y0031189D02*
X0110560Y0050089D01*
X0107023Y0044989D02*
X0094897Y0044989D01*
X0096460Y0045589D02*
X0096448Y0048838D01*
X0093020Y0052282D01*
X0087023Y0044989D02*
X0085538Y0045033D01*
X0083181Y0047363D01*
X0083212Y0049607D01*
X0087160Y0044689D02*
X0087160Y0035689D01*
X0079983Y0030202D02*
X0109554Y0030147D01*
X0110560Y0031189D01*
X0114283Y0030120D02*
X0111584Y0027371D01*
X0111585Y0026257D01*
X0111547Y0024518D01*
X0109083Y0024531D01*
X0107292Y0022727D01*
X0107270Y0013733D01*
X0106013Y0012553D01*
X0085674Y0012553D01*
X0084060Y0010902D01*
X0077951Y0004957D01*
X0049904Y0004972D01*
X0046343Y0008492D01*
X0046286Y0011109D01*
X0046304Y0031946D01*
X0048807Y0034394D01*
X0049350Y0037103D02*
X0049966Y0037074D01*
X0051126Y0035913D01*
X0051127Y0029110D01*
X0050886Y0028448D01*
X0054705Y0033560D02*
X0055907Y0032416D01*
X0055888Y0016718D01*
X0055861Y0012024D01*
X0053419Y0009599D01*
X0061789Y0016681D02*
X0059501Y0018914D01*
X0059500Y0038562D01*
X0057228Y0040781D01*
X0055778Y0042247D01*
X0047990Y0042238D01*
X0047990Y0039678D02*
X0051489Y0039697D01*
X0054706Y0036478D01*
X0054705Y0033560D01*
X0062500Y0031695D02*
X0062500Y0042431D01*
X0055803Y0049114D01*
X0046950Y0049103D01*
X0046463Y0049107D02*
X0046467Y0056652D01*
X0043849Y0059250D01*
X0046076Y0064680D02*
X0052118Y0058634D01*
X0054310Y0058684D01*
X0054310Y0066558D02*
X0049052Y0071801D01*
X0046076Y0064680D02*
X0043849Y0065943D01*
X0039678Y0065903D01*
X0037688Y0063886D01*
X0037666Y0051389D01*
X0036279Y0049974D01*
X0036277Y0046273D01*
X0033142Y0043197D02*
X0032242Y0042238D01*
X0033142Y0043197D02*
X0033154Y0064268D01*
X0028276Y0052355D02*
X0028204Y0039629D01*
X0032242Y0039678D01*
X0036436Y0029410D02*
X0032192Y0027512D01*
X0043955Y0030525D02*
X0043963Y0007621D01*
X0061789Y0016681D02*
X0064488Y0013978D01*
X0064529Y0013297D01*
X0064435Y0009706D01*
X0064375Y0029790D02*
X0062500Y0031695D01*
X0064375Y0029790D02*
X0070281Y0029790D01*
X0074550Y0034103D01*
X0074318Y0034547D02*
X0078603Y0030203D01*
X0079983Y0030202D01*
X0074560Y0035689D02*
X0074560Y0044689D01*
X0068260Y0044689D02*
X0068260Y0035689D01*
X0072027Y0054908D02*
X0070178Y0057519D01*
X0077931Y0083306D02*
X0072220Y0089113D01*
X0065276Y0089108D01*
X0070724Y0093529D02*
X0070758Y0097157D01*
X0069467Y0098496D01*
X0066518Y0098496D01*
X0064973Y0100049D01*
X0064995Y0105510D01*
X0066964Y0105609D02*
X0066981Y0100935D01*
X0067411Y0100504D01*
X0073292Y0100504D01*
X0075777Y0098018D01*
X0075730Y0094623D01*
X0077642Y0092662D01*
X0081528Y0091781D01*
X0081528Y0098474D02*
X0080462Y0100696D01*
X0078550Y0102656D01*
X0070423Y0102656D01*
X0068941Y0104091D01*
X0068932Y0105609D01*
X0076708Y0111416D02*
X0081237Y0111454D01*
X0083427Y0109264D01*
X0085638Y0108257D01*
X0088780Y0107876D01*
X0093043Y0103612D01*
X0097212Y0107769D01*
X0103589Y0107909D01*
X0104145Y0107364D02*
X0113663Y0107227D01*
X0117236Y0103600D01*
X0103589Y0115783D02*
X0103527Y0118264D01*
X0100621Y0121190D01*
X0099966Y0121781D01*
X0074039Y0121748D01*
X0072969Y0120690D01*
X0072869Y0119191D01*
X0074838Y0119290D02*
X0082509Y0119307D01*
X0085638Y0116131D01*
X0076806Y0117321D02*
X0076708Y0115353D01*
X0076708Y0113384D01*
X0076708Y0111416D01*
X0093043Y0103612D02*
X0092919Y0098953D01*
X0092923Y0093172D01*
X0092909Y0089004D01*
X0098157Y0083219D02*
X0077931Y0083306D01*
X0098157Y0083219D02*
X0099747Y0084832D01*
X0099602Y0089004D01*
X0099770Y0088153D01*
X0099612Y0098953D01*
X0104434Y0066804D02*
X0104338Y0062524D01*
X0104338Y0060773D01*
X0115060Y0035689D02*
X0115075Y0032077D01*
X0115106Y0030951D01*
X0114283Y0030120D01*
X0111547Y0024518D02*
X0115022Y0021425D01*
X0051772Y0102989D02*
X0052270Y0104864D01*
X0052018Y0104864D02*
X0052018Y0104838D01*
X0052018Y0104864D02*
X0052018Y0109182D01*
X0050317Y0110886D01*
X0048381Y0111073D01*
X0048381Y0108514D02*
X0048356Y0105659D01*
X0046622Y0103870D01*
X0041786Y0104479D02*
X0041695Y0090339D01*
X0041767Y0088244D01*
X0040261Y0083818D01*
X0033709Y0093720D02*
X0039311Y0099371D01*
X0039227Y0104479D01*
X0036574Y0104492D02*
X0032816Y0100894D01*
X0031020Y0106739D02*
X0027927Y0105631D01*
X0031020Y0106739D02*
X0032270Y0107989D01*
X0032633Y0111073D02*
X0023128Y0111005D01*
X0023300Y0091201D01*
X0030300Y0084072D01*
X0023128Y0111005D02*
X0023200Y0141498D01*
X0028060Y0146444D01*
X0048269Y0146411D01*
X0051376Y0143159D01*
X0051390Y0138708D01*
X0052583Y0136584D01*
X0057647Y0131128D02*
X0058526Y0131986D01*
X0058420Y0146861D01*
X0058420Y0147854D01*
X0058520Y0147989D02*
X0060269Y0149783D01*
X0061827Y0149874D01*
X0062646Y0146328D02*
X0066271Y0149838D01*
X0121112Y0149937D01*
X0057647Y0131128D02*
X0055145Y0128745D01*
X0052583Y0128710D01*
X0049856Y0128959D01*
X0046187Y0131329D01*
X0046091Y0134365D01*
X0044619Y0136064D01*
X0041805Y0136316D01*
X0039322Y0136064D01*
X0036673Y0133415D01*
X0036668Y0120227D01*
X0032633Y0116191D02*
X0031753Y0116191D01*
X0031753Y0139185D01*
X0027554Y0127327D02*
X0027554Y0114891D01*
X0028675Y0113662D01*
X0029253Y0113705D01*
X0032633Y0113632D01*
X0048381Y0113632D02*
X0052264Y0113543D01*
X0055706Y0110202D01*
X0046462Y0048779D02*
X0043955Y0046273D01*
D27*
X0046462Y0048779D02*
X0046463Y0049107D01*
X0047990Y0034560D02*
X0048807Y0034394D01*
X0065335Y0054908D02*
X0066307Y0055408D01*
X0070468Y0049827D02*
X0070102Y0049534D01*
X0067758Y0047264D02*
X0067614Y0044989D01*
X0068260Y0044689D01*
X0074307Y0044989D02*
X0074560Y0044689D01*
X0074560Y0035689D02*
X0074307Y0034989D01*
X0074318Y0034547D01*
X0076383Y0032514D01*
X0068260Y0035689D02*
X0067614Y0034989D01*
X0087023Y0034989D02*
X0087160Y0035689D01*
X0087160Y0044689D02*
X0087023Y0044989D01*
X0094897Y0044989D02*
X0094897Y0045589D01*
X0096460Y0045589D01*
X0095260Y0035689D02*
X0094897Y0034989D01*
X0094360Y0035689D01*
X0106960Y0035689D02*
X0107023Y0034989D01*
X0114897Y0034989D02*
X0115060Y0035689D01*
X0115060Y0044689D02*
X0114897Y0044989D01*
X0115060Y0054589D02*
X0114307Y0054989D01*
X0115060Y0055489D01*
X0108287Y0060786D02*
X0104338Y0060773D01*
X0107113Y0056015D02*
X0106960Y0055489D01*
X0107614Y0054989D01*
D28*
X0074307Y0034989D02*
X0074550Y0034103D01*
X0057828Y0040578D02*
X0057150Y0040703D01*
X0057228Y0040781D01*
X0055075Y0033660D02*
X0054705Y0033560D01*
X0049350Y0037103D02*
X0048150Y0037103D01*
X0047990Y0037119D01*
X0046950Y0049103D02*
X0046463Y0049107D01*
X0036750Y0030503D02*
X0036277Y0030525D01*
X0036750Y0030503D02*
X0036436Y0029410D01*
X0063013Y0095744D02*
X0062895Y0098614D01*
X0055854Y0108330D02*
X0055706Y0110202D01*
X0052270Y0104864D02*
X0052018Y0104864D01*
X0036668Y0104479D02*
X0036645Y0104864D01*
X0036574Y0104492D01*
X0032270Y0107989D02*
X0032633Y0108514D01*
X0058420Y0147854D02*
X0058520Y0147989D01*
X0103589Y0107909D02*
X0104145Y0107364D01*
D29*
X0055854Y0108330D03*
X0051772Y0102989D03*
X0053584Y0117797D03*
X0032816Y0100894D03*
X0027927Y0105631D03*
X0057828Y0040578D03*
X0055075Y0033660D03*
X0050886Y0028448D03*
X0032192Y0027512D03*
X0028093Y0032577D03*
D30*
X0062895Y0098614D03*
X0061827Y0149874D03*
X0117236Y0103600D03*
M02*
