G75*
%MOIN*%
%OFA0B0*%
%FSLAX25Y25*%
%IPPOS*%
%LPD*%
%AMOC8*
5,1,8,0,0,1.08239X$1,22.5*
%
%ADD10C,0.00000*%
%ADD11C,0.01200*%
%ADD12C,0.00100*%
%ADD13C,0.00500*%
%ADD14R,0.02559X0.05512*%
%ADD15C,0.00400*%
%ADD16R,0.05512X0.02559*%
%ADD17C,0.00600*%
%ADD18C,0.00200*%
D10*
X0020728Y0001000D02*
X0020675Y0152867D01*
X0125931Y0152769D01*
X0125743Y0001103D01*
X0020728Y0001000D01*
D11*
X0021407Y0074248D02*
X0123528Y0074089D01*
D12*
X0118538Y0050638D02*
X0118038Y0050638D01*
X0117788Y0050387D01*
X0117315Y0050387D02*
X0117315Y0049887D01*
X0117065Y0049637D01*
X0116314Y0049637D01*
X0116815Y0049637D02*
X0117315Y0049136D01*
X0117788Y0049386D02*
X0118038Y0049136D01*
X0118538Y0049136D01*
X0118788Y0049386D01*
X0118788Y0049637D01*
X0118538Y0049887D01*
X0118288Y0049887D01*
X0118538Y0049887D02*
X0118788Y0050137D01*
X0118788Y0050387D01*
X0118538Y0050638D01*
X0117315Y0050387D02*
X0117065Y0050638D01*
X0116314Y0050638D01*
X0116314Y0049136D01*
X0116217Y0040656D02*
X0116968Y0040656D01*
X0117218Y0040406D01*
X0117218Y0039906D01*
X0116968Y0039656D01*
X0116217Y0039656D01*
X0116718Y0039656D02*
X0117218Y0039155D01*
X0117690Y0039906D02*
X0118691Y0039906D01*
X0118441Y0040656D02*
X0118441Y0039155D01*
X0117690Y0039906D02*
X0118441Y0040656D01*
X0116217Y0040656D02*
X0116217Y0039155D01*
X0103180Y0057734D02*
X0102179Y0057734D01*
X0102679Y0057734D02*
X0102679Y0059236D01*
X0102179Y0058735D01*
X0101706Y0058985D02*
X0101456Y0059236D01*
X0100956Y0059236D01*
X0100706Y0058985D01*
X0100706Y0057985D01*
X0100956Y0057734D01*
X0101456Y0057734D01*
X0101706Y0057985D01*
X0098569Y0050541D02*
X0098069Y0050541D01*
X0097818Y0050290D01*
X0097346Y0050290D02*
X0097346Y0049790D01*
X0097096Y0049540D01*
X0096345Y0049540D01*
X0096846Y0049540D02*
X0097346Y0049039D01*
X0097818Y0049039D02*
X0098819Y0050040D01*
X0098819Y0050290D01*
X0098569Y0050541D01*
X0097346Y0050290D02*
X0097096Y0050541D01*
X0096345Y0050541D01*
X0096345Y0049039D01*
X0097818Y0049039D02*
X0098819Y0049039D01*
X0098498Y0040656D02*
X0098498Y0039155D01*
X0098998Y0039155D02*
X0097997Y0039155D01*
X0097525Y0039155D02*
X0097024Y0039656D01*
X0097275Y0039656D02*
X0096524Y0039656D01*
X0096524Y0039155D02*
X0096524Y0040656D01*
X0097275Y0040656D01*
X0097525Y0040406D01*
X0097525Y0039906D01*
X0097275Y0039656D01*
X0097997Y0040156D02*
X0098498Y0040656D01*
X0081469Y0037931D02*
X0080468Y0037931D01*
X0081219Y0038682D01*
X0081219Y0037180D01*
X0079996Y0037431D02*
X0079746Y0037180D01*
X0079245Y0037180D01*
X0078995Y0037431D01*
X0078995Y0038432D01*
X0079245Y0038682D01*
X0079746Y0038682D01*
X0079996Y0038432D01*
X0079179Y0054924D02*
X0078178Y0054924D01*
X0079179Y0055925D01*
X0079179Y0056175D01*
X0078929Y0056425D01*
X0078428Y0056425D01*
X0078178Y0056175D01*
X0077706Y0056175D02*
X0077456Y0056425D01*
X0076955Y0056425D01*
X0076705Y0056175D01*
X0076705Y0055174D01*
X0076955Y0054924D01*
X0077456Y0054924D01*
X0077706Y0055174D01*
X0084808Y0067943D02*
X0085308Y0067943D01*
X0085058Y0067943D02*
X0085058Y0069445D01*
X0084808Y0069445D02*
X0085308Y0069445D01*
X0085790Y0069194D02*
X0085790Y0068194D01*
X0086040Y0067943D01*
X0086540Y0067943D01*
X0086791Y0068194D01*
X0087263Y0067943D02*
X0088264Y0067943D01*
X0087763Y0067943D02*
X0087763Y0069445D01*
X0087263Y0068944D01*
X0086791Y0069194D02*
X0086540Y0069445D01*
X0086040Y0069445D01*
X0085790Y0069194D01*
X0072469Y0086479D02*
X0071969Y0086479D01*
X0071718Y0086729D01*
X0071246Y0086729D02*
X0070996Y0086479D01*
X0070495Y0086479D01*
X0070245Y0086729D01*
X0070245Y0087730D01*
X0070495Y0087981D01*
X0070996Y0087981D01*
X0071246Y0087730D01*
X0071718Y0087730D02*
X0071718Y0087480D01*
X0071969Y0087230D01*
X0072719Y0087230D01*
X0072719Y0087730D02*
X0072469Y0087981D01*
X0071969Y0087981D01*
X0071718Y0087730D01*
X0072719Y0087730D02*
X0072719Y0086729D01*
X0072469Y0086479D01*
X0085166Y0095086D02*
X0085416Y0094836D01*
X0086417Y0094836D01*
X0086667Y0095086D01*
X0086667Y0095586D01*
X0086417Y0095837D01*
X0086417Y0096309D02*
X0085917Y0096309D01*
X0085917Y0097060D01*
X0086167Y0097310D01*
X0086417Y0097310D01*
X0086667Y0097060D01*
X0086667Y0096559D01*
X0086417Y0096309D01*
X0085917Y0096309D02*
X0085416Y0096809D01*
X0085166Y0097310D01*
X0085416Y0095837D02*
X0085166Y0095586D01*
X0085166Y0095086D01*
X0094730Y0103445D02*
X0094980Y0103194D01*
X0095481Y0103194D01*
X0095731Y0103445D01*
X0096204Y0103194D02*
X0097204Y0103194D01*
X0097677Y0103194D02*
X0098678Y0104195D01*
X0098678Y0104445D01*
X0098427Y0104696D01*
X0097927Y0104696D01*
X0097677Y0104445D01*
X0096704Y0104696D02*
X0096704Y0103194D01*
X0097677Y0103194D02*
X0098678Y0103194D01*
X0096704Y0104696D02*
X0096204Y0104195D01*
X0095731Y0104445D02*
X0095481Y0104696D01*
X0094980Y0104696D01*
X0094730Y0104445D01*
X0094730Y0103445D01*
X0091543Y0111924D02*
X0090042Y0111924D01*
X0090042Y0112674D01*
X0090292Y0112925D01*
X0090792Y0112925D01*
X0091043Y0112674D01*
X0091043Y0111924D01*
X0091043Y0112424D02*
X0091543Y0112925D01*
X0091293Y0113397D02*
X0091543Y0113647D01*
X0091543Y0114148D01*
X0091293Y0114398D01*
X0090292Y0114398D01*
X0090042Y0114148D01*
X0090042Y0113647D01*
X0090292Y0113397D01*
X0090542Y0113397D01*
X0090792Y0113647D01*
X0090792Y0114398D01*
X0097464Y0114123D02*
X0098965Y0114123D01*
X0098965Y0113623D02*
X0098965Y0114623D01*
X0098965Y0115096D02*
X0098965Y0116097D01*
X0098965Y0115596D02*
X0097464Y0115596D01*
X0097964Y0115096D01*
X0097464Y0114123D02*
X0097964Y0113623D01*
X0097714Y0113150D02*
X0098214Y0113150D01*
X0098465Y0112900D01*
X0098465Y0112149D01*
X0098965Y0112149D02*
X0097464Y0112149D01*
X0097464Y0112900D01*
X0097714Y0113150D01*
X0098465Y0112650D02*
X0098965Y0113150D01*
X0089167Y0125284D02*
X0087666Y0125284D01*
X0087666Y0126035D01*
X0087916Y0126285D01*
X0088416Y0126285D01*
X0088667Y0126035D01*
X0088667Y0125284D01*
X0088667Y0125785D02*
X0089167Y0126285D01*
X0089167Y0126758D02*
X0089167Y0127758D01*
X0089167Y0127258D02*
X0087666Y0127258D01*
X0088166Y0126758D01*
X0087916Y0128231D02*
X0087666Y0128481D01*
X0087666Y0128981D01*
X0087916Y0129232D01*
X0088917Y0128231D01*
X0089167Y0128481D01*
X0089167Y0128981D01*
X0088917Y0129232D01*
X0087916Y0129232D01*
X0087916Y0128231D02*
X0088917Y0128231D01*
X0097422Y0127947D02*
X0098923Y0127947D01*
X0098923Y0128447D02*
X0098923Y0127446D01*
X0098923Y0126974D02*
X0098423Y0126474D01*
X0098423Y0126724D02*
X0098423Y0125973D01*
X0098923Y0125973D02*
X0097422Y0125973D01*
X0097422Y0126724D01*
X0097672Y0126974D01*
X0098172Y0126974D01*
X0098423Y0126724D01*
X0097922Y0127446D02*
X0097422Y0127947D01*
X0097422Y0128920D02*
X0097422Y0129921D01*
X0097672Y0129921D01*
X0098673Y0128920D01*
X0098923Y0128920D01*
X0083087Y0136685D02*
X0081586Y0136685D01*
X0081586Y0137436D01*
X0081836Y0137686D01*
X0082337Y0137686D01*
X0082587Y0137436D01*
X0082587Y0136685D01*
X0082587Y0137185D02*
X0083087Y0137686D01*
X0083087Y0138158D02*
X0083087Y0139159D01*
X0083087Y0139631D02*
X0082086Y0140632D01*
X0081836Y0140632D01*
X0081586Y0140382D01*
X0081586Y0139882D01*
X0081836Y0139631D01*
X0081586Y0138659D02*
X0083087Y0138659D01*
X0083087Y0139631D02*
X0083087Y0140632D01*
X0081586Y0138659D02*
X0082086Y0138158D01*
X0068015Y0129913D02*
X0068015Y0129413D01*
X0067765Y0129163D01*
X0067515Y0129163D01*
X0067264Y0129413D01*
X0067264Y0129913D01*
X0067515Y0130164D01*
X0067765Y0130164D01*
X0068015Y0129913D01*
X0067264Y0129913D02*
X0067014Y0130164D01*
X0066764Y0130164D01*
X0066514Y0129913D01*
X0066514Y0129413D01*
X0066764Y0129163D01*
X0067014Y0129163D01*
X0067264Y0129413D01*
X0068015Y0128690D02*
X0068015Y0127690D01*
X0068015Y0127217D02*
X0067515Y0126717D01*
X0067515Y0126967D02*
X0067515Y0126216D01*
X0068015Y0126216D02*
X0066514Y0126216D01*
X0066514Y0126967D01*
X0066764Y0127217D01*
X0067264Y0127217D01*
X0067515Y0126967D01*
X0067014Y0127690D02*
X0066514Y0128190D01*
X0068015Y0128190D01*
X0065923Y0122951D02*
X0064922Y0122951D01*
X0064922Y0122201D01*
X0065422Y0122451D01*
X0065673Y0122451D01*
X0065923Y0122201D01*
X0065923Y0121700D01*
X0065673Y0121450D01*
X0065172Y0121450D01*
X0064922Y0121700D01*
X0064450Y0121700D02*
X0064199Y0121450D01*
X0063699Y0121450D01*
X0063449Y0121700D01*
X0063449Y0122701D01*
X0063699Y0122951D01*
X0064199Y0122951D01*
X0064450Y0122701D01*
X0062967Y0122951D02*
X0062467Y0122951D01*
X0062717Y0122951D02*
X0062717Y0121450D01*
X0062467Y0121450D02*
X0062967Y0121450D01*
X0048342Y0136013D02*
X0046840Y0136013D01*
X0046840Y0136763D01*
X0047090Y0137014D01*
X0047591Y0137014D01*
X0047841Y0136763D01*
X0047841Y0136013D01*
X0047841Y0136513D02*
X0048342Y0137014D01*
X0048342Y0137486D02*
X0048342Y0138487D01*
X0048342Y0137986D02*
X0046840Y0137986D01*
X0047341Y0137486D01*
X0047090Y0138959D02*
X0046840Y0139209D01*
X0046840Y0139710D01*
X0047090Y0139960D01*
X0047341Y0139960D01*
X0047591Y0139710D01*
X0047841Y0139960D01*
X0048091Y0139960D01*
X0048342Y0139710D01*
X0048342Y0139209D01*
X0048091Y0138959D01*
X0047591Y0139460D02*
X0047591Y0139710D01*
X0037496Y0138764D02*
X0037496Y0138263D01*
X0037245Y0138013D01*
X0036245Y0139014D01*
X0037245Y0139014D01*
X0037496Y0138764D01*
X0037245Y0138013D02*
X0036245Y0138013D01*
X0035994Y0138263D01*
X0035994Y0138764D01*
X0036245Y0139014D01*
X0037496Y0137541D02*
X0037496Y0136540D01*
X0037496Y0137040D02*
X0035994Y0137040D01*
X0036495Y0136540D01*
X0036245Y0136067D02*
X0035994Y0135817D01*
X0035994Y0135317D01*
X0036245Y0135067D01*
X0037245Y0135067D01*
X0037496Y0135317D01*
X0037496Y0135817D01*
X0037245Y0136067D01*
X0036086Y0124140D02*
X0035335Y0123390D01*
X0036336Y0123390D01*
X0036086Y0124140D02*
X0036086Y0122639D01*
X0034863Y0122889D02*
X0034612Y0122639D01*
X0034112Y0122639D01*
X0033862Y0122889D01*
X0033862Y0123890D01*
X0034112Y0124140D01*
X0034612Y0124140D01*
X0034863Y0123890D01*
X0033380Y0124140D02*
X0032880Y0124140D01*
X0033130Y0124140D02*
X0033130Y0122639D01*
X0032880Y0122639D02*
X0033380Y0122639D01*
X0037992Y0069981D02*
X0037992Y0068980D01*
X0038743Y0068980D01*
X0038493Y0069481D01*
X0038493Y0069731D01*
X0038743Y0069981D01*
X0039243Y0069981D01*
X0039494Y0069731D01*
X0039494Y0069231D01*
X0039243Y0068980D01*
X0039243Y0068508D02*
X0039494Y0068258D01*
X0039494Y0067757D01*
X0039243Y0067507D01*
X0038243Y0067507D01*
X0037992Y0067757D01*
X0037992Y0068258D01*
X0038243Y0068508D01*
X0048406Y0058259D02*
X0048406Y0057258D01*
X0049156Y0057258D01*
X0048906Y0057758D01*
X0048906Y0058008D01*
X0049156Y0058259D01*
X0049657Y0058259D01*
X0049907Y0058008D01*
X0049907Y0057508D01*
X0049657Y0057258D01*
X0049907Y0056785D02*
X0049406Y0056285D01*
X0049406Y0056535D02*
X0049406Y0055785D01*
X0049907Y0055785D02*
X0048406Y0055785D01*
X0048406Y0056535D01*
X0048656Y0056785D01*
X0049156Y0056785D01*
X0049406Y0056535D01*
X0041851Y0049567D02*
X0041601Y0049817D01*
X0041101Y0049817D01*
X0040851Y0049567D01*
X0040378Y0049567D02*
X0040128Y0049817D01*
X0039627Y0049817D01*
X0039377Y0049567D01*
X0039377Y0048566D01*
X0039627Y0048315D01*
X0040128Y0048315D01*
X0040378Y0048566D01*
X0040851Y0048315D02*
X0041851Y0049316D01*
X0041851Y0049567D01*
X0041851Y0048315D02*
X0040851Y0048315D01*
X0038895Y0048315D02*
X0038395Y0048315D01*
X0038645Y0048315D02*
X0038645Y0049817D01*
X0038395Y0049817D02*
X0038895Y0049817D01*
X0061448Y0046276D02*
X0061698Y0046527D01*
X0061949Y0046527D01*
X0062199Y0046276D01*
X0062449Y0046527D01*
X0062699Y0046527D01*
X0062949Y0046276D01*
X0062949Y0045776D01*
X0062699Y0045526D01*
X0062699Y0045053D02*
X0062949Y0044803D01*
X0062949Y0044303D01*
X0062699Y0044053D01*
X0061698Y0044053D01*
X0061448Y0044303D01*
X0061448Y0044803D01*
X0061698Y0045053D01*
X0061698Y0045526D02*
X0061448Y0045776D01*
X0061448Y0046276D01*
X0062199Y0046276D02*
X0062199Y0046026D01*
D13*
X0080799Y0058830D02*
X0080801Y0058877D01*
X0080807Y0058923D01*
X0080816Y0058969D01*
X0080830Y0059013D01*
X0080847Y0059057D01*
X0080868Y0059098D01*
X0080892Y0059138D01*
X0080919Y0059176D01*
X0080950Y0059211D01*
X0080983Y0059244D01*
X0081019Y0059274D01*
X0081058Y0059300D01*
X0081098Y0059324D01*
X0081140Y0059343D01*
X0081184Y0059360D01*
X0081229Y0059372D01*
X0081275Y0059381D01*
X0081321Y0059386D01*
X0081368Y0059387D01*
X0081414Y0059384D01*
X0081460Y0059377D01*
X0081506Y0059366D01*
X0081550Y0059352D01*
X0081593Y0059334D01*
X0081634Y0059312D01*
X0081674Y0059287D01*
X0081711Y0059259D01*
X0081746Y0059228D01*
X0081778Y0059194D01*
X0081807Y0059157D01*
X0081832Y0059119D01*
X0081855Y0059078D01*
X0081874Y0059035D01*
X0081889Y0058991D01*
X0081901Y0058946D01*
X0081909Y0058900D01*
X0081913Y0058853D01*
X0081913Y0058807D01*
X0081909Y0058760D01*
X0081901Y0058714D01*
X0081889Y0058669D01*
X0081874Y0058625D01*
X0081855Y0058582D01*
X0081832Y0058541D01*
X0081807Y0058503D01*
X0081778Y0058466D01*
X0081746Y0058432D01*
X0081711Y0058401D01*
X0081674Y0058373D01*
X0081635Y0058348D01*
X0081593Y0058326D01*
X0081550Y0058308D01*
X0081506Y0058294D01*
X0081460Y0058283D01*
X0081414Y0058276D01*
X0081368Y0058273D01*
X0081321Y0058274D01*
X0081275Y0058279D01*
X0081229Y0058288D01*
X0081184Y0058300D01*
X0081140Y0058317D01*
X0081098Y0058336D01*
X0081058Y0058360D01*
X0081019Y0058386D01*
X0080983Y0058416D01*
X0080950Y0058449D01*
X0080919Y0058484D01*
X0080892Y0058522D01*
X0080868Y0058562D01*
X0080847Y0058603D01*
X0080830Y0058647D01*
X0080816Y0058691D01*
X0080807Y0058737D01*
X0080801Y0058783D01*
X0080799Y0058830D01*
D14*
X0088040Y0044995D03*
X0093840Y0044995D03*
X0093840Y0034995D03*
X0088040Y0034995D03*
X0108040Y0034995D03*
X0113840Y0034995D03*
X0113840Y0044995D03*
X0108040Y0044995D03*
D15*
X0047793Y0045978D02*
X0032439Y0045978D01*
X0032439Y0030722D02*
X0047793Y0030722D01*
X0048184Y0104676D02*
X0032830Y0104676D01*
X0032830Y0119932D02*
X0048184Y0119932D01*
D16*
X0052577Y0129727D03*
X0052577Y0135527D03*
X0067848Y0135145D03*
X0067848Y0140945D03*
X0077543Y0140975D03*
X0077543Y0135175D03*
X0087260Y0135257D03*
X0087260Y0141057D03*
X0096841Y0140989D03*
X0096841Y0135189D03*
X0103583Y0114725D03*
X0103583Y0108925D03*
X0085632Y0109274D03*
X0085632Y0115074D03*
X0054304Y0065501D03*
X0054304Y0059701D03*
D17*
X0056676Y0078618D02*
X0051676Y0078618D01*
X0049176Y0081118D01*
X0049176Y0086118D01*
X0051676Y0088618D01*
X0056676Y0088618D01*
X0059176Y0086118D01*
X0059176Y0081118D01*
X0056676Y0078618D01*
X0060132Y0081484D02*
X0062632Y0078984D01*
X0067632Y0078984D01*
X0070132Y0081484D01*
X0070132Y0086484D01*
X0067632Y0088984D01*
X0062632Y0088984D01*
X0060132Y0086484D01*
X0060132Y0081484D01*
X0035300Y0081572D02*
X0032800Y0079072D01*
X0027800Y0079072D01*
X0025300Y0081572D01*
X0025300Y0086572D01*
X0027800Y0089072D01*
X0032800Y0089072D01*
X0035300Y0086572D01*
X0035300Y0081572D01*
X0031865Y0014036D02*
X0026865Y0014036D01*
X0024365Y0011536D01*
X0024365Y0006536D01*
X0026865Y0004036D01*
X0031865Y0004036D01*
X0034365Y0006536D01*
X0034365Y0011536D01*
X0031865Y0014036D01*
X0048419Y0012099D02*
X0048419Y0007099D01*
X0050919Y0004599D01*
X0055919Y0004599D01*
X0058419Y0007099D01*
X0058419Y0012099D01*
X0055919Y0014599D01*
X0050919Y0014599D01*
X0048419Y0012099D01*
X0059435Y0012206D02*
X0059435Y0007206D01*
X0061935Y0004706D01*
X0066935Y0004706D01*
X0069435Y0007206D01*
X0069435Y0012206D01*
X0066935Y0014706D01*
X0061935Y0014706D01*
X0059435Y0012206D01*
X0101934Y0061804D02*
X0099434Y0064304D01*
X0099434Y0069304D01*
X0101934Y0071804D01*
X0106934Y0071804D01*
X0109434Y0069304D01*
X0109434Y0064304D01*
X0106934Y0061804D01*
X0101934Y0061804D01*
X0110292Y0064316D02*
X0112792Y0061816D01*
X0117792Y0061816D01*
X0120292Y0064316D01*
X0120292Y0069316D01*
X0117792Y0071816D01*
X0112792Y0071816D01*
X0110292Y0069316D01*
X0110292Y0064316D01*
X0113439Y0078988D02*
X0118439Y0078988D01*
X0120939Y0081488D01*
X0120939Y0086488D01*
X0118439Y0088988D01*
X0113439Y0088988D01*
X0110939Y0086488D01*
X0110939Y0081488D01*
X0113439Y0078988D01*
X0113668Y0089892D02*
X0118668Y0089892D01*
X0121168Y0092392D01*
X0121168Y0097392D01*
X0118668Y0099892D01*
X0113668Y0099892D01*
X0111168Y0097392D01*
X0111168Y0092392D01*
X0113668Y0089892D01*
X0115681Y0140270D02*
X0120681Y0140270D01*
X0123181Y0142770D01*
X0123181Y0147770D01*
X0120681Y0150270D01*
X0115681Y0150270D01*
X0113181Y0147770D01*
X0113181Y0142770D01*
X0115681Y0140270D01*
X0111971Y0142661D02*
X0109471Y0140161D01*
X0104471Y0140161D01*
X0101971Y0142661D01*
X0101971Y0147661D01*
X0104471Y0150161D01*
X0109471Y0150161D01*
X0111971Y0147661D01*
X0111971Y0142661D01*
X0112522Y0026425D02*
X0110022Y0023925D01*
X0110022Y0018925D01*
X0112522Y0016425D01*
X0117522Y0016425D01*
X0120022Y0018925D01*
X0120022Y0023925D01*
X0117522Y0026425D01*
X0112522Y0026425D01*
X0112426Y0015543D02*
X0109926Y0013043D01*
X0109926Y0008043D01*
X0112426Y0005543D01*
X0117426Y0005543D01*
X0119926Y0008043D01*
X0119926Y0013043D01*
X0117426Y0015543D01*
X0112426Y0015543D01*
D18*
X0113488Y0004649D02*
X0113255Y0004415D01*
X0113255Y0004182D01*
X0113488Y0003948D01*
X0113955Y0003948D01*
X0114189Y0003715D01*
X0114189Y0003481D01*
X0113955Y0003248D01*
X0113488Y0003248D01*
X0113255Y0003481D01*
X0113488Y0004649D02*
X0113955Y0004649D01*
X0114189Y0004415D01*
X0114728Y0004649D02*
X0115428Y0004649D01*
X0115662Y0004415D01*
X0115662Y0003481D01*
X0115428Y0003248D01*
X0114728Y0003248D01*
X0114728Y0004649D01*
X0116201Y0004182D02*
X0116668Y0004649D01*
X0117135Y0004182D01*
X0117135Y0003248D01*
X0117135Y0003948D02*
X0116201Y0003948D01*
X0116201Y0004182D02*
X0116201Y0003248D01*
X0116555Y0027072D02*
X0117489Y0027072D01*
X0118028Y0027306D02*
X0118262Y0027072D01*
X0118729Y0027072D01*
X0118963Y0027306D01*
X0118963Y0028240D02*
X0118729Y0028474D01*
X0118262Y0028474D01*
X0118028Y0028240D01*
X0118028Y0027306D01*
X0116555Y0027072D02*
X0116555Y0028474D01*
X0116016Y0028240D02*
X0115783Y0028474D01*
X0115315Y0028474D01*
X0115082Y0028240D01*
X0115082Y0028007D01*
X0115315Y0027773D01*
X0115783Y0027773D01*
X0116016Y0027539D01*
X0116016Y0027306D01*
X0115783Y0027072D01*
X0115315Y0027072D01*
X0115082Y0027306D01*
X0115223Y0059418D02*
X0115924Y0059418D01*
X0116157Y0059651D01*
X0116157Y0060585D01*
X0115924Y0060819D01*
X0115223Y0060819D01*
X0115223Y0059418D01*
X0114684Y0059885D02*
X0114684Y0060819D01*
X0114684Y0059885D02*
X0114217Y0059418D01*
X0113750Y0059885D01*
X0113750Y0060819D01*
X0116696Y0060819D02*
X0116696Y0059418D01*
X0117397Y0059418D01*
X0117630Y0059651D01*
X0117630Y0060585D01*
X0117397Y0060819D01*
X0116696Y0060819D01*
X0116889Y0076540D02*
X0116655Y0076773D01*
X0116889Y0076540D02*
X0117356Y0076540D01*
X0117589Y0076773D01*
X0117589Y0077007D01*
X0117356Y0077240D01*
X0116889Y0077240D01*
X0116655Y0077474D01*
X0116655Y0077707D01*
X0116889Y0077941D01*
X0117356Y0077941D01*
X0117589Y0077707D01*
X0118128Y0077941D02*
X0118128Y0076540D01*
X0118829Y0076540D01*
X0119063Y0076773D01*
X0119063Y0077707D01*
X0118829Y0077941D01*
X0118128Y0077941D01*
X0119602Y0077474D02*
X0119602Y0076540D01*
X0119602Y0077240D02*
X0120536Y0077240D01*
X0120536Y0077474D02*
X0120536Y0076540D01*
X0121075Y0076540D02*
X0122009Y0076540D01*
X0121542Y0076540D02*
X0121542Y0077941D01*
X0121075Y0077474D01*
X0120536Y0077474D02*
X0120069Y0077941D01*
X0119602Y0077474D01*
X0118980Y0100863D02*
X0118046Y0100863D01*
X0118513Y0100863D02*
X0118513Y0102264D01*
X0118046Y0101797D01*
X0117507Y0102031D02*
X0117273Y0102264D01*
X0116806Y0102264D01*
X0116573Y0102031D01*
X0116573Y0101097D01*
X0116806Y0100863D01*
X0117273Y0100863D01*
X0117507Y0101097D01*
X0116034Y0100863D02*
X0115100Y0100863D01*
X0115100Y0102264D01*
X0114560Y0102031D02*
X0114327Y0102264D01*
X0113860Y0102264D01*
X0113626Y0102031D01*
X0113626Y0101797D01*
X0113860Y0101564D01*
X0114327Y0101564D01*
X0114560Y0101330D01*
X0114560Y0101097D01*
X0114327Y0100863D01*
X0113860Y0100863D01*
X0113626Y0101097D01*
X0098100Y0069532D02*
X0097399Y0069532D01*
X0097399Y0068131D01*
X0098100Y0068131D01*
X0098333Y0068364D01*
X0098333Y0069298D01*
X0098100Y0069532D01*
X0096860Y0069532D02*
X0096860Y0068131D01*
X0095926Y0069532D01*
X0095926Y0068131D01*
X0095387Y0068364D02*
X0095387Y0068831D01*
X0094920Y0068831D01*
X0095387Y0068364D02*
X0095153Y0068131D01*
X0094686Y0068131D01*
X0094453Y0068364D01*
X0094453Y0069298D01*
X0094686Y0069532D01*
X0095153Y0069532D01*
X0095387Y0069298D01*
X0068444Y0079323D02*
X0067510Y0079323D01*
X0067977Y0079323D02*
X0067977Y0080724D01*
X0067510Y0080257D01*
X0066971Y0080724D02*
X0066037Y0080724D01*
X0066504Y0080724D02*
X0066504Y0079323D01*
X0065498Y0079323D02*
X0065498Y0080257D01*
X0065031Y0080724D01*
X0064564Y0080257D01*
X0064564Y0079323D01*
X0064024Y0079557D02*
X0064024Y0080491D01*
X0063791Y0080724D01*
X0063090Y0080724D01*
X0063090Y0079323D01*
X0063791Y0079323D01*
X0064024Y0079557D01*
X0064564Y0080024D02*
X0065498Y0080024D01*
X0053564Y0088909D02*
X0052630Y0088909D01*
X0053097Y0088909D02*
X0053097Y0090310D01*
X0052630Y0089843D01*
X0052091Y0090310D02*
X0051156Y0089376D01*
X0051390Y0089609D02*
X0052091Y0088909D01*
X0051156Y0088909D02*
X0051156Y0090310D01*
X0049683Y0090310D02*
X0049683Y0088909D01*
X0050617Y0088909D01*
X0049144Y0089142D02*
X0048910Y0088909D01*
X0048443Y0088909D01*
X0048210Y0089142D01*
X0048210Y0090076D01*
X0048443Y0090310D01*
X0048910Y0090310D01*
X0049144Y0090076D01*
X0030454Y0091372D02*
X0029520Y0091372D01*
X0029987Y0091372D02*
X0029987Y0092773D01*
X0029520Y0092306D01*
X0028980Y0092073D02*
X0028747Y0091839D01*
X0028046Y0091839D01*
X0028046Y0091372D02*
X0028046Y0092773D01*
X0028747Y0092773D01*
X0028980Y0092540D01*
X0028980Y0092073D01*
X0027507Y0092073D02*
X0027274Y0091839D01*
X0026573Y0091839D01*
X0026573Y0091372D02*
X0026573Y0092773D01*
X0027274Y0092773D01*
X0027507Y0092540D01*
X0027507Y0092073D01*
X0026034Y0091839D02*
X0025567Y0091372D01*
X0025100Y0091839D01*
X0025100Y0092773D01*
X0026034Y0092773D02*
X0026034Y0091839D01*
X0066088Y0017820D02*
X0066789Y0017820D01*
X0067022Y0017587D01*
X0067022Y0016653D01*
X0066789Y0016419D01*
X0066088Y0016419D01*
X0066088Y0017820D01*
X0067561Y0017353D02*
X0067561Y0016419D01*
X0067561Y0017120D02*
X0068495Y0017120D01*
X0068495Y0017353D02*
X0068495Y0016419D01*
X0068495Y0017353D02*
X0068028Y0017820D01*
X0067561Y0017353D01*
X0069035Y0017820D02*
X0069969Y0017820D01*
X0069502Y0017820D02*
X0069502Y0016419D01*
X0051152Y0015202D02*
X0050218Y0014268D01*
X0050451Y0014501D02*
X0051152Y0013801D01*
X0050218Y0013801D02*
X0050218Y0015202D01*
X0048744Y0015202D02*
X0048744Y0013801D01*
X0049678Y0013801D01*
X0048205Y0014034D02*
X0047972Y0013801D01*
X0047505Y0013801D01*
X0047271Y0014034D01*
X0047271Y0014968D01*
X0047505Y0015202D01*
X0047972Y0015202D01*
X0048205Y0014968D01*
X0034349Y0015789D02*
X0034115Y0015555D01*
X0033415Y0015555D01*
X0033415Y0015088D02*
X0033415Y0016489D01*
X0034115Y0016489D01*
X0034349Y0016256D01*
X0034349Y0015789D01*
X0032876Y0015789D02*
X0032642Y0015555D01*
X0031942Y0015555D01*
X0031942Y0015088D02*
X0031942Y0016489D01*
X0032642Y0016489D01*
X0032876Y0016256D01*
X0032876Y0015789D01*
X0031402Y0015555D02*
X0030935Y0015088D01*
X0030468Y0015555D01*
X0030468Y0016489D01*
X0031402Y0016489D02*
X0031402Y0015555D01*
X0105450Y0136863D02*
X0105216Y0137097D01*
X0105216Y0138031D01*
X0105450Y0138265D01*
X0105917Y0138265D01*
X0106151Y0138031D01*
X0106151Y0137564D02*
X0105683Y0137564D01*
X0106151Y0137564D02*
X0106151Y0137097D01*
X0105917Y0136863D01*
X0105450Y0136863D01*
X0106690Y0136863D02*
X0106690Y0138265D01*
X0107624Y0136863D01*
X0107624Y0138265D01*
X0108163Y0138265D02*
X0108163Y0136863D01*
X0108863Y0136863D01*
X0109097Y0137097D01*
X0109097Y0138031D01*
X0108863Y0138265D01*
X0108163Y0138265D01*
X0109636Y0137797D02*
X0110103Y0138265D01*
X0110103Y0136863D01*
X0109636Y0136863D02*
X0110570Y0136863D01*
X0116810Y0137249D02*
X0117277Y0136781D01*
X0117744Y0137249D01*
X0117744Y0138183D01*
X0118283Y0138183D02*
X0118283Y0136781D01*
X0118984Y0136781D01*
X0119217Y0137015D01*
X0119217Y0137949D01*
X0118984Y0138183D01*
X0118283Y0138183D01*
X0116810Y0138183D02*
X0116810Y0137249D01*
X0119756Y0136781D02*
X0120457Y0136781D01*
X0120690Y0137015D01*
X0120690Y0137949D01*
X0120457Y0138183D01*
X0119756Y0138183D01*
X0119756Y0136781D01*
X0121230Y0136781D02*
X0121230Y0137015D01*
X0122164Y0137949D01*
X0122164Y0138183D01*
X0121230Y0138183D01*
M02*
