G75*
%MOIN*%
%OFA0B0*%
%FSLAX25Y25*%
%IPPOS*%
%LPD*%
%AMOC8*
5,1,8,0,0,1.08239X$1,22.5*
%
%ADD10C,0.00000*%
%ADD11R,0.05118X0.05906*%
%ADD12R,0.03150X0.01969*%
%ADD13R,0.01969X0.03150*%
%ADD14R,0.04331X0.05512*%
%ADD15R,0.09252X0.09252*%
%ADD16R,0.02953X0.01181*%
%ADD17R,0.01181X0.02953*%
%ADD18R,0.05512X0.04331*%
%ADD19R,0.05906X0.05118*%
%ADD20R,0.05000X0.10000*%
%ADD21R,0.10000X0.05000*%
%ADD22R,0.01772X0.00984*%
%ADD23R,0.01969X0.00984*%
%ADD24R,0.00984X0.01772*%
%ADD25R,0.00984X0.01969*%
%ADD26R,0.08268X0.08268*%
D10*
X0020728Y0001000D02*
X0020675Y0152867D01*
X0125931Y0152769D01*
X0125743Y0001103D01*
X0020728Y0001000D01*
D11*
X0065335Y0054908D03*
X0072027Y0054908D03*
X0074307Y0044989D03*
X0067614Y0044989D03*
X0067614Y0034989D03*
X0074307Y0034989D03*
X0107614Y0054989D03*
X0114307Y0054989D03*
X0099602Y0089004D03*
X0092909Y0089004D03*
X0092919Y0098953D03*
X0099612Y0098953D03*
X0070724Y0093529D03*
X0064031Y0093529D03*
D12*
X0079781Y0060799D03*
X0095529Y0060799D03*
D13*
X0095529Y0065130D03*
X0092380Y0065130D03*
X0089230Y0065130D03*
X0086080Y0065130D03*
X0082931Y0065130D03*
X0079781Y0065130D03*
X0079781Y0056468D03*
X0082931Y0056468D03*
X0086080Y0056468D03*
X0089230Y0056468D03*
X0092380Y0056468D03*
X0095529Y0056468D03*
D14*
X0094897Y0044989D03*
X0087023Y0044989D03*
X0087023Y0034989D03*
X0094897Y0034989D03*
X0107023Y0034989D03*
X0114897Y0034989D03*
X0114897Y0044989D03*
X0107023Y0044989D03*
D15*
X0040116Y0038399D03*
X0040507Y0112353D03*
D16*
X0032633Y0113632D03*
X0032633Y0116191D03*
X0032633Y0111073D03*
X0032633Y0108514D03*
X0048381Y0108514D03*
X0048381Y0111073D03*
X0048381Y0113632D03*
X0048381Y0116191D03*
X0047990Y0042238D03*
X0047990Y0039678D03*
X0047990Y0037119D03*
X0047990Y0034560D03*
X0032242Y0034560D03*
X0032242Y0037119D03*
X0032242Y0039678D03*
X0032242Y0042238D03*
D17*
X0036277Y0046273D03*
X0038836Y0046273D03*
X0041396Y0046273D03*
X0043955Y0046273D03*
X0043955Y0030525D03*
X0041396Y0030525D03*
X0038836Y0030525D03*
X0036277Y0030525D03*
X0036668Y0104479D03*
X0039227Y0104479D03*
X0041786Y0104479D03*
X0044345Y0104479D03*
X0044345Y0120227D03*
X0041786Y0120227D03*
X0039227Y0120227D03*
X0036668Y0120227D03*
D18*
X0052583Y0128710D03*
X0052583Y0136584D03*
X0067853Y0134129D03*
X0067853Y0142003D03*
X0077537Y0141992D03*
X0077537Y0134118D03*
X0087254Y0134200D03*
X0087254Y0142074D03*
X0096847Y0142047D03*
X0096847Y0134173D03*
X0103589Y0115783D03*
X0103589Y0107909D03*
X0085638Y0108257D03*
X0085638Y0116131D03*
X0054310Y0066558D03*
X0054310Y0058684D03*
D19*
X0043849Y0059250D03*
X0043849Y0065943D03*
X0081528Y0091781D03*
X0081528Y0098474D03*
X0041805Y0129623D03*
X0041805Y0136316D03*
D20*
X0031753Y0139185D03*
X0027554Y0127327D03*
X0040261Y0083818D03*
X0033154Y0064268D03*
X0028276Y0052355D03*
X0039484Y0009269D03*
D21*
X0033934Y0019728D03*
X0033709Y0093720D03*
D22*
X0063027Y0107479D03*
X0063027Y0117321D03*
X0076806Y0117321D03*
X0076806Y0107479D03*
D23*
X0076708Y0109447D03*
X0076708Y0111416D03*
X0076708Y0113384D03*
X0076708Y0115353D03*
X0063125Y0115353D03*
X0063125Y0113384D03*
X0063125Y0111416D03*
X0063125Y0109447D03*
D24*
X0064995Y0105510D03*
X0074838Y0105510D03*
X0074838Y0119290D03*
X0064995Y0119290D03*
D25*
X0066964Y0119191D03*
X0068932Y0119191D03*
X0070901Y0119191D03*
X0072869Y0119191D03*
X0072869Y0105609D03*
X0070901Y0105609D03*
X0068932Y0105609D03*
X0066964Y0105609D03*
D26*
X0069917Y0112400D03*
M02*
