%
M48
M72
T01C0.01200
T02C0.04000
%
T01
X32192Y27512
X28093Y32577
X50886Y28448
X55075Y33660
X57828Y40578
X62895Y98614
X55854Y108330
X51772Y102989
X53584Y117797
X32816Y100894
X27927Y105631
X61827Y149874
X117236Y103600
T02
X30300Y84072
X54176Y83618
X65132Y83984
X104434Y66804
X115292Y66816
X115939Y83988
X116168Y94892
X118181Y145270
X106971Y145161
X115022Y21425
X114926Y10543
X64435Y9706
X53419Y9599
X29365Y9036
M30
