%
M48
M72
T01C0.02000
T02C0.04000
T03C0.13000
%
T01
X12250Y26500
X12250Y32000
X32250Y32000
X32250Y27000
X41750Y32000
X47750Y32000
X53750Y28000
X54616Y39516
X48250Y58000
X67250Y58000
X94750Y58000
T02
X7250Y15500
X17250Y15500
X27250Y15500
X37250Y15500
X47250Y15500
X57250Y15500
X67250Y15500
X77250Y15500
X87250Y15500
X97250Y15500
X107250Y15500
X117250Y15500
X127250Y15500
T03
X12250Y60500
X122250Y60500
M30
