G75*
%MOIN*%
%OFA0B0*%
%FSLAX25Y25*%
%IPPOS*%
%LPD*%
%AMOC8*
5,1,8,0,0,1.08239X$1,22.5*
%
%ADD10C,0.00800*%
%ADD11R,0.02756X0.01142*%
%ADD12R,0.01142X0.02756*%
%ADD13R,0.04331X0.03937*%
%ADD14R,0.05512X0.06299*%
%ADD15R,0.03937X0.04331*%
%ADD16C,0.00000*%
%ADD17C,0.07400*%
%ADD18C,0.02500*%
%ADD19C,0.01000*%
%ADD20C,0.04000*%
D10*
X0002250Y0010500D02*
X0132250Y0010500D01*
X0132250Y0070500D01*
X0002250Y0070500D01*
X0002250Y0010500D01*
D11*
X0059868Y0035579D03*
X0059868Y0037547D03*
X0059868Y0039516D03*
X0059868Y0041484D03*
X0059868Y0043453D03*
X0059868Y0045421D03*
X0074632Y0045421D03*
X0074632Y0043453D03*
X0074632Y0041484D03*
X0074632Y0039516D03*
X0074632Y0037547D03*
X0074632Y0035579D03*
D12*
X0072171Y0033118D03*
X0070203Y0033118D03*
X0068234Y0033118D03*
X0066266Y0033118D03*
X0064297Y0033118D03*
X0062329Y0033118D03*
X0062329Y0047882D03*
X0064297Y0047882D03*
X0066266Y0047882D03*
X0068234Y0047882D03*
X0070203Y0047882D03*
X0072171Y0047882D03*
D13*
X0083904Y0040500D03*
X0090596Y0040500D03*
X0090596Y0033000D03*
X0083904Y0033000D03*
X0060596Y0058000D03*
X0053904Y0058000D03*
D14*
X0076738Y0058000D03*
X0087762Y0058000D03*
D15*
X0047750Y0043846D03*
X0041750Y0043846D03*
X0032750Y0043846D03*
X0026750Y0043846D03*
X0017750Y0043846D03*
X0011750Y0043846D03*
X0011750Y0037154D03*
X0017750Y0037154D03*
X0026750Y0037154D03*
X0032750Y0037154D03*
X0041750Y0037154D03*
X0047750Y0037154D03*
D16*
X0005750Y0060500D02*
X0005752Y0060661D01*
X0005758Y0060821D01*
X0005768Y0060982D01*
X0005782Y0061142D01*
X0005800Y0061302D01*
X0005821Y0061461D01*
X0005847Y0061620D01*
X0005877Y0061778D01*
X0005910Y0061935D01*
X0005948Y0062092D01*
X0005989Y0062247D01*
X0006034Y0062401D01*
X0006083Y0062554D01*
X0006136Y0062706D01*
X0006192Y0062857D01*
X0006253Y0063006D01*
X0006316Y0063154D01*
X0006384Y0063300D01*
X0006455Y0063444D01*
X0006529Y0063586D01*
X0006607Y0063727D01*
X0006689Y0063865D01*
X0006774Y0064002D01*
X0006862Y0064136D01*
X0006954Y0064268D01*
X0007049Y0064398D01*
X0007147Y0064526D01*
X0007248Y0064651D01*
X0007352Y0064773D01*
X0007459Y0064893D01*
X0007569Y0065010D01*
X0007682Y0065125D01*
X0007798Y0065236D01*
X0007917Y0065345D01*
X0008038Y0065450D01*
X0008162Y0065553D01*
X0008288Y0065653D01*
X0008416Y0065749D01*
X0008547Y0065842D01*
X0008681Y0065932D01*
X0008816Y0066019D01*
X0008954Y0066102D01*
X0009093Y0066182D01*
X0009235Y0066258D01*
X0009378Y0066331D01*
X0009523Y0066400D01*
X0009670Y0066466D01*
X0009818Y0066528D01*
X0009968Y0066586D01*
X0010119Y0066641D01*
X0010272Y0066692D01*
X0010426Y0066739D01*
X0010581Y0066782D01*
X0010737Y0066821D01*
X0010893Y0066857D01*
X0011051Y0066888D01*
X0011209Y0066916D01*
X0011368Y0066940D01*
X0011528Y0066960D01*
X0011688Y0066976D01*
X0011848Y0066988D01*
X0012009Y0066996D01*
X0012170Y0067000D01*
X0012330Y0067000D01*
X0012491Y0066996D01*
X0012652Y0066988D01*
X0012812Y0066976D01*
X0012972Y0066960D01*
X0013132Y0066940D01*
X0013291Y0066916D01*
X0013449Y0066888D01*
X0013607Y0066857D01*
X0013763Y0066821D01*
X0013919Y0066782D01*
X0014074Y0066739D01*
X0014228Y0066692D01*
X0014381Y0066641D01*
X0014532Y0066586D01*
X0014682Y0066528D01*
X0014830Y0066466D01*
X0014977Y0066400D01*
X0015122Y0066331D01*
X0015265Y0066258D01*
X0015407Y0066182D01*
X0015546Y0066102D01*
X0015684Y0066019D01*
X0015819Y0065932D01*
X0015953Y0065842D01*
X0016084Y0065749D01*
X0016212Y0065653D01*
X0016338Y0065553D01*
X0016462Y0065450D01*
X0016583Y0065345D01*
X0016702Y0065236D01*
X0016818Y0065125D01*
X0016931Y0065010D01*
X0017041Y0064893D01*
X0017148Y0064773D01*
X0017252Y0064651D01*
X0017353Y0064526D01*
X0017451Y0064398D01*
X0017546Y0064268D01*
X0017638Y0064136D01*
X0017726Y0064002D01*
X0017811Y0063865D01*
X0017893Y0063727D01*
X0017971Y0063586D01*
X0018045Y0063444D01*
X0018116Y0063300D01*
X0018184Y0063154D01*
X0018247Y0063006D01*
X0018308Y0062857D01*
X0018364Y0062706D01*
X0018417Y0062554D01*
X0018466Y0062401D01*
X0018511Y0062247D01*
X0018552Y0062092D01*
X0018590Y0061935D01*
X0018623Y0061778D01*
X0018653Y0061620D01*
X0018679Y0061461D01*
X0018700Y0061302D01*
X0018718Y0061142D01*
X0018732Y0060982D01*
X0018742Y0060821D01*
X0018748Y0060661D01*
X0018750Y0060500D01*
X0018748Y0060339D01*
X0018742Y0060179D01*
X0018732Y0060018D01*
X0018718Y0059858D01*
X0018700Y0059698D01*
X0018679Y0059539D01*
X0018653Y0059380D01*
X0018623Y0059222D01*
X0018590Y0059065D01*
X0018552Y0058908D01*
X0018511Y0058753D01*
X0018466Y0058599D01*
X0018417Y0058446D01*
X0018364Y0058294D01*
X0018308Y0058143D01*
X0018247Y0057994D01*
X0018184Y0057846D01*
X0018116Y0057700D01*
X0018045Y0057556D01*
X0017971Y0057414D01*
X0017893Y0057273D01*
X0017811Y0057135D01*
X0017726Y0056998D01*
X0017638Y0056864D01*
X0017546Y0056732D01*
X0017451Y0056602D01*
X0017353Y0056474D01*
X0017252Y0056349D01*
X0017148Y0056227D01*
X0017041Y0056107D01*
X0016931Y0055990D01*
X0016818Y0055875D01*
X0016702Y0055764D01*
X0016583Y0055655D01*
X0016462Y0055550D01*
X0016338Y0055447D01*
X0016212Y0055347D01*
X0016084Y0055251D01*
X0015953Y0055158D01*
X0015819Y0055068D01*
X0015684Y0054981D01*
X0015546Y0054898D01*
X0015407Y0054818D01*
X0015265Y0054742D01*
X0015122Y0054669D01*
X0014977Y0054600D01*
X0014830Y0054534D01*
X0014682Y0054472D01*
X0014532Y0054414D01*
X0014381Y0054359D01*
X0014228Y0054308D01*
X0014074Y0054261D01*
X0013919Y0054218D01*
X0013763Y0054179D01*
X0013607Y0054143D01*
X0013449Y0054112D01*
X0013291Y0054084D01*
X0013132Y0054060D01*
X0012972Y0054040D01*
X0012812Y0054024D01*
X0012652Y0054012D01*
X0012491Y0054004D01*
X0012330Y0054000D01*
X0012170Y0054000D01*
X0012009Y0054004D01*
X0011848Y0054012D01*
X0011688Y0054024D01*
X0011528Y0054040D01*
X0011368Y0054060D01*
X0011209Y0054084D01*
X0011051Y0054112D01*
X0010893Y0054143D01*
X0010737Y0054179D01*
X0010581Y0054218D01*
X0010426Y0054261D01*
X0010272Y0054308D01*
X0010119Y0054359D01*
X0009968Y0054414D01*
X0009818Y0054472D01*
X0009670Y0054534D01*
X0009523Y0054600D01*
X0009378Y0054669D01*
X0009235Y0054742D01*
X0009093Y0054818D01*
X0008954Y0054898D01*
X0008816Y0054981D01*
X0008681Y0055068D01*
X0008547Y0055158D01*
X0008416Y0055251D01*
X0008288Y0055347D01*
X0008162Y0055447D01*
X0008038Y0055550D01*
X0007917Y0055655D01*
X0007798Y0055764D01*
X0007682Y0055875D01*
X0007569Y0055990D01*
X0007459Y0056107D01*
X0007352Y0056227D01*
X0007248Y0056349D01*
X0007147Y0056474D01*
X0007049Y0056602D01*
X0006954Y0056732D01*
X0006862Y0056864D01*
X0006774Y0056998D01*
X0006689Y0057135D01*
X0006607Y0057273D01*
X0006529Y0057414D01*
X0006455Y0057556D01*
X0006384Y0057700D01*
X0006316Y0057846D01*
X0006253Y0057994D01*
X0006192Y0058143D01*
X0006136Y0058294D01*
X0006083Y0058446D01*
X0006034Y0058599D01*
X0005989Y0058753D01*
X0005948Y0058908D01*
X0005910Y0059065D01*
X0005877Y0059222D01*
X0005847Y0059380D01*
X0005821Y0059539D01*
X0005800Y0059698D01*
X0005782Y0059858D01*
X0005768Y0060018D01*
X0005758Y0060179D01*
X0005752Y0060339D01*
X0005750Y0060500D01*
X0115750Y0060500D02*
X0115752Y0060661D01*
X0115758Y0060821D01*
X0115768Y0060982D01*
X0115782Y0061142D01*
X0115800Y0061302D01*
X0115821Y0061461D01*
X0115847Y0061620D01*
X0115877Y0061778D01*
X0115910Y0061935D01*
X0115948Y0062092D01*
X0115989Y0062247D01*
X0116034Y0062401D01*
X0116083Y0062554D01*
X0116136Y0062706D01*
X0116192Y0062857D01*
X0116253Y0063006D01*
X0116316Y0063154D01*
X0116384Y0063300D01*
X0116455Y0063444D01*
X0116529Y0063586D01*
X0116607Y0063727D01*
X0116689Y0063865D01*
X0116774Y0064002D01*
X0116862Y0064136D01*
X0116954Y0064268D01*
X0117049Y0064398D01*
X0117147Y0064526D01*
X0117248Y0064651D01*
X0117352Y0064773D01*
X0117459Y0064893D01*
X0117569Y0065010D01*
X0117682Y0065125D01*
X0117798Y0065236D01*
X0117917Y0065345D01*
X0118038Y0065450D01*
X0118162Y0065553D01*
X0118288Y0065653D01*
X0118416Y0065749D01*
X0118547Y0065842D01*
X0118681Y0065932D01*
X0118816Y0066019D01*
X0118954Y0066102D01*
X0119093Y0066182D01*
X0119235Y0066258D01*
X0119378Y0066331D01*
X0119523Y0066400D01*
X0119670Y0066466D01*
X0119818Y0066528D01*
X0119968Y0066586D01*
X0120119Y0066641D01*
X0120272Y0066692D01*
X0120426Y0066739D01*
X0120581Y0066782D01*
X0120737Y0066821D01*
X0120893Y0066857D01*
X0121051Y0066888D01*
X0121209Y0066916D01*
X0121368Y0066940D01*
X0121528Y0066960D01*
X0121688Y0066976D01*
X0121848Y0066988D01*
X0122009Y0066996D01*
X0122170Y0067000D01*
X0122330Y0067000D01*
X0122491Y0066996D01*
X0122652Y0066988D01*
X0122812Y0066976D01*
X0122972Y0066960D01*
X0123132Y0066940D01*
X0123291Y0066916D01*
X0123449Y0066888D01*
X0123607Y0066857D01*
X0123763Y0066821D01*
X0123919Y0066782D01*
X0124074Y0066739D01*
X0124228Y0066692D01*
X0124381Y0066641D01*
X0124532Y0066586D01*
X0124682Y0066528D01*
X0124830Y0066466D01*
X0124977Y0066400D01*
X0125122Y0066331D01*
X0125265Y0066258D01*
X0125407Y0066182D01*
X0125546Y0066102D01*
X0125684Y0066019D01*
X0125819Y0065932D01*
X0125953Y0065842D01*
X0126084Y0065749D01*
X0126212Y0065653D01*
X0126338Y0065553D01*
X0126462Y0065450D01*
X0126583Y0065345D01*
X0126702Y0065236D01*
X0126818Y0065125D01*
X0126931Y0065010D01*
X0127041Y0064893D01*
X0127148Y0064773D01*
X0127252Y0064651D01*
X0127353Y0064526D01*
X0127451Y0064398D01*
X0127546Y0064268D01*
X0127638Y0064136D01*
X0127726Y0064002D01*
X0127811Y0063865D01*
X0127893Y0063727D01*
X0127971Y0063586D01*
X0128045Y0063444D01*
X0128116Y0063300D01*
X0128184Y0063154D01*
X0128247Y0063006D01*
X0128308Y0062857D01*
X0128364Y0062706D01*
X0128417Y0062554D01*
X0128466Y0062401D01*
X0128511Y0062247D01*
X0128552Y0062092D01*
X0128590Y0061935D01*
X0128623Y0061778D01*
X0128653Y0061620D01*
X0128679Y0061461D01*
X0128700Y0061302D01*
X0128718Y0061142D01*
X0128732Y0060982D01*
X0128742Y0060821D01*
X0128748Y0060661D01*
X0128750Y0060500D01*
X0128748Y0060339D01*
X0128742Y0060179D01*
X0128732Y0060018D01*
X0128718Y0059858D01*
X0128700Y0059698D01*
X0128679Y0059539D01*
X0128653Y0059380D01*
X0128623Y0059222D01*
X0128590Y0059065D01*
X0128552Y0058908D01*
X0128511Y0058753D01*
X0128466Y0058599D01*
X0128417Y0058446D01*
X0128364Y0058294D01*
X0128308Y0058143D01*
X0128247Y0057994D01*
X0128184Y0057846D01*
X0128116Y0057700D01*
X0128045Y0057556D01*
X0127971Y0057414D01*
X0127893Y0057273D01*
X0127811Y0057135D01*
X0127726Y0056998D01*
X0127638Y0056864D01*
X0127546Y0056732D01*
X0127451Y0056602D01*
X0127353Y0056474D01*
X0127252Y0056349D01*
X0127148Y0056227D01*
X0127041Y0056107D01*
X0126931Y0055990D01*
X0126818Y0055875D01*
X0126702Y0055764D01*
X0126583Y0055655D01*
X0126462Y0055550D01*
X0126338Y0055447D01*
X0126212Y0055347D01*
X0126084Y0055251D01*
X0125953Y0055158D01*
X0125819Y0055068D01*
X0125684Y0054981D01*
X0125546Y0054898D01*
X0125407Y0054818D01*
X0125265Y0054742D01*
X0125122Y0054669D01*
X0124977Y0054600D01*
X0124830Y0054534D01*
X0124682Y0054472D01*
X0124532Y0054414D01*
X0124381Y0054359D01*
X0124228Y0054308D01*
X0124074Y0054261D01*
X0123919Y0054218D01*
X0123763Y0054179D01*
X0123607Y0054143D01*
X0123449Y0054112D01*
X0123291Y0054084D01*
X0123132Y0054060D01*
X0122972Y0054040D01*
X0122812Y0054024D01*
X0122652Y0054012D01*
X0122491Y0054004D01*
X0122330Y0054000D01*
X0122170Y0054000D01*
X0122009Y0054004D01*
X0121848Y0054012D01*
X0121688Y0054024D01*
X0121528Y0054040D01*
X0121368Y0054060D01*
X0121209Y0054084D01*
X0121051Y0054112D01*
X0120893Y0054143D01*
X0120737Y0054179D01*
X0120581Y0054218D01*
X0120426Y0054261D01*
X0120272Y0054308D01*
X0120119Y0054359D01*
X0119968Y0054414D01*
X0119818Y0054472D01*
X0119670Y0054534D01*
X0119523Y0054600D01*
X0119378Y0054669D01*
X0119235Y0054742D01*
X0119093Y0054818D01*
X0118954Y0054898D01*
X0118816Y0054981D01*
X0118681Y0055068D01*
X0118547Y0055158D01*
X0118416Y0055251D01*
X0118288Y0055347D01*
X0118162Y0055447D01*
X0118038Y0055550D01*
X0117917Y0055655D01*
X0117798Y0055764D01*
X0117682Y0055875D01*
X0117569Y0055990D01*
X0117459Y0056107D01*
X0117352Y0056227D01*
X0117248Y0056349D01*
X0117147Y0056474D01*
X0117049Y0056602D01*
X0116954Y0056732D01*
X0116862Y0056864D01*
X0116774Y0056998D01*
X0116689Y0057135D01*
X0116607Y0057273D01*
X0116529Y0057414D01*
X0116455Y0057556D01*
X0116384Y0057700D01*
X0116316Y0057846D01*
X0116253Y0057994D01*
X0116192Y0058143D01*
X0116136Y0058294D01*
X0116083Y0058446D01*
X0116034Y0058599D01*
X0115989Y0058753D01*
X0115948Y0058908D01*
X0115910Y0059065D01*
X0115877Y0059222D01*
X0115847Y0059380D01*
X0115821Y0059539D01*
X0115800Y0059698D01*
X0115782Y0059858D01*
X0115768Y0060018D01*
X0115758Y0060179D01*
X0115752Y0060339D01*
X0115750Y0060500D01*
D17*
X0117250Y0015500D03*
X0107250Y0015500D03*
X0097250Y0015500D03*
X0087250Y0015500D03*
X0077250Y0015500D03*
X0067250Y0015500D03*
X0057250Y0015500D03*
X0047250Y0015500D03*
X0037250Y0015500D03*
X0027250Y0015500D03*
X0017250Y0015500D03*
X0007250Y0015500D03*
X0127250Y0015500D03*
D18*
X0122250Y0031500D03*
X0005250Y0067500D03*
D19*
X0017459Y0068400D02*
X0117041Y0068400D01*
X0114938Y0066635D01*
X0113281Y0063765D01*
X0112705Y0060500D01*
X0112705Y0060500D01*
X0113281Y0057235D01*
X0114938Y0054365D01*
X0114938Y0054365D01*
X0117477Y0052234D01*
X0117477Y0052234D01*
X0120593Y0051100D01*
X0123907Y0051100D01*
X0127022Y0052234D01*
X0127023Y0052234D01*
X0129562Y0054365D01*
X0130150Y0055383D01*
X0130150Y0020144D01*
X0129450Y0020434D01*
X0129450Y0022911D01*
X0123526Y0028835D01*
X0123921Y0028999D01*
X0124751Y0029829D01*
X0125200Y0030913D01*
X0125200Y0032087D01*
X0124751Y0033171D01*
X0123921Y0034001D01*
X0122837Y0034450D01*
X0121663Y0034450D01*
X0120579Y0034001D01*
X0119749Y0033171D01*
X0119585Y0032776D01*
X0098161Y0054200D01*
X0091874Y0054200D01*
X0091915Y0054271D01*
X0092018Y0054653D01*
X0092018Y0057500D01*
X0088262Y0057500D01*
X0088262Y0058500D01*
X0092018Y0058500D01*
X0092018Y0061347D01*
X0091915Y0061729D01*
X0091718Y0062071D01*
X0091439Y0062350D01*
X0091097Y0062547D01*
X0090715Y0062650D01*
X0088262Y0062650D01*
X0088262Y0058500D01*
X0087262Y0058500D01*
X0087262Y0062650D01*
X0084808Y0062650D01*
X0084427Y0062547D01*
X0084085Y0062350D01*
X0083806Y0062071D01*
X0083608Y0061729D01*
X0083506Y0061347D01*
X0083506Y0058500D01*
X0087262Y0058500D01*
X0087262Y0057500D01*
X0083506Y0057500D01*
X0083506Y0054653D01*
X0083608Y0054271D01*
X0083649Y0054200D01*
X0081194Y0054200D01*
X0081194Y0061854D01*
X0080198Y0062850D01*
X0073278Y0062850D01*
X0072282Y0061854D01*
X0072282Y0060200D01*
X0070283Y0060200D01*
X0069346Y0061137D01*
X0067986Y0061700D01*
X0066514Y0061700D01*
X0065154Y0061137D01*
X0064462Y0060444D01*
X0064462Y0060673D01*
X0063466Y0061668D01*
X0057727Y0061668D01*
X0057109Y0061050D01*
X0056990Y0061169D01*
X0056648Y0061366D01*
X0056266Y0061468D01*
X0054388Y0061468D01*
X0054388Y0058484D01*
X0053419Y0058484D01*
X0053419Y0057516D01*
X0050238Y0057516D01*
X0050238Y0055834D01*
X0050340Y0055453D01*
X0050538Y0055110D01*
X0050817Y0054831D01*
X0051159Y0054634D01*
X0051541Y0054531D01*
X0053419Y0054531D01*
X0053419Y0057516D01*
X0054388Y0057516D01*
X0054388Y0054531D01*
X0056266Y0054531D01*
X0056648Y0054634D01*
X0056990Y0054831D01*
X0057109Y0054950D01*
X0057727Y0054331D01*
X0063466Y0054331D01*
X0064462Y0055327D01*
X0064462Y0055556D01*
X0065050Y0054967D01*
X0065050Y0053700D01*
X0061839Y0053700D01*
X0060550Y0052411D01*
X0060129Y0051990D01*
X0060129Y0050035D01*
X0060058Y0049964D01*
X0060058Y0047692D01*
X0059519Y0047692D01*
X0053511Y0053700D01*
X0018770Y0053700D01*
X0019562Y0054365D01*
X0021219Y0057235D01*
X0021219Y0057235D01*
X0021795Y0060500D01*
X0021219Y0063765D01*
X0019562Y0066635D01*
X0019562Y0066635D01*
X0017459Y0068400D01*
X0018633Y0067415D02*
X0115867Y0067415D01*
X0114938Y0066635D02*
X0114938Y0066635D01*
X0114938Y0066635D01*
X0114812Y0066417D02*
X0019688Y0066417D01*
X0020265Y0065418D02*
X0114235Y0065418D01*
X0113659Y0064420D02*
X0020841Y0064420D01*
X0021219Y0063765D02*
X0021219Y0063765D01*
X0021280Y0063421D02*
X0113220Y0063421D01*
X0113281Y0063765D02*
X0113281Y0063765D01*
X0113044Y0062423D02*
X0091313Y0062423D01*
X0091997Y0061424D02*
X0112868Y0061424D01*
X0112718Y0060426D02*
X0092018Y0060426D01*
X0092018Y0059427D02*
X0112894Y0059427D01*
X0113070Y0058429D02*
X0088262Y0058429D01*
X0088262Y0059427D02*
X0087262Y0059427D01*
X0087262Y0058429D02*
X0081194Y0058429D01*
X0081194Y0059427D02*
X0083506Y0059427D01*
X0083506Y0060426D02*
X0081194Y0060426D01*
X0081194Y0061424D02*
X0083527Y0061424D01*
X0084211Y0062423D02*
X0080625Y0062423D01*
X0087262Y0062423D02*
X0088262Y0062423D01*
X0088262Y0061424D02*
X0087262Y0061424D01*
X0087262Y0060426D02*
X0088262Y0060426D01*
X0092018Y0057430D02*
X0113246Y0057430D01*
X0113281Y0057235D02*
X0113281Y0057235D01*
X0113745Y0056432D02*
X0092018Y0056432D01*
X0092018Y0055433D02*
X0114321Y0055433D01*
X0114898Y0054434D02*
X0091959Y0054434D01*
X0097250Y0052000D02*
X0127250Y0022000D01*
X0127250Y0015500D01*
X0129450Y0020485D02*
X0130150Y0020485D01*
X0130150Y0021484D02*
X0129450Y0021484D01*
X0129450Y0022482D02*
X0130150Y0022482D01*
X0130150Y0023481D02*
X0128881Y0023481D01*
X0127882Y0024479D02*
X0130150Y0024479D01*
X0130150Y0025478D02*
X0126884Y0025478D01*
X0125885Y0026476D02*
X0130150Y0026476D01*
X0130150Y0027475D02*
X0124887Y0027475D01*
X0123888Y0028473D02*
X0130150Y0028473D01*
X0130150Y0029472D02*
X0124394Y0029472D01*
X0125016Y0030470D02*
X0130150Y0030470D01*
X0130150Y0031469D02*
X0125200Y0031469D01*
X0125042Y0032467D02*
X0130150Y0032467D01*
X0130150Y0033466D02*
X0124456Y0033466D01*
X0120044Y0033466D02*
X0118895Y0033466D01*
X0117897Y0034464D02*
X0130150Y0034464D01*
X0130150Y0035463D02*
X0116898Y0035463D01*
X0115900Y0036461D02*
X0130150Y0036461D01*
X0130150Y0037460D02*
X0114901Y0037460D01*
X0113903Y0038458D02*
X0130150Y0038458D01*
X0130150Y0039457D02*
X0112904Y0039457D01*
X0111906Y0040455D02*
X0130150Y0040455D01*
X0130150Y0041454D02*
X0110907Y0041454D01*
X0109909Y0042452D02*
X0130150Y0042452D01*
X0130150Y0043451D02*
X0108910Y0043451D01*
X0107912Y0044449D02*
X0130150Y0044449D01*
X0130150Y0045448D02*
X0106913Y0045448D01*
X0105915Y0046446D02*
X0130150Y0046446D01*
X0130150Y0047445D02*
X0104916Y0047445D01*
X0103918Y0048443D02*
X0130150Y0048443D01*
X0130150Y0049442D02*
X0102919Y0049442D01*
X0101921Y0050440D02*
X0130150Y0050440D01*
X0130150Y0051439D02*
X0124839Y0051439D01*
X0127265Y0052437D02*
X0130150Y0052437D01*
X0130150Y0053436D02*
X0128455Y0053436D01*
X0129562Y0054365D02*
X0129562Y0054365D01*
X0129562Y0054365D01*
X0129602Y0054434D02*
X0130150Y0054434D01*
X0119661Y0051439D02*
X0100922Y0051439D01*
X0099924Y0052437D02*
X0117235Y0052437D01*
X0116045Y0053436D02*
X0098925Y0053436D01*
X0097250Y0052000D02*
X0071750Y0052000D01*
X0070203Y0050453D01*
X0070203Y0047882D01*
X0068234Y0047882D02*
X0068234Y0050516D01*
X0067250Y0051500D01*
X0066250Y0051500D01*
X0066266Y0051484D01*
X0066266Y0047882D01*
X0064297Y0047882D02*
X0064297Y0051453D01*
X0064250Y0051500D01*
X0066250Y0051500D01*
X0067250Y0051500D02*
X0067250Y0058000D01*
X0076738Y0058000D01*
X0081194Y0057430D02*
X0083506Y0057430D01*
X0083506Y0056432D02*
X0081194Y0056432D01*
X0081194Y0055433D02*
X0083506Y0055433D01*
X0083564Y0054434D02*
X0081194Y0054434D01*
X0072750Y0050000D02*
X0096250Y0050000D01*
X0117250Y0029000D01*
X0117250Y0015500D01*
X0107250Y0015500D02*
X0107250Y0036000D01*
X0095250Y0048000D01*
X0078850Y0048000D01*
X0076271Y0045421D01*
X0074632Y0045421D01*
X0074632Y0043453D02*
X0076903Y0043453D01*
X0079450Y0046000D01*
X0094250Y0046000D01*
X0097250Y0043000D01*
X0097250Y0015500D01*
X0095250Y0023500D02*
X0087250Y0015500D01*
X0082229Y0017490D02*
X0082071Y0017490D01*
X0082069Y0017496D02*
X0081697Y0018225D01*
X0081216Y0018888D01*
X0080638Y0019466D01*
X0079975Y0019947D01*
X0079246Y0020319D01*
X0078468Y0020572D01*
X0077750Y0020686D01*
X0077750Y0016000D01*
X0076750Y0016000D01*
X0076750Y0020686D01*
X0076032Y0020572D01*
X0075254Y0020319D01*
X0074525Y0019947D01*
X0073862Y0019466D01*
X0073284Y0018888D01*
X0072803Y0018225D01*
X0072431Y0017496D01*
X0072359Y0017276D01*
X0071828Y0018559D01*
X0070309Y0020078D01*
X0068324Y0020900D01*
X0066176Y0020900D01*
X0064191Y0020078D01*
X0062672Y0018559D01*
X0062250Y0017540D01*
X0061828Y0018559D01*
X0060309Y0020078D01*
X0059450Y0020434D01*
X0059450Y0033308D01*
X0060058Y0033308D01*
X0060058Y0031036D01*
X0061054Y0030040D01*
X0063604Y0030040D01*
X0063804Y0030240D01*
X0064297Y0030240D01*
X0064297Y0030734D01*
X0064297Y0030240D01*
X0065066Y0030240D01*
X0065281Y0030298D01*
X0065497Y0030240D01*
X0066266Y0030240D01*
X0067034Y0030240D01*
X0067250Y0030298D01*
X0067466Y0030240D01*
X0068234Y0030240D01*
X0068234Y0031161D01*
X0068234Y0031161D01*
X0068234Y0031161D01*
X0068234Y0030240D01*
X0069003Y0030240D01*
X0069219Y0030298D01*
X0069434Y0030240D01*
X0070203Y0030240D01*
X0070971Y0030240D01*
X0071187Y0030298D01*
X0071403Y0030240D01*
X0072171Y0030240D01*
X0072171Y0031161D01*
X0072171Y0031161D01*
X0072171Y0030240D01*
X0072940Y0030240D01*
X0073321Y0030342D01*
X0073663Y0030540D01*
X0073942Y0030819D01*
X0074140Y0031161D01*
X0074242Y0031543D01*
X0074242Y0033118D01*
X0072171Y0033118D01*
X0070203Y0033118D01*
X0070203Y0033118D01*
X0070305Y0033118D01*
X0072171Y0033118D01*
X0072171Y0033118D01*
X0072171Y0030921D01*
X0071250Y0030000D01*
X0070250Y0030000D01*
X0070203Y0030047D01*
X0070203Y0033118D01*
X0068234Y0033118D01*
X0066266Y0033118D01*
X0066266Y0033118D01*
X0068234Y0033118D01*
X0068234Y0033118D01*
X0068234Y0030016D01*
X0068250Y0030000D01*
X0066250Y0030000D01*
X0066266Y0030016D01*
X0066266Y0033118D01*
X0064600Y0033118D01*
X0064600Y0033118D01*
X0066163Y0033118D01*
X0066266Y0033118D01*
X0066266Y0033118D01*
X0064297Y0033118D02*
X0064297Y0030453D01*
X0064750Y0030000D01*
X0066250Y0030000D01*
X0066266Y0030240D02*
X0066266Y0031161D01*
X0066266Y0030240D01*
X0066266Y0030470D02*
X0066266Y0030470D01*
X0066266Y0031161D02*
X0066266Y0031161D01*
X0066266Y0031161D01*
X0064297Y0030734D02*
X0064297Y0030734D01*
X0064297Y0030470D02*
X0064297Y0030470D01*
X0060624Y0030470D02*
X0059450Y0030470D01*
X0059450Y0029472D02*
X0080894Y0029472D01*
X0081034Y0029331D02*
X0086773Y0029331D01*
X0087391Y0029950D01*
X0087510Y0029831D01*
X0087852Y0029634D01*
X0088234Y0029531D01*
X0090112Y0029531D01*
X0090112Y0032516D01*
X0091081Y0032516D01*
X0091081Y0029531D01*
X0092959Y0029531D01*
X0093050Y0029556D01*
X0093050Y0024411D01*
X0089183Y0020544D01*
X0088324Y0020900D01*
X0086176Y0020900D01*
X0084191Y0020078D01*
X0082672Y0018559D01*
X0082141Y0017276D01*
X0082069Y0017496D01*
X0081507Y0018488D02*
X0082643Y0018488D01*
X0083600Y0019487D02*
X0080610Y0019487D01*
X0078735Y0020485D02*
X0085174Y0020485D01*
X0090122Y0021484D02*
X0059450Y0021484D01*
X0059450Y0022482D02*
X0091121Y0022482D01*
X0092119Y0023481D02*
X0059450Y0023481D01*
X0059450Y0024479D02*
X0093050Y0024479D01*
X0093050Y0025478D02*
X0059450Y0025478D01*
X0059450Y0026476D02*
X0093050Y0026476D01*
X0093050Y0027475D02*
X0059450Y0027475D01*
X0059450Y0028473D02*
X0093050Y0028473D01*
X0093050Y0029472D02*
X0086913Y0029472D01*
X0090112Y0030470D02*
X0091081Y0030470D01*
X0091081Y0031469D02*
X0090112Y0031469D01*
X0090112Y0032467D02*
X0091081Y0032467D01*
X0089250Y0036500D02*
X0090596Y0037846D01*
X0090596Y0040500D01*
X0093250Y0044000D02*
X0095250Y0042000D01*
X0095250Y0023500D01*
X0081034Y0029331D02*
X0080038Y0030327D01*
X0080038Y0030800D01*
X0078839Y0030800D01*
X0076331Y0033308D01*
X0074242Y0033308D01*
X0074242Y0033118D01*
X0072171Y0033118D01*
X0072171Y0033118D01*
X0074242Y0032467D02*
X0077171Y0032467D01*
X0078170Y0031469D02*
X0074222Y0031469D01*
X0073543Y0030470D02*
X0080038Y0030470D01*
X0079750Y0033000D02*
X0077171Y0035579D01*
X0074632Y0035579D01*
X0074632Y0037547D02*
X0079703Y0037547D01*
X0080750Y0036500D01*
X0089250Y0036500D01*
X0083904Y0033000D02*
X0079750Y0033000D01*
X0072171Y0030470D02*
X0072171Y0030470D01*
X0070203Y0030470D02*
X0070203Y0030470D01*
X0070203Y0030240D02*
X0070203Y0031161D01*
X0070203Y0031161D01*
X0070203Y0031161D01*
X0070203Y0030240D01*
X0070250Y0030000D02*
X0068250Y0030000D01*
X0068234Y0030470D02*
X0068234Y0030470D01*
X0068234Y0033118D02*
X0068234Y0033118D01*
X0070203Y0033118D01*
X0070203Y0033118D01*
X0060058Y0032467D02*
X0059450Y0032467D01*
X0059450Y0031469D02*
X0060058Y0031469D01*
X0057250Y0034700D02*
X0057250Y0024500D01*
X0051750Y0024500D01*
X0049750Y0026500D01*
X0049750Y0029000D01*
X0051250Y0030500D01*
X0051250Y0042000D01*
X0049404Y0043846D01*
X0047750Y0043846D01*
X0051400Y0047500D02*
X0039250Y0047500D01*
X0038250Y0046500D01*
X0038250Y0044000D01*
X0038404Y0043846D01*
X0041750Y0043846D01*
X0038250Y0044000D02*
X0038250Y0024500D01*
X0047250Y0015500D01*
X0037250Y0015500D02*
X0036250Y0016500D01*
X0036250Y0042000D01*
X0034404Y0043846D01*
X0032750Y0043846D01*
X0026750Y0043846D02*
X0025596Y0043846D01*
X0023250Y0041500D01*
X0023250Y0019500D01*
X0027250Y0015500D01*
X0021250Y0019500D02*
X0021250Y0043500D01*
X0020904Y0043846D01*
X0017750Y0043846D01*
X0021250Y0043500D02*
X0021250Y0048453D01*
X0022297Y0049500D01*
X0052000Y0049500D01*
X0058047Y0043453D01*
X0059868Y0043453D01*
X0059868Y0041484D02*
X0057416Y0041484D01*
X0051400Y0047500D01*
X0056771Y0050440D02*
X0060129Y0050440D01*
X0060129Y0051439D02*
X0055772Y0051439D01*
X0054774Y0052437D02*
X0060576Y0052437D01*
X0061575Y0053436D02*
X0053775Y0053436D01*
X0053419Y0055433D02*
X0054388Y0055433D01*
X0054388Y0056432D02*
X0053419Y0056432D01*
X0053419Y0057430D02*
X0054388Y0057430D01*
X0053419Y0058429D02*
X0021430Y0058429D01*
X0021606Y0059427D02*
X0050238Y0059427D01*
X0050238Y0060166D02*
X0050238Y0058484D01*
X0053419Y0058484D01*
X0053419Y0061468D01*
X0051541Y0061468D01*
X0051159Y0061366D01*
X0050817Y0061169D01*
X0050538Y0060890D01*
X0050340Y0060547D01*
X0050238Y0060166D01*
X0050308Y0060426D02*
X0021782Y0060426D01*
X0021795Y0060500D02*
X0021795Y0060500D01*
X0021632Y0061424D02*
X0051375Y0061424D01*
X0053419Y0061424D02*
X0054388Y0061424D01*
X0054388Y0060426D02*
X0053419Y0060426D01*
X0053419Y0059427D02*
X0054388Y0059427D01*
X0056432Y0061424D02*
X0057483Y0061424D01*
X0060596Y0058000D02*
X0067250Y0058000D01*
X0064584Y0055433D02*
X0064462Y0055433D01*
X0065050Y0054434D02*
X0063569Y0054434D01*
X0064250Y0051500D02*
X0062750Y0051500D01*
X0062329Y0051079D01*
X0062329Y0047882D01*
X0060058Y0048443D02*
X0058768Y0048443D01*
X0057769Y0049442D02*
X0060058Y0049442D01*
X0059868Y0045421D02*
X0058679Y0045421D01*
X0052600Y0051500D01*
X0017250Y0051500D01*
X0011750Y0046000D01*
X0011750Y0043846D01*
X0010596Y0043846D01*
X0007250Y0040500D01*
X0007250Y0015500D01*
X0017250Y0015500D02*
X0021250Y0019500D01*
X0012250Y0026500D02*
X0017750Y0032000D01*
X0017750Y0037154D01*
X0011750Y0037154D02*
X0011750Y0032500D01*
X0012250Y0032000D01*
X0026750Y0032500D02*
X0032250Y0027000D01*
X0032250Y0032000D02*
X0032750Y0032500D01*
X0032750Y0037154D01*
X0026750Y0037154D02*
X0026750Y0032500D01*
X0041750Y0032000D02*
X0041750Y0037154D01*
X0047750Y0037154D02*
X0047750Y0032000D01*
X0053750Y0033900D02*
X0053750Y0028000D01*
X0057250Y0024500D02*
X0057250Y0015500D01*
X0061857Y0018488D02*
X0062643Y0018488D01*
X0063600Y0019487D02*
X0060900Y0019487D01*
X0059450Y0020485D02*
X0065174Y0020485D01*
X0069326Y0020485D02*
X0075765Y0020485D01*
X0076750Y0020485D02*
X0077750Y0020485D01*
X0077750Y0019487D02*
X0076750Y0019487D01*
X0076750Y0018488D02*
X0077750Y0018488D01*
X0077750Y0017490D02*
X0076750Y0017490D01*
X0076750Y0016491D02*
X0077750Y0016491D01*
X0073890Y0019487D02*
X0070900Y0019487D01*
X0071857Y0018488D02*
X0072993Y0018488D01*
X0072429Y0017490D02*
X0072271Y0017490D01*
X0053750Y0033900D02*
X0057397Y0037547D01*
X0059868Y0037547D01*
X0059868Y0035579D02*
X0058129Y0035579D01*
X0057250Y0034700D01*
X0059868Y0039516D02*
X0054616Y0039516D01*
X0072171Y0047882D02*
X0072171Y0049421D01*
X0072750Y0050000D01*
X0080250Y0044000D02*
X0093250Y0044000D01*
X0083904Y0040500D02*
X0079750Y0040500D01*
X0078766Y0039516D01*
X0074632Y0039516D01*
X0074632Y0041484D02*
X0077734Y0041484D01*
X0080250Y0044000D01*
X0057624Y0054434D02*
X0019602Y0054434D01*
X0019562Y0054365D02*
X0019562Y0054365D01*
X0019562Y0054365D01*
X0020179Y0055433D02*
X0050352Y0055433D01*
X0050238Y0056432D02*
X0020755Y0056432D01*
X0021254Y0057430D02*
X0050238Y0057430D01*
X0063710Y0061424D02*
X0065848Y0061424D01*
X0068652Y0061424D02*
X0072282Y0061424D01*
X0072282Y0060426D02*
X0070057Y0060426D01*
X0072851Y0062423D02*
X0021456Y0062423D01*
D20*
X0048250Y0058000D03*
X0067250Y0058000D03*
X0094750Y0058000D03*
X0054616Y0039516D03*
X0047750Y0032000D03*
X0041750Y0032000D03*
X0032250Y0032000D03*
X0032250Y0027000D03*
X0012250Y0026500D03*
X0012250Y0032000D03*
X0053750Y0028000D03*
M02*
